<?xml version="1.0" standalone="no"?>
<!DOCTYPE svg PUBLIC "-//W3C//DTD SVG 1.1//EN" "http://www.w3.org/Graphics/SVG/1.1/DTD/svg11.dtd" >
<svg>
<metadata>
Created by FontForge 20090914 at Fri Feb 24 05:12:44 2012
 By root
Typeface &#194;&#169; &#60;your company&#62;. 2007. All Rights Reserved
</metadata>
<defs>
<font id="maenan2" horiz-adv-x="1139" >
  <font-face 
    font-family="maenan2"
    font-weight="400"
    font-stretch="normal"
    units-per-em="2048"
    panose-1="2 0 0 0 0 0 0 0 0 0"
    ascent="1638"
    descent="-410"
    x-height="823"
    cap-height="1364"
    bbox="-385 -634 2039 1602"
    underline-thickness="150"
    underline-position="-142"
    unicode-range="U+0020-U+F005"
  />
<missing-glyph horiz-adv-x="1536" 
d="M256 0v1280h1024v-1280h-1024zM288 32h960v1216h-960v-1216z" />
    <glyph glyph-name=".notdef" horiz-adv-x="1536" 
d="M256 0v1280h1024v-1280h-1024zM288 32h960v1216h-960v-1216z" />
    <glyph glyph-name=".null" horiz-adv-x="0" 
 />
    <glyph glyph-name="nonmarkingreturn" horiz-adv-x="569" 
 />
    <glyph glyph-name="space" unicode=" " horiz-adv-x="569" 
 />
    <glyph glyph-name="space" unicode="&#xa0;" horiz-adv-x="569" 
 />
    <glyph glyph-name="exclam" unicode="!" horiz-adv-x="505" 
d="M219 1430h90l33 -41q29 -58 33 -132v-286l-16 -25l-74 -409l-33 -99l-25 41l-32 115l-17 278l-32 164l-9 148l17 147q26 49 65 99zM236 1421l-33 -24l57 -17l66 -90l24 -131v-155l17 90v155l-25 123q-47 33 -106 49zM236 1397l24 -41q-6 20 -24 41zM187 1389l-9 -25h25
q-2 16 -16 25zM162 1315l16 -49v41zM162 1257l8 -40v32zM252 1217v-74l16 57q-2 8 -16 17zM219 954l17 -196v114q-2 41 -17 82zM195 700l16 -90q-2 45 -16 90zM195 217l106 -8l58 -57l8 -82l-58 -90l-106 8l-66 90l9 74zM236 111l57 -33q-23 22 -57 33z" />
    <glyph glyph-name="quotedbl" unicode="&#x22;" horiz-adv-x="727" 
d="M167 1393l99 -33l90 -148l24 -98l-16 -106l-49 -82l-66 -58l-73 -41l-66 -8l115 189l16 65l-57 107l-82 73l8 74zM192 1376v-16l16 8zM569 1384l65 -32l50 -107l32 -123l-16 -131l-25 58l-32 -33l-58 -98l-8 40l-33 -24l-65 -90l24 82l107 188l-66 49l-98 33l-33 66
l99 106l65 -25zM602 1343q4 -28 24 -49zM659 1311l-8 -25l16 -16zM192 1294l49 -65q-18 37 -49 65zM536 1286q14 -29 41 -49zM454 1278l49 -90q-18 49 -49 90zM520 1253l49 -49q-21 25 -49 49zM626 1253l17 -32q-4 18 -17 32zM315 1245l25 -180l-66 -164l66 82l24 90l-8 107
q-14 34 -41 65zM208 1171l50 -57q-7 41 -50 57zM684 1065l16 -49l8 131zM585 1032l-8 -24l16 8zM258 975l8 -17l16 58zM610 1016l-25 -74l17 8l24 58zM217 950l-66 -114q47 47 66 114zM249 926l-49 -74q31 29 49 74z" />
    <glyph glyph-name="numbersign" unicode="#" horiz-adv-x="1206" 
d="M942 1483l41 -90l-8 -140l-66 -278l156 24l-49 -24l106 -17l8 -98h-196q-54 -14 -74 -74l-33 -204l213 -9l66 -73l-123 -33l-172 16l-90 -442l-58 -81l-32 122l41 -41l8 139l-41 -65v32l57 115l41 213l-24 17l-230 -58q-53 -14 -74 -74l-57 -245q-16 -56 -74 -66l-24 17
l8 106l49 254l-33 16l-147 -16l-41 49q8 55 57 98h213l58 320l-131 -16l-82 -25l-33 16l-25 66l41 24l246 41v148l25 123l65 155l57 -32l25 -115l-49 -254q16 -49 74 -57l32 -9l90 17q56 12 74 74l17 139l49 180l24 -16q19 57 25 131zM950 1409l-16 -41l16 -16l-16 -58
l8 -24l16 57zM491 1319l-32 -213l8 -107l73 402zM549 1384l24 -122l17 90q-15 18 -41 32zM893 1278l8 -41v33zM926 1270l16 -74q-2 37 -16 74zM917 1204l17 -57q0 27 -17 57zM164 926l41 -41q-15 22 -41 41zM213 926q8 -13 24 -17zM532 901h58l49 17zM885 918l41 -17l16 17
h-57zM647 909l131 -8q-57 8 -131 8zM467 885v-49l16 41zM524 885l-57 -279l286 -16l33 254l-33 -8l-73 41zM827 836l8 -41v32zM188 565l25 -16q-6 12 -25 16zM147 557l-49 -57l49 -49l-16 32l41 41zM459 549l106 -25q-47 19 -106 25zM827 524l41 -16l58 16h-99zM983 532
l-41 -24h57zM762 492v-50l16 41zM344 434l-17 -98q15 45 17 98zM745 418l8 -49v41zM287 82l40 8l-16 82l16 107zM696 123v-66l17 49q-3 9 -17 17zM688 57l25 -24q-9 14 -25 24z" />
    <glyph glyph-name="dollar" unicode="$" horiz-adv-x="956" 
d="M567 1511l-16 -81l74 -50l114 -24l74 -58l66 -73l16 -123l-49 -74l-74 66l-33 98l-65 74l-90 41l-41 -74v-402l82 -49l106 -32l82 -50l74 -65l49 -90v-254l-57 -82l-140 -131l-147 -41l-41 -41l8 -114l-16 -66l-49 25l-25 114v82l-156 24l-98 41l-74 58l-57 82l-8 90
l-33 74l16 24l74 16l131 -49l41 -98l25 -106l147 -66v532h-41l-155 107v-41l-123 115l-49 82l-17 122l41 99l107 164l172 98l49 -16l24 16l-8 180l33 17v-25l33 8zM526 1552l9 -41v33zM739 1323l123 -115l-49 74zM461 1315l-90 -82l-58 -115v-147l181 -107l16 189l-16 262
h-33zM674 1307l98 -66q-43 33 -98 66zM313 1290l-41 -65q27 28 41 65zM788 1192l25 -49q-2 28 -25 49zM264 1143l-8 -115l25 -33l8 90q-8 31 -25 58zM133 1126l-33 -139l41 -115v246zM821 1102l17 -25q-2 17 -17 25zM256 930q0 -17 16 -33zM461 807l16 -16q-2 8 -16 16z
M584 741q26 -18 65 -32zM444 725q11 -18 33 -33zM723 684l65 -74q-26 39 -65 74zM551 627q8 -13 24 -17zM551 561l8 -450l66 16l106 82l41 123l41 49l-33 57l-106 74q-49 27 -123 49zM854 545l66 -107q-13 58 -66 107zM887 545l24 -25q-6 19 -24 25zM84 422l-25 -16l25 -50
l41 25q-16 25 -41 41zM911 365l17 -33l-8 49zM805 348l-25 -74q23 31 25 74zM797 283l-25 -41q23 12 25 41zM887 266l-25 -57q23 24 25 57zM133 250l-8 -25l16 -8zM764 217l-33 -49q23 18 33 49zM690 152h17l-9 16zM264 143l-16 -24l33 8q-2 10 -17 16zM305 119
q27 -41 82 -49zM707 86l-41 -33q26 10 41 33zM494 37l8 -123v90zM535 -126l8 -41v32z" />
    <glyph glyph-name="percent" unicode="%" horiz-adv-x="1112" 
d="M856 1434l57 -41l-24 -99l32 33l-24 -57l41 49l-17 -66l-737 -1334l-24 32l-41 -73l221 597zM856 1401l-82 -180l8 -17h17l49 90l24 82q-2 17 -16 25zM282 1384l91 -32l73 -82l49 -99l17 -131l-17 -139l-49 -98l-73 -82l-99 -49l-114 41l-74 82l-41 106l-17 131l9 115
l57 123l82 73zM225 1303l98 -140l-8 90q-37 33 -90 50zM192 1270l33 -99l90 -32l-41 90q-35 24 -82 41zM889 1270l-9 -33l17 16zM766 1212l16 -16q-4 8 -16 16zM176 1204l-49 -155l24 -156q0 -88 90 -90l-81 98q47 -55 122 -82q37 62 50 148l-9 147q-90 39 -147 90z
M348 1180q4 -35 25 -66zM356 1098v-131l-16 -99l16 -24l25 123v123zM414 1032l-9 -24l17 -82l8 82zM340 819l-8 -33l24 17q-2 10 -16 16zM299 811l-66 -49h66l16 41zM373 786l-82 -65q57 10 82 65zM831 778l123 -49l66 -90l41 -123l16 -270l-16 -25l-17 -139l-65 -98
l-107 -16l-106 8l-41 32l-66 90l-41 115l-16 123v156l49 147l74 90zM782 745l-65 -57l114 33l82 -8l58 -33l-41 41q-66 22 -148 24zM856 647l115 -98l-41 74zM790 623l-32 -41l65 32zM799 590q-56 -43 -74 -115v-164l49 -139q49 -49 123 -66q47 41 74 107l-9 172l-41 147
q-45 52 -122 58zM692 557l-16 -147l8 -131v147l16 106zM250 131l-33 -106q22 49 33 106zM758 115l16 -9l-8 25zM807 98l16 -24l66 8zM995 57l-8 -24l16 8zM979 33l-17 -25q17 8 17 25zM815 16l57 -16l17 16h-74z" />
    <glyph glyph-name="ampersand" unicode="&#x26;" horiz-adv-x="1310" 
d="M368 702q-73 -55 -127.5 -118.5t-54.5 -163.5v-7v-5q6 -109 84 -202t191 -104q71 0 133.5 27t109.5 80l-115.5 162l-109.5 166q-8 10 -14 20t-15 21l-40.5 61l-41.5 61v2zM387 1319h139l74 -41l24 16l99 -65l49 -99l33 -114l-25 -74l-25 33l-229 -172l49 -107l180 -278
l74 -49l49 98l41 213l-172 106q6 41 49 58l402 -49l-82 -74q-51 -19 -82 -74l-147 -270l8 57l-66 -131l25 8l16 -90l90 -74l140 -65l81 24l91 66h57l-8 -82l-181 -106l-139 -16l-114 40l-107 98l-16 -8l147 -138l-49 16l-90 65l-90 25l-230 -82l-123 -8l-131 40l-147 164
l-41 115v82l139 237l82 82l90 49l-49 99l-82 229l17 115l82 82zM354 1286l-74 -41l-49 -65l-24 -90l24 16l49 106l99 66zM395 1229l25 8l-17 8zM452 1229l-57 -49l98 49h-41zM518 1229l24 -17l17 17h-41zM477 1180l-115 -58l-8 -82l90 -122q21 -46 74 -50l90 74l33 90
l-49 107q-47 39 -115 41zM608 1163l49 -114q-2 61 -49 114zM698 1081l-16 -65l16 -17l17 66q-3 10 -17 16zM731 1065l-8 -41l16 8zM313 1049l25 -115q-6 53 -25 115zM706 975l-16 -57l41 49zM403 934q4 -37 25 -74zM534 852l-24 -33q22 10 24 33zM764 827l-17 -24h25l24 24
h-32zM1001 745l-16 -24l33 8q-2 8 -17 16zM895 737l33 -49q-5 29 -33 49zM944 737l24 -16q-6 12 -24 16zM370 721l-32 -57q22 22 32 57zM952 713v-17l16 9zM305 696l-8 -24l16 8zM379 696l-33 -65q22 26 33 65zM567 696q2 -22 16 -41zM510 672l24 -33q-4 18 -24 33zM592 655
l24 -73l49 -66l-32 74zM420 639l24 -41q-4 20 -24 41zM928 639l-9 -41l17 25zM289 590l24 8l-16 8zM911 532l-8 -40l16 24zM633 385l65 -106q-24 53 -65 106zM174 369l-8 -25l16 -65zM133 344l-8 -82l24 -16q-2 49 -16 98zM706 262l17 -8l-8 25zM231 238q6 -21 25 -33z
M166 213l41 -82q-13 43 -41 82zM796 188q2 -24 25 -41zM239 164l25 -90q-4 43 -25 90zM280 164q9 -19 33 -25zM821 164q12 -17 33 -25zM755 131l17 -16q-2 8 -17 16zM444 115l25 -33l57 16zM166 98l41 -41q-15 23 -41 41zM272 49q29 -33 74 -49zM952 0l41 -8l16 8h-57z" />
    <glyph glyph-name="quotesingle" unicode="'" horiz-adv-x="413" 
d="M266 1364l57 -33l50 -98l32 -115v-114l-16 -17l-25 49l-73 -114l-33 -25l8 41l-24 -16l-58 -82l-24 32l41 33l57 90l41 99l-66 49l-98 33l-25 81l99 91l57 -17v33zM282 1323q11 -23 33 -41zM340 1274l16 -17l-8 33zM143 1257q6 -55 58 -81q-21 43 -58 81zM242 1257
l24 -40q-6 22 -24 40zM209 1233q18 -31 57 -41zM373 1028l16 -24l8 131zM282 1028l-8 -24l17 8zM299 1004l-25 -82l17 8l24 57q-2 10 -16 17z" />
    <glyph glyph-name="parenleft" unicode="(" horiz-adv-x="604" 
d="M473 1372q61 -2 114 -41l-41 -114l-73 -99l-58 -106l-57 -279l-41 -459l115 -548l49 -123l74 -90l32 -106h-114l-213 368l-41 123l-58 442v172l50 123l16 147l106 402q109 137 140 188zM391 1233q-37 -57 -41 -131q30 55 41 131zM350 913l8 -24l41 205zM309 692l24 58
l-16 24l16 107zM292 586v-115l17 -90l41 393zM202 209l17 8l-8 295zM227 29l8 -41v32zM292 -143l9 -90l24 -74l8 25q-22 102 -41 139zM366 -372l-8 -25l16 -8zM464 -413l25 -49q-6 24 -25 49zM530 -512l16 -8l-8 25zM448 -544l16 -8l-8 24z" />
    <glyph glyph-name="parenright" unicode=")" horiz-adv-x="604" 
d="M31 1401l106 -8l49 -58l33 -73l82 -82l33 -82l82 -344l24 -385l-16 -197l-57 -212l16 -33l-180 -459l-66 -41l-90 16l-25 25l33 33l180 459l25 -33v532l41 98l-98 401l98 -262l-8 99l-25 82l-139 311l-16 -41v-82l-9 98l-82 131l25 17l-25 41zM145 1360l17 -41
q-2 20 -17 41zM80 1335l16 -32q-4 18 -16 32zM121 1311l24 -41q-4 24 -24 41zM72 1294l16 -16q-2 8 -16 16zM268 1163l17 -41l-9 58zM309 1106l58 -221l-25 123zM211 1090l24 -82l-16 -25l25 -16l8 57zM309 532v-442l17 344q-2 51 -17 98zM293 508l-8 -385l16 352zM219 -122
l-8 -33l16 -17v41zM170 -253l-33 -123q29 51 33 123zM203 -401l-8 -33l16 9z" />
    <glyph glyph-name="asterisk" unicode="*" horiz-adv-x="956" 
d="M466 1438l98 -49l25 -115v-90l16 -25l180 66l41 -25q31 -49 33 -123l-114 -41l-132 -24l115 -156l25 -82l-17 -33l-131 -24l-57 98l-25 123l-49 -107l-82 -114l-90 8q-57 27 -57 98l65 90l131 123l-82 17l-57 -25l-147 33l32 -33l-41 8l-24 25l16 98l107 82l90 -57
l82 -74l41 -16l-17 229zM212 1208l41 -8l16 8h-57zM155 1126l16 -16q-2 10 -16 16zM769 1126l-16 -24q16 8 16 24zM474 1036l17 -16q-2 8 -17 16zM540 995q18 -16 41 -16zM409 905l-25 -74q23 29 25 74zM589 897q16 -51 74 -66q-31 35 -74 66zM695 741h25v25z" />
    <glyph glyph-name="plus" unicode="+" horiz-adv-x="1024" 
d="M507 1192l57 -57l25 -131v-123l-17 -82l91 -25l270 33l65 -57l-49 -74l-106 -33l-139 -8l-123 24v-245l-25 -148l-49 -41l-33 25l-16 262l-17 -49l-8 196l-196 -32h-197l41 114l41 33l254 33q61 10 65 82v270q33 8 66 33zM491 1135l8 -17l16 58zM491 1094q4 -19 16 -33z
M302 791l-123 -25l254 16q-57 9 -131 9zM572 782v-41l50 17zM884 750l41 -9l16 9h-57zM409 741l-25 -24h49q-6 18 -24 24zM286 668h41l57 24zM581 692l24 -16q-6 12 -24 16zM228 684l-16 -25l49 25h-33zM515 463l16 -98q0 49 -16 98zM556 455l8 -49v40z" />
    <glyph glyph-name="comma" unicode="," horiz-adv-x="485" 
d="M125 238l123 -25l74 -66q41 -34 49 -98l-16 -196l-50 -90l-73 -74l-82 -57l33 41l-17 24l-41 -24l123 229l-33 58l-123 56v107q9 55 33 115zM133 213h17l-8 16zM330 131l16 -25q-2 17 -16 25zM174 106l17 -57l8 49zM207 98l-8 -49l24 33q-2 10 -16 16zM240 90l-17 -57
l33 16q-2 21 -16 41zM338 90l17 -65q0 32 -17 65zM133 74l17 -25q-2 17 -17 25zM109 49q4 -16 16 -24zM281 16l-8 -32l24 8zM289 -32l-8 -25l16 -8l8 33h-16zM240 -155l-49 -74l-17 -57l49 65q15 31 17 66zM314 -155l-17 -49q15 20 17 49zM240 -229l-17 -57l33 33z" />
    <glyph glyph-name="hyphen" unicode="-" horiz-adv-x="436" 
d="M0 508h141l49 -33l66 17l133 -33l47 -49l-104 -41l-322 8q-10 57 -10 131zM18 500l-8 -58l94 33zM256 442l39 9l-49 8zM313 459l37 -25l21 25h-58z" />
    <glyph glyph-name="hyphen" unicode="&#xad;" horiz-adv-x="436" 
d="M0 508h141l49 -33l66 17l133 -33l47 -49l-104 -41l-322 8q-10 57 -10 131zM18 500l-8 -58l94 33zM256 442l39 9l-49 8zM313 459l37 -25l21 25h-58z" />
    <glyph glyph-name="period" unicode="." horiz-adv-x="485" 
d="M293 209l74 -57l33 -91l-49 -73l-189 -8l-33 147l66 57q49 4 98 25zM146 143l-8 -65l16 -17l8 74zM170 143l25 -123l65 -32l17 8l-8 24l-66 50q-4 41 -33 73zM228 119l24 16l-24 8v-24zM203 119l-8 -25l25 -8zM277 111l-8 -41l16 -9v41zM293 94l25 -16q-6 12 -25 16z
M359 94l-8 -74l16 9l8 49q-2 8 -16 16zM162 53q4 -33 25 -65z" />
    <glyph glyph-name="slash" unicode="/" horiz-adv-x="471" 
d="M406 1395l61 -35l-43 -174l43 45l51 137l-69 -113q24 68 88 123q49 -14 86 -61l-35 -174l-61 -148l-346 -1091l-78 -121l-86 -286v53l-78 -113l-77 -10l-19 61q10 76 70 140zM414 1386l-129 -477l121 242l43 209zM527 1317l-17 -70q17 31 17 70zM572 1298l-27 -120l8 -17
q15 62 19 137zM580 1255l8 -43v35zM484 1239l10 -35l8 35h-18zM494 1196l8 -45v35zM424 1118l-10 -45l18 10zM449 1100l-70 -174l19 -68l43 113l18 94zM346 987l-53 -86l-69 -182l-17 -105l43 78zM432 926l-18 -103q16 47 18 103zM336 700l10 -24l33 112v103zM406 762l8 -27
l18 96zM277 727l-19 -70q17 31 19 70zM371 711l-25 -88l17 -25q8 49 8 113zM312 692l-62 -225l17 -35l53 225zM258 614l-69 -163l-35 -175l88 252zM328 606l-16 -78l16 -26l18 78zM293 494l-8 -97l27 70zM258 432l-43 -61l-51 -181v-96l78 252zM41 -86l11 -18l77 268l9 78z
M146 121l-70 -198l10 -35l68 137zM189 94l-60 -145q-34 -63 -34 -139l59 147q29 57 35 137zM17 -26l-59 -330l67 305zM68 -131l-43 -67v-131l35 78zM-18 -372l24 -27v105zM-69 -372l-35 -113v51l-26 -59l8 -53l53 43l8 96zM-18 -407l8 -43v35z" />
    <glyph glyph-name="zero" unicode="0" horiz-adv-x="956" 
d="M368 1352h148l98 -49l74 -74l57 -99l57 -57l41 -106l8 -140l-16 -426l-33 -41l-90 -204l-98 -115l41 -8l-115 -33h-147l-123 25l-74 57l-98 164l-58 172l25 24l-25 123v271l33 139l41 106l-16 25l82 139l82 66zM409 1311l-74 -41l140 8l90 -107l90 -147l-8 57l-50 115
l-73 82zM573 1303l16 -17q-2 8 -16 17zM319 1286l-66 -74q37 31 66 74zM221 1262l-82 -82l-33 -82l25 8q77 123 90 156zM409 1262l-98 -41l-49 -82l-58 -344l115 -680l82 -49h115l32 98l131 237l25 107l8 123l-16 114l-58 164l82 -204l-24 147l-66 66l58 -33l-181 344
q-41 18 -98 33zM606 1221l16 -33q-4 18 -16 33zM172 1130l-17 -65q12 27 17 65zM729 1130l-9 -40l25 -58zM770 1098l65 -172l-25 98zM770 1016l16 -98l33 -74l-17 98zM204 983l-32 -106l16 -9zM835 909l8 -41v33zM65 483l16 -41l-16 312v-271zM810 762l17 -74q-2 68 -17 74z
M745 713l-8 -82l16 -25zM737 590v-115l16 33zM827 475l8 -49v41zM229 467l16 -164l33 -131q-27 215 -49 295zM57 401l16 -32q0 18 -16 32zM106 336q0 -33 16 -66zM671 319l-8 -24l16 8zM655 295l-8 -25l16 9zM679 295l-32 -107q26 48 32 107zM638 270l-16 -41q14 19 16 41z
M221 139q14 -55 73 -90zM557 139l-17 -49q17 19 17 49z" />
    <glyph glyph-name="one" unicode="1" horiz-adv-x="956" 
d="M559 1368l36 -51l9 -1118l22 -74l170 -80l-67 -37l-52 15l-22 -9l-139 15l-74 -21l51 -8h-170l-22 14l-15 -14l-82 23l15 51l147 30l31 66l45 836l-23 73l-14 -501l-8 598l-60 30l-59 -16l-59 37l67 37l156 39zM522 1176l8 -74l14 67v74zM552 711v-133l7 -113zM544 303
l23 -37l-8 133zM507 317l9 -36v30zM544 238l31 -76q-8 35 -31 76zM507 207l15 -51q-2 24 -15 51zM448 178l14 -45q-2 23 -14 45zM507 141l23 -45q-6 23 -23 45zM442 133q2 -14 14 -22zM456 104l-22 -22h45zM374 37l15 -23l45 15z" />
    <glyph glyph-name="two" unicode="2" horiz-adv-x="956" 
d="M387 1360l270 -17l99 -49l57 -90l41 -114l16 -132l-8 -139l-139 -311l49 139l-385 -401l-33 -74l140 8l131 -16l131 16l131 164l16 -139l-41 -107q-12 -47 -65 -73l-90 -57l-140 -8l-41 40l-65 -8l-189 24l-123 -8l99 49l-107 -24h-90l25 24l-33 17l164 147l262 336
l164 287l33 123l-9 139l-41 106l-73 74l-74 17l-90 -17l-107 -41l-41 -90l-8 -139l82 -180l-98 -33l-74 49l-49 98l-8 90l49 140l65 82l91 57zM494 1335l32 -16l17 16h-49zM387 1319l-57 -33l90 33h-33zM575 1294l50 -24q-21 16 -50 24zM690 1286l82 -98q-27 57 -82 98z
M199 1122l-17 -49l25 -8zM797 1098l16 -74q-2 39 -16 74zM764 983l-17 -106l17 -17l16 58zM649 860l-33 -57q21 22 33 57zM666 803l-25 -82q16 39 25 82zM780 795l-24 -58q20 23 24 58zM715 762l-8 -25l16 8zM739 737l-24 -57l49 41zM772 713l-25 -25q17 6 25 25zM575 680
l-57 -82l-33 -74l66 66q18 39 24 90zM518 524l-33 -49q23 19 33 49zM584 524l-17 -32q15 14 17 32zM543 475l-25 -41q19 15 25 41zM174 74q2 -13 16 -17zM592 0l-41 -32l156 24l40 33z" />
    <glyph glyph-name="three" unicode="3" horiz-adv-x="956" 
d="M410 1372h139l106 -33l148 -122l49 -91l8 -90l-57 -114l-17 -99l-90 -114l41 -25l66 -74l57 -213v-106l-49 -115l-57 -82l-74 -65l-98 -41l-107 8l-123 -16l-123 16l-131 139l-33 98l25 115l98 33l33 -180l156 -115l114 -16l99 32l82 197l8 82l-17 156l-73 65l-82 49
l-107 -33l-123 -8l-24 66v-33l57 -16l-24 24l-9 74l25 16l82 17l25 -17l57 -8l115 82l90 254l-148 188l-65 33l-172 -98l-25 -57l74 -115l-49 -57l-140 98l-16 65l33 91l65 65zM598 1307l90 -33q-41 20 -90 33zM287 1298l-9 -24l25 16zM696 1249l25 -16q-6 12 -25 16z
M770 1233l33 -123l8 -131l24 49l-8 98q-22 52 -57 107zM663 1192q3 -21 17 -41zM737 1184l25 -49q-6 24 -25 49zM197 1135l-9 -25l25 -16q-2 20 -16 41zM180 1102l17 -58q0 27 -17 58zM745 1004l17 -41q-2 22 -17 41zM590 758h16l-8 16zM729 676l16 -17q-2 9 -16 17z
M639 610l16 -16q-2 8 -16 16zM672 586l16 -41q-2 22 -16 41zM639 152l49 65l8 74zM156 184l8 -16l16 49zM737 217l8 -24l9 24h-17zM254 152l82 -66q-37 33 -82 66zM205 127l-25 -41l82 -8zM197 45l73 -57h131l-106 24zM565 37q2 -12 17 -17z" />
    <glyph glyph-name="four" unicode="4" horiz-adv-x="956" 
d="M626 1311l49 -25l9 -860l16 -25l98 41l99 82l16 -73l-33 -74l-74 -49l-114 -9l-17 -229l131 -49q-59 -37 -139 -41h-352q31 47 90 66q29 40 90 65v148l-57 40l-66 -24h-139l-123 41l-90 -25l33 148l270 475l90 74l66 122l114 123zM634 1278l9 -238l16 131q-4 56 -25 107z
M511 1171l-40 -122q30 51 40 122zM503 991l-16 -90l24 66zM356 958l-66 -98l-24 -98l57 98q21 43 33 98zM651 950l-25 -98l25 -360l8 344zM471 926l-312 -492l41 -16l90 33l197 8v377zM544 893l8 -41v33zM225 745l-17 -73q15 35 17 73zM192 672l-8 -41l16 24zM143 606
l-66 -155l49 73q15 39 17 82zM421 410l58 -9l16 9h-74zM561 295l-9 -115l17 82zM593 213q2 -41 25 -82zM634 156l17 -50q-4 25 -17 50zM585 115l-8 -41h49z" />
    <glyph glyph-name="five" unicode="5" horiz-adv-x="956" 
d="M368 1356l98 -33l82 -8l147 16l74 -16l107 33l-41 -66l-17 -57l25 24l-8 -41l-148 -65l-24 16l-123 -8l-25 -25l-57 -8l-49 17l-58 -320l66 16h98l107 -24l172 -74l49 -82l24 -155l-16 -25l-33 -229l-114 -131l-164 -91l-164 -40h41l-287 65l-65 66l-25 98l8 123l74 41
l57 -58l58 -196l65 -58l98 -16l91 41l73 57l41 82l58 189l-58 319l-90 17l-115 -17l-82 -41l-32 -90l-58 57l82 648zM802 1257l-58 -65q37 22 58 65zM376 1241l41 -8l16 8h-57zM359 1225v-58l25 33zM359 1143l-24 -238l8 -24l33 229q0 18 -17 33zM310 963l8 -41v32zM302 922
l-16 -107l8 -24l16 106zM744 684l50 -82q-19 41 -50 82zM646 668l17 -82q0 37 -17 82zM843 545l8 -49v41zM753 528l16 -41q-2 23 -16 41zM736 479l-8 -41l16 8zM122 365l-8 -25l24 -8q-4 18 -16 33zM48 315v-16l17 8zM97 299l8 -41v33zM785 299l-49 -74l66 17zM56 283
l-8 -50l25 33zM630 176l-8 -24l16 8zM56 168q19 -59 74 -98q-31 49 -74 98zM687 168v-16l17 8z" />
    <glyph glyph-name="six" unicode="6" horiz-adv-x="956" 
d="M532 1368l213 -33l90 -41l41 -73l-49 -74l-74 -17l-24 17l-49 74l-66 49l-147 -49l16 41l-57 -25l-50 -74l-32 -90l-41 -16l-25 -99l-8 -155l98 82l41 16l-24 -41l196 49l-33 -32l25 -17l98 -16l74 -41l57 -74l74 -164l17 -106v-123l-25 -90l-41 -74l-57 -66l-148 -81
l-98 -25h-123l-180 74l-99 147l-65 230v245l25 222l65 180l-8 -58l-33 -82l-33 -213l9 -57l16 156l65 180l140 229l73 50l82 24zM704 1368q78 -12 148 -65q-60 40 -148 65zM606 1294l33 17h-50zM811 1196v-16l16 8zM295 803l-25 -25q18 4 25 25zM467 803l-115 -41l-90 -221
l-25 -123l66 -238l73 -90l123 -24l99 49l73 82l33 122l8 254l-57 115l-74 82q-47 31 -114 33zM131 729l-9 -197l25 132zM721 721q16 -27 40 -49zM721 655l32 -82q-6 41 -32 82zM778 647l16 -49q-2 25 -16 49zM835 606l8 -123l25 -8q-8 62 -33 131zM131 492q2 -43 24 -91z
M835 434l8 -49v41zM778 360l16 33l-8 33zM884 401q-12 -53 -16 -114zM254 156q2 -23 16 -41zM352 33q18 -13 41 -17z" />
    <glyph glyph-name="seven" unicode="7" horiz-adv-x="956" 
d="M143 1356l82 -58l41 -8l180 49l-24 -24l-82 -25l24 -24l402 8l90 16l24 -33l-33 -16l-8 -98l-41 -164l-434 -918l-41 -65l-114 -16l-33 49l24 82l82 131l25 73l352 689l41 147l-369 -41l-82 -25l-57 -41l-74 -106l-24 -8l-17 -82l25 393q18 70 41 115zM192 1290l17 -16
q-3 8 -17 16zM184 1192l-8 -33l16 -8v33zM323 1159v-16l17 8zM782 1061l-25 -98q19 45 25 98zM733 1028l-33 -123q21 56 33 123zM577 758l-98 -279l57 139q33 62 41 140z" />
    <glyph glyph-name="eight" unicode="8" horiz-adv-x="956" 
d="M292 1393l16 -82l107 57l90 16l287 -139l73 -98l25 -139l-16 -140q-27 -53 -82 -98l-90 -57l122 -58l66 -106l41 -131l-8 -131l-74 -140l-90 -90l-115 -57l-41 25l-65 -25h-181l-122 49l-99 82l-65 107q-29 57 -33 139l41 131l106 139l-114 164l-33 139l33 148l57 114z
M284 1368l-33 -41q25 12 33 41zM357 1270l-49 -74l-73 -156l32 -98l58 -74l237 -98l99 74l49 74l24 98l-24 106l-41 82l-74 49l-115 17h-123zM751 1253l49 -65q-19 35 -49 65zM210 1221v-17l16 8zM144 1065l-8 -66l25 -49q-2 54 -17 115zM226 999q9 -65 66 -114zM824 975
q2 -23 17 -41zM136 950l33 -73q-8 38 -33 73zM857 926l-8 -25l16 -16l9 33zM95 893q21 -66 82 -115q-28 53 -82 115zM849 885l-41 -82q27 35 41 82zM734 877l-16 -58q14 27 16 58zM218 844q2 -17 17 -25zM374 811q2 -16 16 -25zM415 811l24 -25q-6 17 -24 25zM226 795
l41 -66q-16 33 -41 66zM144 762l25 -66l66 -24l-33 49zM562 713l33 -33q-6 20 -33 33zM661 696l49 -32q-19 22 -49 32zM742 672l66 -74q-27 39 -66 74zM374 655l-82 -65l-49 -90l-17 -123l9 -131l65 -74l189 -98h114l115 155l24 115l-16 107l-57 81l-172 107zM800 541l16 -9
l-8 25zM702 549l49 -74q-19 39 -49 74zM194 385l8 -41v33zM54 360q0 -26 17 -57zM726 172l-8 -25l16 9zM284 131q26 -27 65 -41zM775 98l-16 -24q16 8 16 24zM628 33l16 -17q-2 9 -16 17z" />
    <glyph glyph-name="nine" unicode="9" horiz-adv-x="956" 
d="M432 1368h132l163 -90l58 -66l73 -172l25 -131v-377l-25 -98l-73 -180l57 164l25 221l-50 -205l-73 -172l-99 -139l-65 -66l-172 -49l-115 -8l-180 66l-57 73v107l90 41l65 -66l49 -82l66 -49l106 25l50 24l-25 -33l25 -8l65 58l66 139v-41l41 82l24 221l-82 -41l-49 -41
l8 25l-163 -49h-66l66 49l-41 -8l-148 57l-57 65l-41 82l-58 197v123l25 106l49 74l66 66l82 32l73 58zM555 1352l17 -17q-2 8 -17 17zM449 1294l-107 -49l-73 -82l-33 -123l8 -147l-25 -82l66 -139l82 -74l106 -41l123 41l107 336l-25 131l-41 115l-65 90zM80 1081l-24 -16
l8 -115zM801 893l16 -8l-16 65v-57zM121 901l17 -57v49zM211 901l8 -41v33zM785 893l8 -82l8 57zM80 885l25 -115v107zM817 811l-16 -98l8 -90l17 98zM187 795l32 -82q-10 37 -32 82zM146 770l24 -65q-6 34 -24 65zM727 770l9 -49v41zM187 696l24 -41q-6 21 -24 41zM285 623
l16 -9l-8 25zM777 606l8 -41v33zM711 532l8 -40v32zM678 492l8 -41v32zM334 66l-24 -17q22 2 24 17zM105 49l90 -49q-47 18 -90 49z" />
    <glyph glyph-name="colon" unicode=":" horiz-adv-x="485" 
d="M162 860l114 -8l66 -57l24 -99l-57 -65l-82 -17l-65 58l-9 57l17 41l-25 66zM153 836l25 -33l25 49h-33zM244 762l16 -33q0 19 -16 33zM170 729l41 -57q-15 26 -41 57zM285 729l-9 -24l25 16zM194 664q33 -27 82 -33zM194 254l107 -25l49 -73l16 -115l-73 -41h-107
l-57 66l24 106q11 43 41 82zM186 221l123 -41q-53 29 -123 41zM252 164l65 -66q-18 39 -65 66zM235 156l-16 -50l25 -16zM170 123v-17l16 9zM211 106q10 -24 33 -40zM268 98l17 -32q-3 18 -17 32zM162 90q8 -29 32 -49zM342 90l-17 -65q15 28 17 65zM260 33l33 8l-17 8z" />
    <glyph glyph-name="semicolon" unicode=";" horiz-adv-x="485" 
d="M141 852h107l98 -66l16 -73l-16 -33l-66 -66h-65l8 -32h-16l-58 73l-41 99q21 43 33 98zM157 844l17 -25l41 17zM239 827l25 -32q-4 20 -25 32zM280 819l58 -98q-17 51 -58 98zM182 778l25 -33q-2 23 -25 33zM223 721l16 -25l25 25h-41zM157 713q5 -21 25 -33zM264 655
l-49 -24h49l41 24h-41zM141 213l115 -16l114 -172l-16 -180l-90 -123l-74 -49l-16 24l57 148l8 106l-65 57l24 -48l-106 130l16 66zM182 139q2 -18 16 -33zM198 98l17 -24l8 24h-25zM313 74l16 -41q-2 22 -16 41zM338 25l16 -74q-2 39 -16 74zM289 0l8 -24l8 24h-16z
M305 -24l-8 -25l16 -57zM272 -98v-82l17 58zM338 -106l-17 -57q15 26 17 57zM272 -221l-16 -32q16 14 16 32zM198 -253l-8 -50l33 33z" />
    <glyph glyph-name="semicolon" unicode="&#x37e;" horiz-adv-x="485" 
d="M141 852h107l98 -66l16 -73l-16 -33l-66 -66h-65l8 -32h-16l-58 73l-41 99q21 43 33 98zM157 844l17 -25l41 17zM239 827l25 -32q-4 20 -25 32zM280 819l58 -98q-17 51 -58 98zM182 778l25 -33q-2 23 -25 33zM223 721l16 -25l25 25h-41zM157 713q5 -21 25 -33zM264 655
l-49 -24h49l41 24h-41zM141 213l115 -16l114 -172l-16 -180l-90 -123l-74 -49l-16 24l57 148l8 106l-65 57l24 -48l-106 130l16 66zM182 139q2 -18 16 -33zM198 98l17 -24l8 24h-25zM313 74l16 -41q-2 22 -16 41zM338 25l16 -74q-2 39 -16 74zM289 0l8 -24l8 24h-16z
M305 -24l-8 -25l16 -57zM272 -98v-82l17 58zM338 -106l-17 -57q15 26 17 57zM272 -221l-16 -32q16 14 16 32zM198 -253l-8 -50l33 33z" />
    <glyph glyph-name="less" unicode="&#x3c;" horiz-adv-x="1024" 
d="M889 1245l41 -65l-58 16zM872 1171l-82 -90l-458 -385l221 -73l221 -156q74 -12 139 -66l9 -16q-52 47 -123 74l123 -180l24 -58h-41l25 -57l-172 49l32 -25l-8 -8l-123 74l-196 188l-230 140q-71 0 -90 41q-51 2 -57 57l82 106l98 91l115 73l262 123l115 74l49 -17z
M774 1147l-16 -33q14 14 16 33zM848 1147l-41 -41q22 14 41 41zM692 1081l-115 -82l140 74zM659 1024v-16l17 8zM520 1008l-41 -33q27 10 41 33zM602 991l-82 -57l-33 -57l82 49q25 26 33 65zM422 893l-99 -66l-57 -65l98 65q33 27 58 66zM250 836l-90 -91l24 -16
q62 78 66 107zM397 786l25 9l-17 8zM381 786l-49 -32q32 8 49 32zM160 713l-33 -33l65 33h-32zM274 713l17 -17l8 9zM217 696l-25 -57q17 25 25 57zM151 680l-32 -25q22 4 32 25zM274 672q17 -21 41 -25zM364 664q9 -19 33 -33zM463 639q22 -16 57 -25zM389 623
q8 -13 25 -17zM250 598q-2 10 -17 16zM323 614l17 -16q-2 8 -17 16zM356 614l17 -16q-2 8 -17 16zM397 598l58 -41q-25 27 -58 41zM438 598q31 -57 90 -82q-22 57 -90 82zM536 590l107 -58q-47 33 -107 58zM381 549l16 -17q-2 9 -16 17zM536 524l74 -57q-33 33 -74 57z
M651 500l17 -17q-2 9 -17 17zM676 483l49 -49q-19 25 -49 49zM643 401l66 -49q-27 29 -66 49zM586 377l16 -17q-2 9 -16 17zM610 360l17 -16q-2 8 -17 16zM758 344q10 -18 32 -33zM848 344l57 -57q-22 32 -57 57zM643 336l16 -17q-2 9 -16 17zM774 287l16 8l-8 8zM668 295
q38 -51 106 -66q-47 37 -106 66zM799 295l16 -16q-2 8 -16 16zM856 270l41 -32q-14 20 -41 32z" />
    <glyph glyph-name="equal" unicode="=" horiz-adv-x="1024" 
d="M609 897l310 -8l106 -49l-96 -58h-281l-135 -24l-67 24l-146 -8l-115 17l-96 -17l-49 25l39 41l164 41l348 -17zM321 848l67 -8l19 8h-86zM542 848l-68 -49q43 18 68 49zM822 823q33 -22 78 -32zM157 815l18 -16q-2 10 -18 16zM794 643l145 -25l86 -73q-51 -39 -125 -41
l-106 8l-136 -25l19 17l-182 24l-117 -41l-154 -16l-166 33l31 24l-31 50l99 32l491 17zM534 610l86 -16l348 -8l-68 41zM271 586l68 -8l20 8h-88zM185 578l58 -9l18 9h-76zM976 569l-37 -49h37l31 33zM919 545l-29 -25q22 4 29 25zM726 528l29 -16q-8 12 -29 16z" />
    <glyph glyph-name="greater" unicode="&#x3e;" horiz-adv-x="1024" 
d="M94 1266l221 -140l-24 50l106 -91l238 -139l270 -221l-24 -16l-50 -82l-548 -377l-66 -66l-16 41l-91 -32l50 65l57 49l-49 -24l65 57l336 229q43 33 49 90l-245 140l-263 303l-24 65l98 -82l-41 66zM233 1143l17 -8l8 16l-16 8zM119 1126q8 -16 24 -24zM266 1118l17 -16
q-3 8 -17 16zM332 1102q30 -31 73 -49zM446 1036l33 -32q-10 16 -33 32zM553 971l49 -58l74 -49l-49 66zM266 946l17 -33q-5 19 -17 33zM414 946q8 -24 32 -41zM348 938q6 -16 25 -25zM299 930l115 -107l131 -57q-172 127 -246 164zM381 913l65 -65l99 -66l-66 90zM700 881
l49 -66l91 -41l-66 57zM520 856l33 -65q-12 32 -33 65zM643 848l16 -17q-2 9 -16 17zM668 831l16 -16q-2 8 -16 16zM635 807l41 -49l73 -25l-49 33zM602 782q35 -57 107 -82zM586 774q8 -26 32 -41zM643 774l16 -16q-2 8 -16 16zM668 758q18 -25 49 -41zM504 750l155 -91
l-65 66zM766 733l-25 -24l33 -17l8 17zM790 717l-8 -25h17l8 17zM659 700q13 -14 33 -16zM840 684h16l-8 16zM856 668l16 8l-8 8zM774 668l-65 -82q40 32 65 82zM799 668l-17 -33l33 16q-2 11 -16 17zM733 659l-115 -65l-41 -66l99 58zM766 602l-41 -41q27 14 41 41z
M668 528l24 9l-16 8zM586 479l-230 -139l-24 -41l229 139q23 17 25 41zM340 381l24 8l-16 8zM315 365l25 8l-17 8z" />
    <glyph glyph-name="question" unicode="?" horiz-adv-x="843" 
d="M256 1376h148l237 -57l58 -82l49 -107v-114l-41 49l16 -41l-8 -25l16 9l-32 -205l-50 -98l-49 65l-123 8l-57 -49l-8 -139l-33 -98l-57 73v148q-2 47 -49 65l49 17l-25 49l49 24l107 -32l90 49l57 90l8 131l-49 98l-41 33l41 -16l-8 16l-131 74l-16 -8l16 -41l-82 -74
h-115l-16 16l-33 107q43 26 82 65zM223 1327l-16 -24l33 16zM600 1319l49 -49q-16 28 -49 49zM264 1294l-8 -24l25 16zM346 1294l-90 -57l115 25q-8 18 -25 32zM559 1253l41 -24q-14 18 -41 24zM641 1237q4 -16 17 -25zM682 1204l17 -33q-4 19 -17 33zM658 1171l32 -57
q-10 29 -32 57zM641 1122l8 -106l33 16q-14 45 -41 90zM674 1098l16 -8l-8 24zM731 1114l17 -49q-2 25 -17 49zM748 967q-2 -45 -17 -90zM699 942l-50 -90l-16 -90l8 -33l49 98l17 82zM543 868l-49 -49q31 17 49 49zM600 844l-32 -58l49 9zM518 819l-32 -24q26 2 32 24z
M404 786l49 -32q-17 22 -49 32zM371 770l33 -74q-4 39 -33 74zM346 639l17 -49q-4 24 -17 49zM363 565l8 -33l16 41zM363 532l-8 -24l16 -8zM396 279l90 -66v-115l-25 -8l-25 -90l-204 16l-17 115l17 33q127 78 164 115zM404 262l-25 -41l41 -16l41 -90l8 98zM338 205
q8 -12 25 -17zM281 156l8 -25l16 8v25zM330 164l25 -25q-7 17 -25 25zM240 139l8 -106h82q-35 51 -90 106zM363 139q2 -18 16 -33zM322 131q10 -31 41 -49z" />
    <glyph glyph-name="at" unicode="@" horiz-adv-x="1589" 
d="M954 1450h81l-32 -41h57l172 -49l139 -115l58 -65l-99 73l17 -41l73 -65l107 -164v-147l-41 -246l-90 -197l-74 -74l-106 -40h-90l-99 81l-24 -65l-8 188l-91 -123l-122 -65l-148 24l-16 -24l-9 33l-49 49l-32 221l24 115l41 106l107 180l188 107l41 -33l82 -16l33 -41
l24 24l131 25v-49l-90 -451l-49 -73l33 -33l-41 8v-25l172 -73l98 98l41 98l66 82l49 230l-25 122l-73 66l-50 90l-163 123l-107 41l-115 24l-98 -24l-410 -320l-57 -81l-74 -213l-41 -74l9 -131l90 -189l65 -82l164 -123h402l270 132l49 -25l-16 -33l-164 -123l-107 -41
l-123 -16h-147l-328 106l-82 58l-16 82l-74 73l-74 148l-8 -148l-24 271l-17 -17v-114l-16 90v131l16 123l33 115l90 196l123 164l82 65l98 50l115 24l-139 -41l-90 -57l-131 -148l-33 -90l155 131l50 58l-25 -41l172 114l221 66zM831 1352l-156 -49l-123 -66l-98 -98
l-17 -115l328 262q41 25 66 66zM1150 1319l74 -41q-33 25 -74 41zM1232 1294l49 -32q-18 18 -49 32zM413 1122l-90 -98l-41 -115q106 156 131 213zM331 1106l-82 -98l-33 -115q94 158 115 213zM1085 1049l-17 -41l41 24q-6 12 -24 17zM396 1032l-16 -49l33 41zM880 1032
l-98 -57l-25 -49l41 41l-8 -58l-115 -196l-33 -238l90 -98l66 8l24 -16l74 82l58 98l41 106l16 140l33 123l-58 73q-47 23 -106 41zM1101 1016l-8 -25l24 -8zM732 926l-49 -82l-16 -82q59 123 65 164zM274 786v-81l32 81l9 74zM1486 844l16 -82q-2 39 -16 82zM1060 754
l-16 -99q12 43 16 99zM1109 631l8 -25l17 99zM175 655l17 -41q-2 21 -17 41zM1093 614l-17 -90l33 66zM200 516l16 -57q-2 28 -16 57zM1380 459l-99 -131l66 57q22 31 33 74zM634 434q8 -24 33 -41zM1052 426q14 -41 49 -74zM1117 393l82 -57q-35 29 -82 57zM1289 213
q-34 -25 -57 -66zM331 205l49 -58l74 -32l-58 57zM1207 197l-98 -74q60 22 98 74zM1142 123l-90 -66q51 23 90 66zM1011 90l-66 -33h41l66 33h-41zM634 82q55 -33 131 -33l156 25z" />
    <glyph glyph-name="A" unicode="A" horiz-adv-x="1480" 
d="M739 1438q58 -2 107 -49l8 -140l66 -82l147 -409l41 -58l74 -221l139 -262l-82 82l8 -41l58 -90l82 -66l98 -49l33 -49h-320l-155 -24l-115 32l24 58l115 24l33 90l-57 99l-41 106l-74 66h-238l-98 -49h-131l123 24l-33 33l-82 16l-90 -401l98 -17l41 -49l-155 -16
l-25 -57l8 65l-114 16l-181 -16l-41 25l-16 41l57 41l115 24l16 17l33 -25v41l344 827l33 131l25 -8l49 99l24 122q17 52 49 99zM756 1430l41 -58l24 41q-26 12 -65 17zM723 1397l-16 -82l49 65zM805 1372l-16 -57l41 -25q-5 41 -25 82zM789 1307v-82h32q-4 45 -32 82z
M830 1225l-9 -33l17 -16l8 32zM871 1200l106 -303l-33 164q-49 106 -73 139zM723 1176h16l-8 16zM690 1184l-32 -115l16 16l-74 -213l-57 -114l-66 -230l320 17l98 24l-8 107l-49 131l-131 237l73 -65l-32 106zM813 1184l17 -49v41zM756 1176l24 -50q-6 27 -24 50zM797 1176
l16 -58q-4 29 -16 58zM838 1135l82 -287l-33 156q-12 65 -49 131zM797 1110l49 -90q-4 51 -49 90zM469 889q-12 -33 -33 -66zM576 881l-17 -66q15 29 17 66zM428 815l-49 -139q14 63 49 139zM969 807l16 -82q-2 41 -16 82zM420 700l-49 -106l-25 -107l49 107zM1108 651
l-16 -24q12 8 16 24zM920 643l-8 -25l16 -8zM961 561q14 -24 41 -41zM1067 545l-8 -33l16 -8zM1092 528l32 -114q-6 55 -32 114zM477 504l58 -8l16 8h-74zM436 487l-90 -180l-24 -98v-90l32 -8l33 73l66 287q-2 10 -17 16zM1092 471q0 -37 16 -74zM1141 414q4 -17 16 -25z
M1075 406l33 -82q-12 38 -33 82zM1141 373q20 -68 74 -123q-25 61 -74 123zM1198 373q2 -25 17 -49zM313 307q-16 -39 -16 -90zM1141 283l33 -99q-11 49 -33 99zM1124 193l25 -58q-4 29 -25 58zM1198 184l8 -32l9 41zM1256 160l-9 -25l25 -16zM1149 102l49 -24
q-20 18 -49 24zM1092 94l-33 -41q20 17 33 41zM1346 78l41 -25q-17 17 -41 25zM338 53q14 2 16 17zM1067 37l-57 -25l16 -16l98 24z" />
    <glyph glyph-name="B" unicode="B" horiz-adv-x="1220" 
d="M44 1454l84 -22l721 6l92 -23l70 -39l84 -100l-23 16l-14 -16l53 -109l17 -92l-25 -86l-108 -115l-140 -77l25 -39l162 -39l108 -109l31 -75l-16 -265l16 -14l-70 -147l-139 -78l-278 -31l-86 23l-146 -23l-94 16l-61 -16l-17 16l-92 -16l-23 16l-55 -16h-69l-15 31
l45 47l133 84l45 63v324l-14 -47l23 164v401l-39 186l-54 54l-147 61zM569 1423l39 -16l16 16h-55zM632 1415l70 -39q-31 27 -70 39zM724 1407l39 -39q-14 23 -39 39zM911 1384l14 -16q-2 8 -14 16zM972 1368q2 -18 17 -37zM151 1362l16 -16q-2 8 -16 16zM941 1362l15 -16
q-2 8 -15 16zM677 1354l-162 -17l-8 -370l17 -101q4 -37 45 -47l94 25l147 76l23 186l-8 70l16 69l-70 92q-41 13 -94 17zM360 1331h16l-8 15zM872 1331l14 -8l-6 23zM780 1337l53 -61q-14 37 -53 61zM329 1315h16l-8 16zM1011 1323q2 -16 14 -25zM268 1298l8 -75l22 -70v84
q-8 31 -30 61zM376 1284l8 8l-24 6zM894 1298l39 -30q-12 20 -39 30zM214 1292q15 -18 39 -30zM1011 1276l23 -31q-7 19 -23 31zM415 1262l-31 -109l-16 -201l31 101l-6 61l14 23v-78l16 94zM323 1253v-47l14 39zM384 1245l-24 -117q18 56 24 117zM894 1245l31 -61
q-8 30 -31 61zM950 1237q8 -23 30 -39zM1025 1237l25 -39q-4 25 -25 39zM849 1214l-16 -69l22 -23l25 62q-12 14 -31 30zM956 1184l16 -17q-2 11 -16 17zM1003 1167q6 -10 22 -14zM1103 1167l-31 -215l39 92zM323 1159l6 -45v39zM1050 1159l22 -45q0 25 -22 45zM880 1153
l-31 -55l31 -45l22 30q-6 35 -22 70zM1019 1137l15 -23q-2 14 -15 23zM956 1122l-15 -69l23 -25l8 70zM995 1114v-78l24 17q0 30 -24 61zM1050 1092l-25 -109l17 6l22 78zM841 1075l-8 -131l31 8l16 92zM468 1044l17 -30q0 16 -17 30zM941 1014v-47l23 16zM354 958l-17 -122
l23 84q0 41 -6 38zM298 928l9 -45v37zM462 897l15 -78l47 -22l-9 69l-16 -22l-31 69zM794 905l-78 -39l-31 -30l86 22q19 21 23 47zM833 897l-31 -31q21 6 31 31zM345 743l9 -24l14 131zM407 805l8 -39v31zM741 788l6 9l-23 8zM507 719l-30 -148v-92l38 -209q13 -61 62 -108
l-84 47l-8 -23q39 -47 108 -63l92 -6l140 22l77 92l23 148l-31 123l-61 94q-23 55 -86 84l-131 31zM833 635l53 -78q-20 41 -53 78zM1128 618l30 -77q-12 39 -30 77zM1050 604q6 -16 22 -24zM360 580l8 -45v36zM415 410l23 69v78zM1011 471l14 -31l9 25zM1042 457l16 -17
q-4 9 -16 17zM438 440l-15 -61q11 27 15 61zM1089 387l-17 -31h23zM415 371l14 -76q0 35 -14 76zM485 356v-116l14 -15l8 31l-14 76zM1042 348l-31 -39l14 -14q15 22 17 53zM956 340l8 -39v31zM1003 295l-8 -33l24 17q-4 8 -16 16zM415 279q0 -37 14 -70zM1081 270l-17 -45
q13 19 17 45zM1025 225l-22 -32q16 12 22 32zM415 201l14 -31q0 16 -14 31zM329 139l25 -30q-7 16 -25 30zM221 131l16 -14q-2 10 -16 14zM307 131l-17 -78q17 37 17 78zM184 117l14 -17q-2 11 -14 17zM253 100h15l-9 17zM407 23l47 -7l14 7h-61z" />
    <glyph glyph-name="C" unicode="C" horiz-adv-x="1429" 
d="M608 1409l410 -16l139 -50l74 -81l41 147l41 -74l24 -131l-8 -303l-16 -49l-49 41l-115 197l-164 155l-98 49h-131l-180 -123l-66 -90l-49 -106l-57 -254v-295l32 -123q11 -57 58 -98l122 -107l25 17l246 -25l24 16l172 33l58 58l123 188l82 49l32 -90q-4 -59 -41 -123
l-65 -90l-90 -65l-213 -98l-115 -8l-303 24l-197 98l-65 98l-58 41l-49 107l-73 245l24 99l-33 -33l25 238l41 139l188 278l82 66l41 -25l25 25q49 26 106 49zM625 1401l-49 -41l40 24l66 17h-57zM862 1384l115 -24q-55 16 -115 24zM985 1376l98 -41l33 -57l-24 74z
M526 1368l-41 -41q29 14 41 41zM633 1368l33 -8l8 8h-41zM764 1343l-25 -24q23 6 25 24zM797 1343v-16l16 8zM1280 1343l16 -49q-4 25 -16 49zM707 1335l-74 -24h33q28 6 41 24zM436 1327l-41 -57q29 24 41 57zM535 1294v-16l16 8zM608 1294l-49 -49q29 17 49 49zM567 1286
l-57 -74q35 31 57 74zM674 1286l-17 -33l58 33h-41zM961 1286l221 -196l-131 180zM354 1278l-82 -131l66 74q16 24 16 57zM461 1262l-41 -107q24 49 41 107zM616 1262l-32 -41q24 14 32 41zM551 1237l-25 -49q23 16 25 49zM395 1229l-24 -74q18 33 24 74zM551 1188l-8 -25
l16 8zM1149 1188l41 -66q-12 35 -41 66zM518 1180q-51 -35 -57 -107zM502 1122l-82 -139l-82 -336l41 -172l41 426q74 184 82 221zM215 1081l-8 -65l16 49zM412 1081l-49 -245l57 213zM240 770l8 -25l16 140zM166 836l8 -50v41zM174 737v-98l17 74zM158 655v-65l16 16z
M166 565l16 -49q-2 25 -16 49zM354 492l33 -140l49 -106l-32 131zM1346 418l8 -33l8 25zM313 385l33 -82q-8 39 -33 82zM1346 369l-9 -33l17 8zM1231 311l-16 -49q16 19 16 49zM289 270l16 -49q-4 25 -16 49zM1305 254l-9 -41l25 25q-2 10 -16 16zM338 172l66 -66
q-23 35 -66 66zM1182 172l-17 -25q17 9 17 25zM502 164l16 -17q-2 9 -16 17zM1247 139l-41 -49q29 19 41 49zM354 106q9 -18 33 -32zM936 82l-33 -16q27 0 33 16zM485 74l66 -41q-29 26 -66 41zM469 49l16 -16q-2 8 -16 16zM649 49l-41 -16l90 -8zM936 -8l-49 -24h57l41 24
h-49z" />
    <glyph glyph-name="D" unicode="D" horiz-adv-x="1497" 
d="M624 1384h204l205 -49l213 -155l164 -205l33 -90v-238l-17 -106v139l-24 98l-17 -16l9 -238l-107 -254l-98 -131l-131 -98l-262 -81l24 40l74 41l-115 -8l-180 -49h-123l-106 16l-82 33l-49 -25l-41 8l32 -32l-73 -24l-99 32l-32 74l98 16l74 49l49 82l24 90v352
l-131 516l-8 115l-90 25l16 57l99 -16l90 24l336 -16q22 4 41 24zM66 1360l17 -25l33 17zM664 1360l25 -17l74 9zM337 1343q31 -20 65 -24zM181 1327q8 -12 25 -16zM984 1327l197 -123l-82 74q-52 31 -115 49zM214 1303l16 -9l-8 25zM869 1319l74 -41q-33 27 -74 41z
M640 1286l377 -147l-66 57l-90 49l-98 33zM435 1270v-271l33 156l57 -999l99 -41h204l189 106l65 74l82 197l-8 376l-25 107l-49 82l-73 65l-377 148h-197zM992 1278l17 -16q-2 8 -17 16zM140 1270l25 -148l106 -352l-8 254l-49 164q-27 45 -74 82zM222 1270l17 -25
q-3 17 -17 25zM1025 1262l16 -17q-2 8 -16 17zM361 1237l33 -74q-10 37 -33 74zM1090 1221l41 -58q-12 31 -41 58zM255 1188l8 -49v41zM1058 1180l24 -25q-6 19 -24 25zM288 1171l8 -122l8 98zM378 1163l-8 -41l16 -16zM1115 1163l25 -65q-7 32 -25 65zM1189 1155l41 -65
l73 -41l-49 57zM394 1147l25 -90q-6 45 -25 90zM1033 1147l66 -57q-25 32 -66 57zM329 1139l-9 -74l25 -123v107q-2 45 -16 90zM1213 1098l66 -115q-10 64 -66 115zM1131 1090l-8 -25l17 -8zM1189 1049l8 -66l16 41zM1148 1040q6 -28 24 -57zM1295 1040l17 -57q-2 29 -17 57
zM312 1032l8 -377l17 148l-8 115zM394 1032l8 -41l9 33zM1344 991l17 -98l41 -98v98zM1148 967l16 -33l-8 49zM1271 967v-82l16 65zM1230 942l8 -41v33zM1181 934l8 -41v33zM1295 934l-24 -393l57 319q-12 37 -33 74zM394 901l8 -123v90zM353 868l8 -41v33zM353 688l8 -123
v90zM1295 442v-73l25 82v90zM394 442v-163l33 -74l-16 155zM452 442l8 -41v33zM1148 410l-33 -131q23 57 33 131zM468 352l8 -41v33zM1238 295l-8 -49l16 33zM492 279q0 -54 17 -115zM1213 279q2 -23 17 -41zM1181 238l16 -17q-2 8 -16 17zM337 229l33 -90q-9 45 -33 90z
M378 197v-74l57 -33q-22 53 -57 107zM239 188l-50 -90q33 37 50 90zM1033 172l25 8l-17 8zM271 172l-8 -25h16zM951 156l25 8l-17 8zM1017 172l-25 -25q21 7 25 25zM239 139l-9 -33l25 9zM353 131q21 -29 58 -49zM320 123q9 -21 33 -33zM853 106l33 9l-17 8zM959 115
l-32 -25q28 4 32 25zM1066 115l-57 -33l90 33h-33zM443 106l17 -32q-4 18 -17 32zM664 106l82 -16l33 8zM214 82q0 -47 49 -57q-16 32 -49 57zM1000 66l-123 -50l-65 -48l41 8l188 90h-41zM58 16l131 -48l25 8l-66 40h-90z" />
    <glyph glyph-name="E" unicode="E" horiz-adv-x="1196" 
d="M364 1384l541 -8l-82 -16h180l106 -123l17 -90l-17 -57l-73 -74l-58 123l-73 106l-140 41l-172 -8q-65 -12 -82 -90l-24 -377l123 -8l139 41l24 114l74 -49l25 -147v-139l-25 -164l-106 82l16 65l-65 33l-156 16l-66 -57l9 -82l-25 -213l90 -123q43 -47 115 -65l164 16
l139 33l90 90l57 106l25 99l33 -25l16 -172l-8 -172q-14 -59 -74 -90l-74 -8l-81 16l-148 -24l-164 8l-139 -16l82 -98l-98 90l-304 8l-16 16l-131 24l205 115l49 139l-16 271l-25 -295l-8 180l16 156l-16 196l33 148l8 172l-33 114l16 17l-123 57l-106 25l16 32
q238 23 320 41zM44 1335l90 -41q-38 25 -90 41zM307 1327l40 -16l17 16h-57zM380 1311v-49l58 32zM470 1311l9 -25l24 25h-33zM520 1311v-41l98 24h172l-107 17h-163zM241 1294l82 -49q-27 35 -82 49zM413 1286l25 -33q-4 19 -25 33zM913 1286l49 -24q-21 18 -49 24z
M1036 1286l16 -41q-2 21 -16 41zM503 1278l-24 -25q16 9 24 25zM995 1278l49 -66q-19 37 -49 66zM913 1270l41 -74q-11 39 -41 74zM405 1253l-8 -41l24 9zM487 1245l-8 -90l16 -57l8 123q-2 16 -16 24zM290 1237l33 -33q-6 23 -33 33zM970 1237l33 -82l49 -74l-16 74z
M1011 1212l25 -24q-7 16 -25 24zM397 1139l16 -25q-2 16 -16 25zM429 1114l9 -41v33zM282 909l16 -82v66q-2 10 -16 16zM274 893l8 -123v90zM806 852v-66l17 50zM487 795l41 -58l82 33l-33 16zM274 573l16 -24l8 229zM708 778l-25 -24l50 16zM388 729l9 -41v33zM520 696
l16 -16l33 16h-49zM733 680l-25 -16l33 -9zM462 541l8 -49v40zM331 352l8 -49v41zM388 352l-16 -139l25 -25l-9 66l17 16q-2 41 -17 82zM421 287l17 -74q-4 35 -17 74zM1077 279l-17 -50q17 19 17 50zM339 246q4 -17 17 -25zM479 205q10 -39 41 -74zM290 156l17 -58l8 82z
M356 180l-9 -98l50 -8l-25 41l33 -17zM986 156l-98 -74q62 16 98 74zM421 147q4 -18 17 -32zM274 131l-8 -41l32 8q-4 19 -24 33zM479 123l16 -17q-2 9 -16 17zM659 98l41 -24l139 16l74 33zM569 90q8 -12 24 -16zM298 82l17 -16q-2 10 -17 16zM1027 82l-16 -25q16 9 16 25z
M257 74l17 -17q-2 11 -17 17zM520 57l81 -24l74 24l-74 -8zM864 57l-58 -24q35 6 58 24zM470 49v-41l58 8zM69 41l49 -8l16 8h-65zM151 41l41 -8l16 8h-57zM1093 33l-66 -25q41 4 66 25zM438 0q14 2 16 16zM733 0l65 -8l16 8h-81z" />
    <glyph glyph-name="F" unicode="F" horiz-adv-x="1056" 
d="M477 1405l147 -16l295 16l-66 -25h33l148 -57l24 -131v-139l-57 -99v33l-41 115l-57 98l-123 33l-262 -8l-25 -17l-33 -278v-156l8 49l66 -73l74 16l82 65l90 132l41 -66l32 -123v-295l-16 -57l-66 8l-49 107l-73 81l-131 25q-50 -16 -66 -74l-25 -286l33 -99l58 -98
l172 -49l-74 -33l-139 -16l-402 -8l33 16l-66 41l58 41l49 -8l74 90l24 123v155l-24 -24l16 114v131l-25 -65l25 213l-8 147l-107 295l25 -24l41 -107l16 41l-8 115l-172 16l8 74h426l-49 8zM804 1389l-90 -25q47 4 90 25zM821 1372l-33 -24l65 -9zM575 1356l82 -17l57 9z
M255 1331h17l-8 17zM911 1331l-17 -24l33 16zM198 1315l49 -33q-18 18 -49 33zM984 1290l17 -33q0 19 -17 33zM313 1282l24 -33q-4 19 -24 33zM370 1282l25 -49q-4 29 -25 49zM436 1282l8 -25l8 25h-16zM558 1282l-16 -41l279 8l114 -57l49 -98q-6 65 -49 114l-41 58h-213z
M214 1274l41 -33q-10 23 -41 33zM329 1241l16 -33q0 19 -16 33zM214 1233l33 -229l17 81q-23 99 -50 148zM305 1208l24 -49q-6 25 -24 49zM460 1208l-16 -262l24 230zM305 1159l8 -123l32 99zM403 1151l8 -41l8 33zM354 1126l16 -65q-2 33 -16 65zM345 1085v-147l17 74z
M288 1020l-16 -115l8 -98l25 106zM771 946l25 -57q-4 29 -25 57zM321 905l-8 -41l16 8zM755 897l16 -33q-4 19 -16 33zM362 864l-17 -90l9 -33l16 90zM722 864l-49 -65l41 -41l-8 41q14 30 16 65zM444 840l8 -49v40zM272 741l8 -24l16 90zM649 782l-25 -24q20 4 25 24z
M313 733l-17 -164l25 99zM452 717l8 -25l8 17zM698 709l8 -25l8 25h-16zM739 709l16 -41q-2 22 -16 41zM534 668l139 -41l74 -99q-6 68 -57 123q-70 17 -156 17zM452 651l-16 -41l8 -16l24 49zM313 578v-82l16 65q-2 10 -16 17zM796 487l-8 -49h41zM329 479l-16 -82l8 -32
l16 81zM337 381l-24 -33l16 -74l16 58zM370 381l-8 -57l24 -41q-2 51 -16 98zM288 299v-115l17 -16v65zM313 291l8 -98l8 73zM362 291l24 -131l-8 114zM427 209l50 -131l8 16l-41 131zM255 217l-24 -90q20 43 24 90zM329 168l25 -49q-6 26 -25 49zM206 78l-41 -25
q29 2 41 25zM321 29l82 -17l33 8zM419 4l-57 -16h90z" />
    <glyph glyph-name="G" unicode="G" horiz-adv-x="1536" 
d="M514 1430l17 -25l-33 -90l24 24l131 58l189 16l180 -33l-49 -16h74l123 -66l106 50l41 -91v-278l-25 -90l-90 98l-164 279l-155 49l-98 -8l163 -25l-82 -16l-163 41l-148 -41l-172 -443l8 -164l41 -196l115 -303l33 -49h196l66 24l180 25q64 28 107 98l-33 180l-66 74
h-155l-17 25l41 65l25 16l49 -16l164 16l16 33l148 -16l147 8l33 -16l33 -49l-41 -17l24 -8l-98 -49q-53 -58 -66 -139l-16 -189l16 -57l-65 -17l-90 -65l-140 -73l-81 -9l147 57l57 49l-319 -81l-66 8l-123 -49l41 33l-270 48l-57 50l-205 295l-66 253v132l140 344l172 237
l16 -16l-16 -58l32 41zM490 1356l-17 -49q15 20 17 49zM1211 1282q4 -16 16 -25zM1079 1225l25 -33q-8 18 -25 33zM481 1217l-24 -41q18 14 24 41zM1153 1126l-8 -32l16 -17zM1202 1126l17 -16q-2 8 -17 16zM465 1118l-49 -106l-25 -107l49 107q17 49 25 106zM1161 1118
l25 -82q-4 43 -25 82zM1202 1077l25 -57q-4 29 -25 57zM301 1061l-24 -115q18 55 24 115zM359 807l-9 -189l58 -139l-25 164zM121 791l-8 -50l16 33zM219 758l-8 -115l25 -49v82zM211 618l8 -122l33 -90l-8 106q-10 51 -33 106zM1211 569h16l-8 17zM899 578l-24 -41h49z
M154 545l-8 -41l16 -8v41zM1096 545l-25 -25q19 4 25 25zM1227 545q4 -17 16 -25zM1358 545l-16 -33l49 33h-33zM1407 545l17 -17q-3 9 -17 17zM1153 528v-49h41q-8 29 -41 49zM1071 504q17 -25 41 -41zM1333 496l-16 -41l41 32zM1276 463l16 -17q-2 9 -16 17zM359 455
l32 -82q-10 39 -32 82zM1104 455l16 -25q-2 16 -16 25zM1243 446l17 -16q-2 8 -17 16zM1243 414l-8 -66l16 -24l9 65q-2 17 -17 25zM1284 373l17 -140v115q-2 17 -17 25zM252 356l-8 -24l16 -8zM1260 315l-17 -73l33 49q-2 16 -16 24zM293 242l57 -82q-22 43 -57 82z
M1104 201l-33 -49q27 16 33 49zM359 168h16l-8 16zM1030 160l-41 -25q25 2 41 25zM1137 143l-49 -41q30 11 49 41zM1202 135l-16 -33l33 17q-2 8 -17 16zM1243 127l17 -16q-2 8 -17 16zM514 111q8 -17 25 -25zM645 102l74 -41l49 -8l66 33l-49 8zM408 94l123 -57
q-52 29 -123 57zM858 86l-73 -41h98l65 41h-90zM514 78l58 -33q-23 21 -58 33z" />
    <glyph glyph-name="H" unicode="H" horiz-adv-x="1552" 
d="M1148 1458l74 -41h221l-262 -16l-16 -17l82 -16l155 16l-16 -24l74 24l98 -16l24 -57l-57 -8l-24 16l-66 -41l-74 -139l-8 -836l-16 -16l49 -164l33 24l57 -49l123 -24l-17 -49l-98 -17l-90 17l-295 -17l33 25l-25 8l-57 -16h-90l-16 41l131 24l57 49l49 90l-25 263
l-40 155l-312 17l-303 -132l8 66l-24 -82v-221l24 -82l41 -66l74 -41h-74l66 -40h90l33 -66h-451l66 16l-99 9l-49 -25h-98l-57 41l139 82l33 65l8 1057l-25 33l-74 -16l-73 41l-33 40l98 33h107l24 33l33 -33l98 -8l82 25h205l58 -33l-25 -66l-107 -8l-81 -33l-41 -172
l16 -311l303 8l328 115v188l24 90l-16 66l-66 41l-82 25h-57l17 57l163 49q41 8 41 49zM255 1401l-16 -25q16 6 16 25zM1107 1393l-49 -25l58 -8l40 33h-49zM288 1352l107 -17l24 8zM1337 1352l49 -17l16 17h-65zM452 1343l16 -16l33 16h-49zM624 1319q14 2 16 16zM567 1327
l-41 -41l82 17zM1329 1319v-16l16 8zM1263 1311l16 -17q-2 11 -16 17zM362 1303l24 -33l17 16zM239 1294l57 -73q-16 41 -57 73zM305 1294l24 -16l16 8zM427 1294l-32 -24l16 -25q14 21 16 49zM354 1286l16 -16q-4 8 -16 16zM452 1286l-41 -65l25 -33zM1288 1286l16 -16
l41 16h-57zM1402 1286q-45 -43 -49 -98q47 37 49 98zM509 1270v-17l17 9zM1312 1270l25 -17q-6 13 -25 17zM239 1253l16 -565l33 295l8 -246l9 213l16 90l-25 50l-16 81zM264 1245l49 -90q-17 45 -49 90zM329 1245l-8 -41l16 -16l25 49zM444 1171l16 -24l8 98zM1189 1245
l8 -65l17 49q-6 12 -25 16zM1263 1245l8 -24l8 16zM370 1237l-16 -74l32 -24l9 82zM1304 1237l16 -98q0 49 -16 98zM411 1196v-74l16 25zM321 1171l16 -32q0 18 -16 32zM345 1155q9 -25 33 -41zM305 1130l16 -16l-8 33zM1173 1147v-197l16 107q-2 43 -16 90zM1337 1139
l-8 -33l16 -90zM345 1114q7 -16 25 -16zM1197 1032q-12 -53 -16 -114zM1189 909l-24 -49q20 19 24 49zM1116 877l-222 -91l189 17l57 33q-4 22 -24 41zM272 852l-25 -688l33 57l16 82l-24 246l16 24l8 107zM1181 844l-16 -41q14 18 16 41zM1132 803h16l-8 16zM1247 795
l8 -50v41zM403 770v-74l16 -16zM1165 770l8 -25l8 25h-16zM1091 762l25 -17l16 9zM567 729l-33 -24l41 8zM968 721l57 -8l17 8h-74zM780 705l41 -9l16 9h-57zM944 688l65 -8l25 8h-90zM1148 680l-16 -25l8 -16zM575 664l-66 -107l222 82l-91 -8l50 24zM1312 664v-320l17 -25
l-9 279zM485 655l16 -16q-2 10 -16 16zM411 647l8 -49v41zM280 557l25 -213v123zM321 541l8 -271q6 207 -8 271zM1230 524l-41 -278l25 33v114l24 -74zM419 418l-8 -99l-8 50v-156l41 -25l-17 41l33 -24zM239 319v-163l8 131zM337 229l17 -24l8 114zM1247 295v-115l-25 -33
l16 -8l25 66zM1304 246l-8 -41l33 -25zM1197 229l-16 -65q16 29 16 65zM321 197l-25 -58l17 -8l16 16v41zM477 197q4 -19 16 -33zM264 164l-17 -41q15 18 17 41zM214 131l-73 -49l90 16zM1402 123q10 -64 82 -82zM477 106l16 -40q0 22 -16 40zM337 90l-16 -41h41
q-4 25 -25 41zM436 74h16l-8 16zM280 82l25 -33q-5 19 -25 33zM1509 82l24 -16q-6 12 -24 16zM378 74l25 -17q-6 13 -25 17zM1353 74q19 -29 57 -41zM206 66l17 -25q-2 16 -17 25zM1337 66l-74 -25q39 2 74 25zM1148 57l17 -16l49 16h-66zM591 41l-41 -25h66z" />
    <glyph glyph-name="I" unicode="I" horiz-adv-x="669" 
d="M250 1364l98 -16l295 16l24 -74l-32 -8l-66 16l-57 -57l-58 -278l9 -672l-25 -172l57 24l-32 -32l41 -58l-17 58l66 -58l65 17l66 -33q-19 -29 -58 -41l-65 8l-25 -16l-24 24l-197 25l-33 -17l172 -32l-65 -8l-197 16l-24 16l-58 -16h-82l66 65l98 17l17 205l-17 778
l17 57l32 -246l9 50l-25 204l-24 50v-41l-17 65l41 -57l16 41l-24 90l-57 -17l-82 33l-25 33l25 25h155zM536 1348l41 -17l17 17h-58zM127 1339l24 -16q-6 12 -24 16zM168 1339l65 -41q-26 29 -65 41zM405 1339l-24 -16l49 8zM291 1315l16 -25l33 17zM414 1298l24 -24l8 24
h-32zM454 1257l-8 -73l17 8l8 49zM315 1241l17 -74l8 58zM381 1241l8 -24l8 24h-16zM454 1167l-16 -57q14 25 16 57zM258 1126l16 -229l8 131q-4 49 -24 98zM323 1102q2 -23 17 -41zM381 1102l-17 -131l9 -33zM201 1061l8 -967l32 25l58 114l-8 246l-25 -262v385
q-45 375 -65 459zM356 242q2 -33 17 -66zM356 176l17 -49q0 23 -17 49zM323 160q2 -23 17 -41zM274 135l-16 -65q14 26 16 65zM315 111l25 -17q-6 12 -25 17zM381 111l24 -17q-6 12 -24 17zM438 102l-24 -49l16 -8l41 25zM45 29l24 8l-16 8zM241 29l-8 -25h17l24 25h-33z
M209 20l16 -16q-2 10 -16 16z" />
    <glyph glyph-name="J" unicode="J" horiz-adv-x="651" 
d="M598 1389h49l-8 -82l-25 -17l-73 8l-74 -41l-41 -90l-8 -57l41 -131v131l32 -573l-8 -123l-57 -205v-131l-41 -360l-90 -180l-164 -82l-123 -8l-90 32h-81l-172 82l-50 82l41 98l99 17l73 -66l50 -82l8 -49h73l74 49l57 82l90 172l25 107l16 376v598l25 -278l-25 360
l-65 205l-140 98l74 41l82 -24l115 24l221 -8q45 0 90 25zM287 1356l49 -8l16 8h-65zM442 1331l17 -24l32 24h-49zM164 1315l41 -25q-17 17 -41 25zM229 1307l41 -33q-10 22 -41 33zM328 1290l8 -16l16 8l-8 25zM401 1307l-32 -33l16 -17l33 41zM295 1298l8 -24l8 24h-16z
M156 1290l65 -33q-29 19 -65 33zM180 1257l41 -213v197zM237 1233v-66l17 50q-2 10 -17 16zM262 1184v-377l8 344zM336 1118l8 -147l25 164zM295 1118v-368l16 278zM401 750l17 -82l8 401zM434 987l8 -459l8 361zM319 881v-123l9 90zM319 750l-8 -91l17 -32zM459 659
l-33 -401l8 -25l33 205zM303 643l-8 -33l16 -467l8 385zM418 627l8 -41v32zM262 553v-459l8 352zM410 504l8 -123v90zM287 209l8 -123v90zM270 86l-24 -172l8 -24l24 98zM336 37l8 -41v33zM295 20l8 -48v40zM213 -94l-8 -123l-8 33l-33 -24l-82 -164l98 49l33 106l8 91z
M237 -151l9 -49v41zM344 -249l-8 -25l16 8zM-368 -364l24 -41l9 131zM-278 -282l49 -41q-16 29 -49 41zM344 -307l-41 -73q27 32 41 73zM-278 -323l33 -57q-9 30 -33 57zM188 -331l-16 -25h25l8 25h-17zM-163 -339l16 -41q-2 20 -16 41zM156 -372l-17 -25l33 8q-2 13 -16 17
zM278 -372l-16 -25q16 8 16 25zM115 -380l-66 -58q41 19 66 58zM-335 -389q4 -18 16 -32zM-163 -397l-9 -33l25 -8q-2 21 -16 41zM270 -405l-196 -131l139 41q47 31 57 90zM-8 -512l16 -24l41 24l-41 -8z" />
    <glyph glyph-name="K" unicode="K" horiz-adv-x="1425" 
d="M378 1393l197 -17l98 17l33 -50l-41 -49l-74 25l-123 -82l33 -66l-33 -73l-16 -90l16 -279l148 139v-32l49 41l57 172l-41 -164l295 311l25 82l-90 8q-51 0 -82 41l49 25h90l74 24l188 17l148 -9l16 -41q-47 -49 -123 -65l-147 -66l-99 -106l-114 -295l-17 -90l17 -90
l188 -230l74 -131l115 -98l147 -57q12 -49 57 -82l-41 8l41 -33l-131 -48l-49 16l-434 24l-49 49l164 57l-17 50l-344 483l-74 8l-32 -65l16 -516l49 -9l25 17l65 -17l9 -49l-41 -32l-254 8l-66 -24l-49 24l-49 -8l16 16l-82 8l33 41q-74 -12 -82 -41l-33 -8l115 -8
l-106 -16l-66 57l147 65q27 62 82 115l9 196l-17 795l-115 82l-106 33l25 49l98 24l57 -24zM1230 1384l-49 -32l57 -17l99 41zM337 1376l-57 -16l164 16h-107zM616 1376l57 -24q-22 18 -57 24zM100 1368l98 -16q-45 12 -98 16zM452 1360l49 -8l17 8h-66zM624 1343l16 -16
q-2 8 -16 16zM1304 1343l-33 -24q25 4 33 24zM206 1335l17 -16l8 8zM354 1319l32 16h-49zM419 1294l-16 -32q14 14 16 32zM436 1294l-9 -32l25 8q-2 16 -16 24zM198 1286l41 -33q-12 23 -41 33zM190 1278q20 -29 49 -57zM362 1278l16 -16q-2 10 -16 16zM1017 1278l25 -25
l16 25h-41zM255 1262l25 -33q-6 18 -25 33zM403 1245v-16l16 8zM1116 1229l24 8l-16 8zM337 1229l17 -17q-2 11 -17 17zM468 1212l-16 -32l33 16q-2 8 -17 16zM337 1196l33 -41q-8 27 -33 41zM477 1180l-17 -74q17 33 17 74zM968 1171l-57 -98q35 41 57 98zM296 1163l9 -131
l24 82zM436 1163l8 -41v33zM345 1147l17 -41l8 41h-25zM419 1114v-49l17 41zM1001 1098q-53 -56 -74 -140l-33 -90l9 -65l65 147q25 66 33 148zM444 1081l-17 -57l9 -106zM944 1073l-25 -41q18 15 25 41zM329 1049l-16 -91l8 -106l16 98zM911 991l-17 -98q13 43 17 98z
M296 983v-115l17 -73l-8 90zM812 893l33 -82l25 74l8 90zM698 844l24 8l-16 8zM796 860q6 -39 33 -74zM337 844l-8 -90l16 -25zM370 836q0 -60 16 -123zM591 836l-73 -107q49 41 73 107zM731 819l-17 -33l8 -16l25 33q-2 10 -16 16zM640 778h25v25zM739 770q4 -16 16 -25z
M731 729l57 -82q-23 41 -57 82zM608 696q-2 11 -17 17zM370 680l16 -107v82q-2 17 -16 25zM329 672l-8 -49l8 -17v66zM411 672l8 -41v33zM804 655q2 -22 17 -41zM534 647l-16 -41q14 19 16 41zM673 639l74 -98q-21 51 -74 98zM493 614l-33 -32l17 -25l32 33zM862 582
l-17 -25l33 -25zM501 573l-41 -114l-8 -221l25 -132l49 -32l-8 368zM362 500l8 -49v41zM788 451l16 -9l-8 25zM935 451l17 -9l-8 25zM1025 459l123 -197l-49 107zM395 426l-9 -107l17 -98v107zM1017 426l25 -74l57 -57l-41 65zM427 410l9 -123v90zM853 410l25 -82l49 -74
l-24 82zM1042 279l24 -74l58 -58l-41 66zM345 270l9 -49v41zM976 246l17 -82l49 -66l-25 82zM1197 221l41 -65l50 -50q-31 54 -91 115zM296 213l-8 -66l17 17v41zM436 213q0 -39 16 -82zM247 197l-41 -50l17 -49l41 58q0 22 -17 41zM362 172q0 -29 16 -57zM1099 156l41 -74
q-12 39 -41 74zM1288 139h16l-8 17zM296 139l-32 -41q24 13 32 41zM1099 131q8 -39 33 -74zM1165 115l16 -9l-8 25zM386 123l9 -41v33zM1386 74l33 16l-58 33l25 -25l-33 8q-2 9 33 -32zM419 115q6 -31 25 -58zM362 90h16l-8 16zM1206 82l16 -16q-2 8 -16 16zM477 57l16 -16
q-2 8 -16 16zM1050 57l16 -16q-2 8 -16 16zM558 49l25 -33l-33 17l-16 -33q59 27 24 49zM436 25l24 -17q-6 12 -24 17zM1017 25l-90 -25l148 16zM255 16l41 -16l17 16h-58zM1214 16l139 -40l33 8l-66 24zM1148 8l-32 -16l65 -8z" />
    <glyph glyph-name="L" unicode="L" horiz-adv-x="1169" 
d="M214 1393h295l-41 -50l107 17l65 24l58 -57l-33 -24l-74 -17l-16 25l-74 -49l-65 -189l-9 -115l25 -229l8 115l33 -49v-443l33 -131l8 -115l90 -32l123 -8l197 57l57 65l139 238l33 -25v-245l-17 -115l-49 -81l-57 32h-98l-49 -24l-115 -8l-262 24l41 -16l-90 24l-82 -32
l-123 8l-205 40l25 66l98 16l57 66l8 303l-49 712l-49 82l-98 17l-33 65zM362 1384l-164 -24l-25 -17l33 -16l238 33zM583 1343q6 -18 25 -32zM132 1335v-16l17 8zM305 1319l57 -8l16 16zM190 1311l49 -17l25 9zM378 1294l41 -24l17 24h-58zM280 1286l-16 -33l32 17z
M345 1286l-24 -41l57 41h-33zM436 1270l-25 -33q18 10 25 33zM477 1262l-17 -82q15 39 17 82zM190 1237l41 -41q-12 27 -41 41zM239 1196l16 -8l9 16l-17 8zM206 1188l58 -590l16 -66l-33 598l-8 -57v49q-8 35 -33 66zM378 1163l-8 -49l16 33zM264 1114l16 -246v140z
M395 1032l8 -41v33zM362 1024l8 -41v33zM378 909l-16 -409l24 -66l-8 107l17 -25v369zM419 664l25 -140l-17 312zM468 836l-8 -320l17 -115l16 344zM305 549l8 -49v41zM419 492q2 -56 17 -115zM305 459l8 -123v90zM460 385v-205l17 -33l49 -32l-41 196zM264 360v-147l16 -25
q-2 82 -16 172zM329 319v-106l16 -66v91zM370 311l16 -49q-4 25 -16 49zM444 270l8 -41v33zM313 238l8 -50v41zM1042 229l-41 -73q26 32 41 73zM509 221l9 -49v41zM1148 180l8 -49v41zM378 147l-16 -32l33 -25zM321 139l-16 -73l32 -17zM436 139q14 -45 57 -73zM1001 131
l-33 -41q25 14 33 41zM1034 115l-9 -41l25 24q-2 11 -16 17zM255 98l-16 -32q14 14 16 32zM509 98l25 -32q-8 18 -25 32zM1001 98l-33 -24q23 2 33 24zM378 57l17 -16q-2 8 -17 16zM313 49q16 -16 41 -16zM190 25h16l-8 16zM477 16q22 -18 57 -24zM558 8l66 -8l16 8h-82z
M403 0l-107 -32h74q23 10 33 32z" />
    <glyph glyph-name="M" unicode="M" horiz-adv-x="1800" 
d="M1601 1401h139l25 -66l-58 -57l-90 -33l-57 -74l-16 -114l49 -901q8 -56 65 -74l107 -33l16 -41l-147 -24l-99 32l-16 -24l-262 -8l-25 -16l-74 16l-24 57l147 41l66 65l16 99l-8 131l16 115v131l-24 106v320l-197 -533l33 123l-49 -82l-205 -467l-98 -130l8 32l-33 98
l-49 57l-147 254l-33 99l-17 114l-213 394l58 -533l-49 287l-9 -82l33 -279l-16 -286l147 -41l58 -33l-25 -33l-106 -24l-82 8l-25 -16l-106 24h-197l25 41l90 49l65 66l49 82l-16 41l-33 737l33 -25l-8 107l-41 90l-66 65l-98 33q2 41 41 66l123 16l123 -8l24 -17l66 9
l90 -41l74 -82l-58 41l49 -90l74 -189l8 -123l99 -172l147 -368l25 270l65 205l197 336l180 213l82 41l98 -41q37 18 66 49zM1609 1393l-25 -33h148l-16 33h-107zM225 1352l41 -9l16 9h-57zM1371 1343v-32l41 32h-41zM1445 1343l-33 -49q21 21 33 49zM1593 1343v-16l16 8z
M1650 1327h16l-8 16zM184 1327l49 -8l16 8h-65zM1347 1327q2 -22 16 -41zM331 1278q6 -14 25 -16zM1437 1270v-17l16 9zM1339 1253l-25 -82q17 39 25 82zM1511 1253l-25 -16l25 -8l8 16zM1560 1253l-25 -41q19 15 25 41zM1453 1237l33 -41q-10 25 -33 41zM200 1229l25 -25
q-7 19 -25 25zM364 1229l49 -33q-20 18 -49 33zM1265 1229l-287 -467l-73 -303l-9 -164l254 623l49 40l50 140zM257 1221l17 -222l16 222h-33zM520 1221l98 -320v98l-58 164zM315 1204q4 -18 24 -33zM208 1196l17 -33q0 19 -17 33zM1347 1180l-172 -435l57 115
q107 264 115 320zM1445 1163v-16l17 8zM323 1147l74 -139l73 -90l-65 122q-25 60 -82 107zM331 1098l49 -115l66 -98l106 -221l-32 114l-115 213zM1445 1098l-8 -82l16 -82v98zM1478 1065l8 -41v33zM216 975l17 -451l16 33l-16 311zM1445 926l-8 -336l16 -25v328zM1265 918
l-41 -107l-57 -74l-49 -172l131 262q12 39 16 91zM339 819l8 -49v41zM569 819q2 -35 16 -65zM1388 803l8 -49v41zM692 762l49 -123q-17 57 -49 123zM298 549l25 -418l24 -16l9 90l-33 532zM683 737l-8 -24l17 -17zM700 696l41 -139q-8 66 -41 139zM610 647l16 -8l-8 25z
M1101 647l-115 -311l-16 -90l115 303q12 43 16 98zM585 614l33 -82q-8 39 -33 82zM593 557l49 -180l91 -156l-107 254zM1437 557l16 -98q-2 51 -16 98zM716 500l8 -41v33zM356 467l8 -49v41zM1396 467l8 -41v33zM773 426q0 -39 17 -82zM798 352l16 -98q-4 49 -16 98z
M921 328l-16 -90q12 38 16 90zM1462 295l8 -41v33zM995 279l-25 -99q16 43 25 99zM1470 213l-8 -25l16 -8zM864 205q4 -17 16 -25zM249 106l-8 -24h25q-2 16 -17 24zM282 106q8 -24 33 -40zM1322 98l-24 -49q24 19 24 49zM1347 98l-8 -49l32 33zM1380 74q4 -17 16 -25z
M1650 66l49 -25q-20 16 -49 25zM266 57l41 -41q-13 27 -41 41zM323 57q29 -39 82 -49zM1478 49l16 -16q-2 10 -16 16zM1650 41l-41 -33l66 8zM1290 33l16 -17q-2 9 -16 17z" />
    <glyph glyph-name="N" unicode="N" horiz-adv-x="1484" 
d="M272 1413l98 -24l25 24l123 -90l73 -172l90 -147l17 8l73 -66l222 -278l16 -50l-98 91l41 -82l172 -164l65 -98l8 802l-16 50q-18 36 -57 57l-58 -8l-41 16l-57 57l74 50h229l-147 -17l164 -8l90 41l90 -16l-25 -91l-98 -24l-66 -66l-32 -819l-17 328l-8 -115l16 -360
l41 -164l-8 -25l-65 -57l-131 131l-82 131l82 -98l16 24l-66 66l-98 147l8 -49l-164 262v-49l-131 197l-41 82l-221 286l41 -16l-41 66l-49 41l-16 -230l16 -737l74 -41l49 -82l74 -33l41 -49l-41 -16l32 24l-32 8l-172 -49l-25 17l-90 -9l-90 -40l-74 49l-49 16l25 41
l81 25l66 57l33 172l-33 508l-16 90l16 -25l41 -335l8 57l-24 508l-25 98l-164 90q23 41 74 49l180 9zM1361 1380l33 -24l16 16zM1451 1356l17 -17l-8 33zM51 1364v-25l16 25h-16zM75 1348l33 -17l16 17h-49zM468 1339l50 -41q-19 23 -50 41zM1353 1339v-24l25 16zM75 1315
l98 -25q-45 17 -98 25zM1214 1315l16 -17q-2 11 -16 17zM1378 1315l-49 -25l73 8zM190 1307l24 -41q-4 24 -24 41zM1156 1307l-8 -25h17l8 16zM1263 1307l-16 -41l32 24q-2 10 -16 17zM1279 1266l-8 -49l25 40zM280 1257v-114l16 90q-2 16 -16 24zM1214 1257l8 -49v41z
M370 1233q4 -19 16 -33zM583 1110l16 -8l-8 24zM1197 1126l9 -41l8 33zM599 1085h17l-8 17zM509 1044l33 -73l49 -58l-33 74zM599 897l17 -8l-8 24zM673 872l58 -114l81 -99l-65 107zM640 815l17 -8l-8 24zM878 799q2 -19 16 -33zM837 766l16 -8l-8 24zM853 741l17 -8l-8 25
zM903 741l16 -8l-8 25zM681 709l17 -9l-8 25zM706 700q14 -43 41 -90zM272 659l-8 -319l24 -49v287zM829 635l16 -8l-8 24zM944 627l32 -74l140 -213l-58 164zM780 602l16 -8l-8 24zM804 569l17 -8l-9 25zM821 545l16 -8l-8 24zM886 537l17 -9l-9 25zM944 479l65 -90
q-29 45 -65 90zM1214 430l8 -123v90zM1173 332q0 -23 16 -41zM1132 307l16 -49q-4 25 -16 49zM1206 307l16 -57q0 26 -16 57zM1034 283l41 -82q-15 41 -41 82zM1083 274l57 -57q-22 37 -57 57zM1181 242l66 -115l-17 82zM247 233l8 -24l9 16zM1132 209l33 -66q-9 35 -33 66z
M354 201l57 -58q-20 33 -57 58zM247 160l17 -17q-2 11 -17 17zM427 160l-24 -41q22 12 24 41zM280 143q10 -14 33 -16zM255 135l17 -16q-2 10 -17 16zM149 102l-8 -24h16l8 24h-16zM444 102q8 -12 24 -16zM419 78l-24 -25q24 4 24 25zM444 78l24 -17q-6 13 -24 17zM1189 78
l17 -49l32 16z" />
    <glyph glyph-name="O" unicode="O" horiz-adv-x="1642" 
d="M758 1458h115l-115 -24l270 -17l99 -24l262 -205l106 -123l33 -82l16 -98l9 -336l-17 33v-99l-24 -90l-74 -139l-57 -57l-263 -189l-180 -32l-65 8l-123 -24l-99 16l-73 40l-238 181l-41 73l-98 123l-66 279l-8 98l74 295l-25 -33l-82 -205l25 91l74 163l139 197l41 33
l25 -17zM791 1409l-123 -41h33l123 41h-33zM1012 1409l123 -41q-55 25 -123 41zM1102 1360l90 -49q-39 30 -90 49zM856 1352l25 -17q-6 13 -25 17zM774 1343l-147 -40l-172 -189l-33 -147l-8 -131l41 -181l74 -131l-82 123l-41 139v164l-41 -295l155 -393l74 -106
q49 -50 123 -74h98l230 33l114 57l33 115l33 57l106 434l-16 164l-41 98l-74 107l-98 82l-131 57l-156 25q-16 18 -41 32zM373 1303l-41 -74q27 33 41 74zM1225 1303q14 -29 49 -50zM586 1294l-8 -24l24 16zM447 1286v-16l16 8zM1094 1262l74 -58q-31 35 -74 58zM1168 1245
l41 -57q-13 31 -41 57zM307 1196l-16 -57q14 24 16 57zM340 1188l-24 -90q16 43 24 90zM1389 1147h16l-8 16zM1290 1155q7 -29 25 -57zM1405 991l17 -57q-3 29 -17 57zM1471 983l49 -98q-2 55 -49 98zM365 967l-17 -82l9 -25l24 82zM316 901l8 -49v41zM1446 852l25 -49
q-6 24 -25 49zM1413 844l9 -49v41zM1446 778v-82l17 25zM209 762l8 -41v33zM1495 754l17 -74l8 57zM1405 745l17 -98q-3 47 -17 98zM1331 737l-57 -229l8 -33l-32 -106l32 24l41 99l17 122zM1389 729q0 -59 16 -123zM250 664l-8 -91l16 -32zM160 655l8 -41v33zM1471 606
l8 -90l8 25zM373 573l25 -106l41 -98l-33 114zM1381 557v-90l16 65zM283 549q2 -60 16 -123zM1446 492l-16 -66q16 29 16 66zM1331 451l9 -41v32zM406 426l-8 -49l41 -66zM447 418q6 -72 49 -139zM250 377q2 -23 16 -41zM357 352q2 -35 32 -65zM1274 352l-65 -147l49 65
q14 39 16 82zM1315 344l-8 -25l16 9zM1438 344l-16 -49q16 18 16 49zM1299 319l-9 -24l17 8zM299 311l25 -57q-8 31 -25 57zM1331 287l-16 -33q14 14 16 33zM1290 238l-8 -25l17 8zM512 197l17 -9l-9 25zM594 156q6 -23 25 -41zM1217 131l-33 -49q27 18 33 49zM512 106
l17 -8l-9 25zM545 106q14 -18 41 -32zM1086 98l-41 -32q28 10 41 32zM881 25l-123 -41h-74l41 -16l131 24l66 33h-41zM1061 8l33 8l-17 9z" />
    <glyph glyph-name="P" unicode="P" horiz-adv-x="1097" 
d="M616 1409l90 -25l-16 -8l41 -24l98 -25l181 -16l8 -41l41 -49l41 -197v-123l-131 -213l-132 -33l33 33l-229 -49l-25 16l-114 -8q-45 0 -50 -49l25 -377l57 -131l66 8l16 -24q39 -15 41 -58l-295 -48l-172 -8l-114 32q-43 8 -50 57l173 57l57 58l8 459l-33 303l33 -181
l-25 492l-155 49l-41 57l82 17h123l24 16l189 -16l172 16zM149 1352l25 -25l16 25h-41zM444 1343l33 -16l16 16h-49zM43 1319h24l-16 8zM518 1294l33 17h-49zM928 1303l65 -33q-26 20 -65 33zM485 1294q-45 -28 -57 -90zM584 1294l-50 -49l-41 -82l-41 -418l164 -8l107 17
l123 139l32 74l-32 221l-58 65l-90 41h-114zM387 1262l-25 -74l9 -74l32 139zM911 1253l25 -32q-4 18 -25 32zM289 1245l8 -41l8 33zM321 1245l25 -106q0 53 -25 106zM477 1245l-25 -33q21 13 25 33zM477 1204l-33 -16l17 -98zM313 1163l8 -237l9 123zM919 1147l25 -49
q-6 24 -25 49zM280 1139l9 -41v32zM870 1139l17 -82q0 39 -17 82zM280 1065l9 -41v33zM862 901l-65 -74l-33 -65l65 65q25 31 33 74zM993 901l-8 -41l16 8zM1075 901l-8 -41l16 8zM452 729l17 -16l8 8zM395 721q2 -23 17 -41zM297 672v-197l8 107zM436 451l8 -50v41z
M452 410l9 -41v32zM420 385q0 -57 16 -123zM330 303l16 -65q0 32 -16 65zM420 254v-82l32 -16q-10 49 -32 98zM371 238l16 -41q-2 22 -16 41zM371 180l32 -65q-8 35 -32 65zM461 180q10 -30 41 -49zM280 156l-24 -50l41 9q-2 20 -17 41zM420 131q6 -18 24 -25zM305 115
l-8 -25h16l8 25h-16zM256 98l-25 -24q23 6 25 24zM575 90l-41 -8l66 -16q-6 16 -25 24zM133 41l41 -8l57 33zM231 33l33 -17l107 33zM452 41q46 -12 99 -16zM35 33q6 -13 24 -17zM141 25l-16 -25l49 25h-33z" />
    <glyph glyph-name="Q" unicode="Q" horiz-adv-x="1640" 
d="M759 1413h181l237 -90l221 -172l140 -221l24 -156v-180l-32 -148l-58 -122l-98 -156l16 57l-90 -123l-98 -82l-221 -138l-115 -41l156 -8l196 -115l320 -107l49 25q57 -14 98 -66l90 91q49 36 82 98l49 33l-24 -156l-303 -197l-197 41l-25 -16h-49l172 -98h-41l-680 344
l-278 32l-66 -24l25 33l-41 24l82 90l197 99l-33 24l-123 32l-57 33l-41 -24l-99 82l-82 106l-147 336l33 -16l-33 139l57 311l140 213l98 82l115 57l131 25zM907 1380l65 -8l17 8h-82zM759 1339l17 -16l49 16h-66zM465 1315l-17 -25l33 17zM1202 1298l57 -49q-22 27 -57 49
zM907 1290l-41 -33l205 -73l16 16l-57 57l-8 25zM1063 1290l49 -24q-21 18 -49 24zM792 1282l-114 -41l-82 -74l-131 -163l-107 -197l-16 -115l49 -401l139 -164l82 -41l172 -57l25 24l73 -8l213 90l123 180q39 35 58 99l8 254l-25 163l-33 115l-49 98l-65 91l-90 57
l-197 65l-25 -16l-16 25l66 16h-58zM456 1274l-16 -33l33 16q-2 9 -17 17zM645 1266l-49 -41q30 12 49 41zM391 1257l-17 -32l33 24zM1194 1233l24 -33q-8 19 -24 33zM612 1225l-90 -33l-57 -66l-50 -163q193 233 197 262zM1325 1200q24 -26 57 -49zM1095 1184l17 -17
q-2 9 -17 17zM358 1176l-8 -33l16 16zM1317 1167l65 -73q-25 39 -65 73zM1251 1151q12 -27 41 -41zM1398 1118l33 -74q-12 37 -33 74zM1218 1094l17 -9l-9 25zM1185 1102l41 -98l50 -74l-17 114zM227 1094l-49 -82l-17 -58l9 -24l41 82q14 39 16 82zM1284 1077l16 -24
q-2 16 -16 24zM1349 1077l41 -65q-10 39 -41 65zM1448 1053l24 -90q-4 45 -24 90zM366 872l25 91q14 38 -25 -91zM1276 1012l41 -148q-3 72 -41 148zM1407 938l24 -90q-6 43 -24 90zM1325 930l16 -90q-2 82 -16 90zM1513 930l17 -410l16 107l-8 221q-4 39 -25 82zM211 913
l-9 -49l17 33zM1497 913l8 -49v41zM1276 905l41 -344q-13 258 -41 344zM161 881q-14 -56 -16 -115zM211 848l-33 -82v-66l16 66zM145 717v-82l16 24zM325 668l8 -50v41zM1407 668v-172l8 139zM301 578l16 -25v98zM145 602l16 -8l-8 24zM1349 561v-123l8 90zM1308 545l9 -41
v33zM293 479l16 -98l41 -66q-37 121 -57 164zM1308 479l9 -49v41zM1472 455l-24 -115q16 53 24 115zM260 438q2 -35 16 -65zM1390 430l-33 -123l50 107zM358 381l-8 -33l16 -8zM1284 381l-8 -41h24zM1407 365l-25 -74q21 35 25 74zM211 340q10 -59 65 -98q-22 49 -65 98z
M268 340q4 -18 16 -33zM301 340l24 -66q-6 35 -24 66zM1226 283q-22 -35 -32 -82zM1382 274l-41 -90q23 39 41 90zM1243 266l-33 -49l16 -16q15 28 17 65zM309 242l24 -33q-8 18 -24 33zM260 225l65 -106l107 -82l-82 90zM424 209l16 -8l-8 24zM424 201q2 -19 16 -33z
M1267 201l-32 -82q22 37 32 82zM1202 119l16 -17q-2 11 -16 17zM506 111q8 -13 24 -17zM497 70l82 -33l156 -17l-115 25zM1022 70l-17 -25l41 16zM972 53l-32 -33q22 11 32 33zM1177 53l-123 -65l90 24q25 15 33 41zM964 12h25l-8 17zM784 20v-16l33 8zM997 -12l-156 -74
l-49 -49h107l147 74l33 41zM710 -45l-32 -49q22 21 32 49zM637 -86l-17 -32l33 8zM612 -94l-33 -16l17 -33q14 21 16 49zM743 -143q41 -26 98 -33zM465 -176v-16l16 8zM915 -192l57 -16l17 16h-74zM514 -249h49l90 24zM686 -225q53 -14 114 -16zM735 -274l65 -8l17 24z
M866 -290l197 -58l-82 41zM1300 -339l17 -17q-3 8 -17 17zM1587 -380l74 -33q-33 22 -74 33zM1718 -380v-17l16 8zM1030 -389l246 -139l81 8l-221 115l-16 -16q-41 20 -90 32zM1218 -389l82 -32q-39 22 -82 32zM1480 -389q21 -12 50 -16zM1562 -405l49 -33q-20 23 -49 33z
M1415 -413q22 -15 49 -17zM1276 -462q34 -23 81 -41zM1423 -512l33 17h-49z" />
    <glyph glyph-name="R" unicode="R" horiz-adv-x="1382" 
d="M42 1368l459 -25l123 25l98 -25l33 25l148 -33l114 -65q-57 41 -131 49l230 -189l40 -139l-49 -131l-73 -98l-107 -41l-82 -74l107 -74l229 -303l197 -172l65 -24l-16 -74l-139 -40l-140 24l-90 82l-74 98l-114 65l-41 82l74 -106l57 -8l-172 278q-27 55 -82 98l-131 -24
q-64 -6 -107 -66l33 -278l-16 -25l16 -49l197 -49l-33 -82l-33 -16l-74 24l-335 -48l32 24l-82 32l-90 -56l-49 81l131 49q60 25 90 90l-41 664l25 155l-8 123l-74 99l-131 82zM51 1327l24 16l-24 9v-25zM206 1311l25 -17q-6 13 -25 17zM255 1311l17 -25q-2 17 -17 25z
M771 1311l25 -25q-6 17 -25 25zM59 1303l24 -17l17 8zM141 1303l73 -41q-30 28 -73 41zM223 1286l16 -33q-4 19 -16 33zM509 1286l-32 -98l-25 -238l8 -229l82 -8l25 16l221 41l82 33l24 229l-32 98l-50 82l-180 74h-123zM370 1278l-33 -41q27 14 33 41zM214 1245l-57 -8
l49 -49l25 16q0 23 -17 41zM255 1229l17 -33l8 33l-16 16zM386 1245l-16 -65q14 30 16 65zM927 1245l25 -33q-4 19 -25 33zM829 1237l16 -16q-2 8 -16 16zM436 1204v-57l16 33zM894 1196l17 -16q-2 8 -17 16zM968 1196l25 -16q-6 12 -25 16zM919 1180l-8 -33l16 -8z
M1009 1180l41 -66q-12 35 -41 66zM862 1163l32 -49q-10 29 -32 49zM935 1147l17 -33q-4 19 -17 33zM313 1114l-8 -24l16 -17v33zM1009 1090l16 -82q-2 75 -16 82zM1050 1090l33 -99q-4 49 -33 99zM1107 1090l-16 -238l49 115q-8 61 -33 123zM1091 1065l8 -41v33zM427 1057
l9 -41v33zM264 967v-148l16 -24v82zM1025 967l17 -49v40zM386 950l-8 -41l17 9zM1017 918v-74l17 57q-2 8 -17 17zM927 844l-16 -25l8 -33l25 17q-3 22 -17 41zM444 786l8 -41v33zM1009 786l-25 -49l33 17l25 32l-25 -8zM378 778l8 -41v33zM419 762l17 -41q0 22 -17 41z
M755 737l-106 -32h32q45 6 74 32zM878 737v-16l16 8zM665 647q2 -16 16 -24zM378 639v-74l17 58q-2 10 -17 16zM558 631l-65 -74l82 8l74 33q-39 20 -91 33zM518 614l-33 -41q24 15 33 41zM935 524l49 -65q-18 35 -49 65zM419 483l33 -164q-8 74 -33 164zM837 459l16 -17
l-8 33zM903 475l32 -65q-8 32 -32 65zM1042 426q6 -23 24 -41zM878 418l49 -74q-20 37 -49 74zM354 377l-9 -25l17 -65zM1075 319l-9 -24l17 -16zM280 303l-8 -74l16 -24l8 74q-2 16 -16 24zM935 279l17 -9l-8 25zM952 254h16l-8 16zM960 246l24 -33q-4 20 -24 33zM1156 238
q3 -17 17 -25zM427 213l9 -41v33zM1238 205q25 -68 99 -90zM280 188v-73l41 8zM1017 147l33 -65l-16 41l49 -41l-8 33q-27 22 -58 32zM477 82q45 -16 98 -25zM1402 66l17 -17l8 8zM1140 57q4 -28 25 -49zM1206 57q6 -16 24 -24zM1296 57q8 -16 24 -24zM1247 -16
q26 -10 65 -16z" />
    <glyph glyph-name="S" unicode="S" horiz-adv-x="1042" 
d="M515 1425h131l164 -155l41 65l82 25l25 -131v-279l-74 -16l-25 24l-33 99l-65 82l-90 57l-107 41l-131 -16l-82 -66l295 -336l180 -131l132 -147l65 -107l-49 -311l-115 -131l-106 -32h-221l-132 24l-98 49l-82 65l-41 -98l-57 74l-41 106v148l41 41l8 73l33 -41l41 -106
l57 -98l172 -107l115 -33l131 17l41 106l25 271l-66 81l-238 82l-98 66l-82 82l-41 65l8 -41l-73 164l-25 123l33 115l74 74zM532 1409l-74 -33h164l73 -16l-32 41q-58 8 -131 8zM417 1352l-41 -33l65 24zM646 1352l82 -58q-22 43 -82 58zM908 1352l-16 -49l41 -99l8 139z
M859 1327l-16 -57l8 -25l25 58zM540 1319l-140 -41l-32 -82l188 49l131 -41l98 -74l-32 58l-90 82q-56 30 -123 49zM761 1303l33 -58q-9 29 -33 58zM884 1278l16 -66q-2 35 -16 66zM286 1270l-41 -74v-90q35 129 41 164zM220 1229l-57 -107l-8 -73l16 -25q31 51 33 123
q12 35 16 82zM794 1212q8 -16 24 -24zM335 1147l-8 -66l82 -172l221 -106l-205 262q-39 41 -90 82zM843 1090l16 -33q0 18 -16 33zM310 1057l49 -107q-18 54 -49 107zM843 1049l-8 -25l24 -25q0 23 -16 50zM179 1016l-24 -25l16 -65l16 65zM867 1016l9 -41v33zM900 1016v-66
l17 49q-3 9 -17 17zM204 934l8 -107l41 -8zM237 901l32 -57q-8 30 -32 57zM368 819l32 -74l74 -49l-49 66zM253 811l57 -90l90 -82l115 -49l107 -25l-9 17zM581 811l180 -115l-74 74zM613 647l50 -41q-19 23 -50 41zM572 631l58 -49q-25 26 -58 49zM671 631l65 -58
q-24 33 -65 58zM761 582q2 -17 16 -25zM777 582l33 -33q-8 18 -33 33zM818 549l-41 -8l49 -74zM851 516l25 -65q-7 32 -25 65zM974 516q6 -29 24 -57zM761 467l41 -74q-10 37 -41 74zM1007 459l-9 -25l17 -16zM761 418l-25 -295l33 24l49 140q-8 67 -57 131zM990 418
q2 -23 17 -41zM949 410l17 -58q-2 29 -17 58zM826 377l17 -41l-8 57zM89 352v-123l17 -90v123q-3 45 -17 90zM867 344l9 -49v41zM941 344l-8 -74l25 -32v81zM220 229q21 -53 74 -90q-29 43 -74 90zM908 213l-32 -66l32 -16l25 25q-6 28 -25 57zM163 164l16 -90q0 43 -16 90z
M228 164l82 -58q-34 31 -82 58zM933 139l-57 -57l-164 -82l49 -8l106 24q39 50 66 123zM859 131l-8 -49l49 49h-41zM359 115q15 -19 41 -33zM835 98l-33 -41q24 15 33 41zM409 82q49 -27 106 -41zM532 41l106 -25l25 25h-131zM163 33l16 -17q-2 9 -16 17zM491 25
q45 -13 98 -17z" />
    <glyph glyph-name="T" unicode="T" horiz-adv-x="1316" 
d="M855 1413l-451 -24l-74 -17h181l-17 -24h156l-33 -17l74 25l147 -17h328q59 0 106 -57v-254l-41 -33l-57 123l-24 123l-140 25l-164 -33q-59 -6 -90 -66l-8 -843l17 -156l90 -82l90 -25l-33 -24l-98 -17l-74 9l-66 -25l-147 -24h-156l-82 24l58 16l82 66l114 33l-24 82
l24 49l25 115v573l-33 164l8 -385l17 -131l-17 -99l-16 566q-8 61 -66 106q-32 51 -98 74l-139 -25l-82 -98l-66 -106l33 114l-106 -123l-9 238l66 106l66 41h-58l-65 -41l-9 33l17 17zM134 1356l16 -8l98 24zM281 1356l90 -17l99 9l-90 8h-99zM699 1348q37 -17 82 -25z
M101 1323l8 -25l25 25h-33zM158 1323l-32 -33l81 -16q-16 29 -49 49zM412 1323l49 -8l17 8h-66zM978 1323q43 -14 98 -25zM674 1307l50 -9l16 9h-66zM68 1298l25 -41q-4 23 -25 41zM240 1298l25 -16l74 8zM666 1282q15 -20 41 -25zM535 1274l25 -17q-6 13 -25 17zM617 1274
l-25 -25h41l9 25h-25zM1084 1274l66 -25q-29 15 -66 25zM748 1266l33 -17l8 17h-41zM838 1266l33 -9l8 9h-41zM35 1249l-8 -65l17 -17l16 25q-6 29 -25 57zM85 1249l16 -32q0 18 -16 32zM126 1241l-9 -33l25 25zM429 1233l90 -82l-8 82h-82zM527 1233l33 -74l8 74h-41z
M592 1225l17 -41l8 41h-25zM642 1225l-25 -66l16 -24l41 90h-32zM183 1217l-25 -58l58 58h-33zM1207 1200l33 -98q-4 49 -33 98zM691 1069l8 -123l33 230zM552 1135q4 -19 16 -33zM601 1135v-50l16 41zM617 1085l-16 -122l8 -123l16 32zM1231 1028l9 -24l8 24h-17zM691 864
l24 -393l9 516zM601 799l-17 -467l33 24l8 74l-24 49l16 58zM617 799l16 -230v131q-2 52 -16 99zM650 455l8 -41v32zM707 250l8 -41v33zM724 217l-9 -65l25 -41v82zM601 168l-9 -66l33 9zM650 152l-8 -58l24 17zM756 152q4 -25 25 -41zM699 127q4 -16 16 -25zM601 94l24 -16
q-6 12 -24 16zM814 86l24 -25q-6 19 -24 25zM396 45l57 -16l17 8zM633 20l-106 -24q57 2 106 24z" />
    <glyph glyph-name="U" unicode="U" horiz-adv-x="1429" 
d="M214 1397l205 -49l98 41l107 -17h-57l41 -41l-74 -16l-66 -33l-24 -57l-33 41l-16 -607l24 -180l25 -73l106 -205l99 -115l155 -25q70 19 139 66q48 51 74 131v148l49 286l-16 402l-16 90q-17 78 -107 98l-164 57l82 25l410 -8l73 -25l-32 -57l-74 8l-66 -156l17 -41
l-25 25l-8 -74l33 -491l-25 -393l-24 -82l-41 -58q-37 -57 -107 -106l-49 -8l82 41l90 114l41 164v148l-25 -115l-40 -57l-58 -148l-49 -65l-57 -41l-148 -25l-24 17l41 33h-107l-164 40l-32 -24l-213 90l-91 123l-32 98l8 65l49 74l-16 82l16 123l16 -25l9 230l-17 -49
l66 475h-33l-16 -189l-25 -82l8 99l-49 155l-131 74l41 41l287 -8l-172 24zM542 1364l25 -25q-9 15 -25 25zM460 1356q14 -13 33 -17zM67 1348l-33 -25l107 -41l-9 16l17 41zM829 1348l16 -25l90 -33q-71 49 -106 58zM1247 1348q-56 -7 -82 -58l106 33zM345 1315h17l-8 16z
M493 1331l-25 -24l49 8zM1042 1331l41 -8l16 8h-57zM1132 1331l16 -24l8 24h-24zM321 1323l-57 -33q36 8 57 33zM337 1282l74 8l8 33zM427 1323l-8 -33l33 8q-6 17 -25 25zM1025 1315l58 -58q-17 35 -58 58zM1099 1315l16 -41q0 22 -16 41zM1124 1290q0 -26 16 -57z
M190 1282l-25 -25l33 -24l8 41zM1206 1266q-33 -35 -41 -90zM313 1257l16 -24q-2 16 -16 24zM337 1257v-16l17 8zM313 1217l8 -41l8 32zM354 1217l-17 -74q15 33 17 74zM1132 1200l16 -8l-8 25zM427 1217l9 -107l-25 -377l-8 82zM1050 1208l25 -73q-5 39 -25 73zM1132 1176
q12 -15 33 -17zM370 1143v-107l16 107h-16zM313 1135l8 -99l8 74q-2 16 -16 25zM173 840l9 -66l-17 -41zM1091 815l8 -49v41zM337 791l17 -99q0 49 -17 99zM1140 741v-327l16 -25v189q-2 69 -16 163zM182 741l8 -41l-25 -8zM272 627l-8 -82l16 -25zM337 610v-114l25 -41
l-8 139zM223 586l16 -41q0 22 -16 41zM1058 578l8 -50v41zM1091 578l-8 -91l16 -24zM214 553l-8 -90l17 8l8 57zM1050 512v-16l16 8zM1124 512l8 -49v41zM231 496v-123l8 90zM313 479v-147l16 -25q-4 125 -16 172zM264 422l8 -115l32 -57l-16 106q-4 33 -24 66zM198 414
l-41 -41l-8 -66l49 -155l90 -91l123 -49l-164 123l-41 139zM419 414l41 -221l57 -74l99 -25l-115 148zM337 381v-74l41 -24q-14 49 -41 98zM206 373l17 -115q4 -43 49 -49zM1107 307l-16 -57q14 26 16 57zM247 184l82 -82q-22 56 -82 82zM1009 184l-16 -49q16 19 16 49z
M403 176q6 -39 33 -74zM337 168l49 -82q-18 41 -49 82zM485 135q8 -55 57 -82zM468 86q4 -16 17 -25zM673 70q33 -17 74 -25zM993 70l-230 -139l172 33q47 38 58 106zM771 29l-73 -57h49q22 22 24 57zM673 20l41 -16l16 16h-57z" />
    <glyph glyph-name="V" unicode="V" horiz-adv-x="1480" 
d="M90 1380l156 -16l90 -25l25 25l32 8l91 -16l40 -66l-49 -24h-90l205 -648l16 17l41 -66l205 58l74 106l49 139l41 74l-82 -196l-24 -107l245 574l-33 65l-139 66l33 16l90 -16l25 16l114 -16l107 24l24 -16l99 -17l-25 -32l-90 -17l-156 -188l-57 -115l-172 -500l41 41
l-319 -671l24 90l-33 -33l-32 33l-50 114l-49 279l-41 131l8 -139l-286 606l33 -16l-25 90l-98 229l-107 66h-49l8 49l115 -25zM148 1364l49 -57l24 -82l17 16l-8 90l57 -33l41 33l-90 25zM115 1356l57 -74q-18 43 -57 74zM1286 1348q39 -15 82 -17zM0 1339q21 -14 49 -16z
M1237 1331l-33 -16q21 2 33 16zM361 1323q22 -20 57 -33zM410 1315l49 -41l49 16q-47 17 -98 25zM1254 1315l-41 -33l73 33h-32zM311 1282l33 -57q-6 32 -33 57zM172 1274l41 -90q-10 47 -41 90zM262 1266l33 -49q-10 28 -33 49zM246 1249l33 -123l49 -98l-25 131zM352 1241
l25 -74q-4 37 -25 74zM1245 1233l-65 -90q39 41 65 90zM1204 1143l-24 -74q20 35 24 74zM336 1126l8 -41v33zM377 1102l16 -33q0 18 -16 33zM1114 1102l-32 -123q30 51 32 123zM352 1085l25 -81q-4 38 -25 81zM410 1012l-17 -66l66 -188l-8 131zM279 1004l49 -115
q-19 55 -49 115zM1114 1004l-24 -107l8 -25q12 58 16 132zM287 889l41 -131l188 -402l-32 164l-50 139l-65 123q-33 52 -82 107zM1049 881l-33 -99q20 45 33 99zM352 864l17 -41q-2 21 -17 41zM1057 831l-57 -122l-58 -58l-82 -196l74 82l90 180zM1000 791l-25 -74
q18 33 25 74zM991 700q-6 -30 -24 -57zM467 659l-8 -24l16 -17zM860 618l-196 -65l24 -57l123 -25q33 80 49 147zM606 578l-8 -25h17zM615 545q6 -33 32 -66zM647 545q13 -39 41 -74zM844 537l-33 -99q23 43 33 99zM647 455l25 -49q-4 26 -25 49zM680 455l41 -58
q-14 31 -41 58zM721 455l16 -49l50 16q-29 20 -66 33zM860 446l-32 -49l16 -8q16 25 16 57zM803 422l-25 -66q19 29 25 66zM746 397l8 -32l24 24l-16 17zM860 397l-24 -65q16 28 24 65zM721 389l16 -16q-2 8 -16 16zM811 315l8 -24l9 24h-17zM746 307l16 -24l8 24h-24z
M582 283l57 -271l41 -57l-65 254zM705 283l-8 -25h16zM639 266q6 -61 25 -123zM729 184l17 -32l8 32l-17 17zM819 168l-16 -66q10 29 16 66zM713 53l-8 -24l16 16zM729 37l-8 -33l25 25zM721 -12v-16l16 8z" />
    <glyph glyph-name="W" unicode="W" horiz-adv-x="1937" 
d="M1048 1483l49 -82l-8 -41l41 -57l73 -222l107 -180l106 -319l-8 -74l-33 106l17 -114l41 -99l106 426l49 99l74 204l-24 9l24 24l33 131l-74 9l-106 40q33 37 90 41h221l148 33q51 -2 65 -57l-98 -41l-82 -66l-139 -295l-25 -245l-57 -230l-140 -295v-65l-49 -155
l-33 -49l-16 32l-74 57l-41 107l-32 229l-41 98v-65l-197 639l-352 -975l-41 -16l33 -106l-58 41l-41 89l-147 598l-17 -16l58 -320l-221 844l-33 57l24 -163l50 -131l-25 24l-41 98l-25 123l33 74q-18 45 -74 57l-98 25l-48 33l24 41l82 24l98 -33l123 25h196l82 -57
l-164 -41l-32 -25l106 -418l139 -327l25 -189l25 41l262 803v57l-25 -41l8 41l66 82l8 90zM368 1393l33 -33q-11 20 -33 33zM450 1384v-49l41 8q-17 23 -41 41zM425 1352l-33 -41q27 14 33 41zM1859 1343l-25 -40q19 14 25 40zM253 1319l98 -25l17 33zM1015 1327l-16 -57
l8 -25l24 58q-2 16 -16 24zM1883 1327v-16l33 8zM1105 1319l25 -66q-4 35 -25 66zM974 1294l8 -16l17 16l-9 17zM278 1286q14 -14 33 -16zM1826 1278l-33 -57l17 -25q14 39 16 82zM237 1270l24 -66q-4 33 -24 66zM368 1262l16 -66l8 57zM1048 1253l33 -114q-9 53 -33 114z
M335 1229l8 -123v90zM351 1221l9 -41v32zM1040 1212l-9 -90l82 -204l9 24zM417 1163l-8 -57l16 16l139 -614l-122 582zM360 1073l8 -41v33zM401 1065l24 -131q-2 59 -24 131zM1638 1032l-123 -327l-58 -279v-90q179 657 181 696zM950 991l-99 -311l8 -16l99 303zM1081 975
l-9 -33h17zM1220 958l-8 -40l16 -33zM1081 934l24 -49q-4 26 -24 49zM417 885l49 -189l-16 107q-10 39 -33 82zM1113 885l-8 -25l17 -16zM1212 868l32 -106q-10 53 -32 106zM1277 860l115 -500l-8 123l-25 99l8 57zM1253 844l-9 -25l50 -172l-17 98zM1539 352l9 -33l98 238
l41 270zM548 745l8 -49v41zM1228 745l41 -172l-8 107zM1162 713l-8 -25l17 -16zM573 688q4 -33 24 -65zM1277 623q2 -19 17 -33zM1285 582l17 -33q-4 18 -17 33zM597 557l17 -123q-4 60 -17 123zM753 385l-49 -156l8 -24q39 137 41 180zM1253 385l16 -98l41 -33l-25 90z
M1498 319l-8 -40l17 -9v41zM597 221l17 -41q-2 21 -17 41zM638 213l-8 -49l25 33q-2 8 -17 16zM1294 205l16 -107l41 -90l-25 98zM1457 197l-8 -91l25 74zM614 164l16 -49q-2 24 -16 49zM1474 139l-8 -65l16 16v41zM597 131l25 -57q-6 28 -25 57zM638 106l8 -40v32zM1441 90
l8 -41v33zM564 82l9 -41v33zM1359 74l16 -66q-4 35 -16 66zM1441 16l-25 -40q19 16 25 40z" />
    <glyph glyph-name="X" unicode="X" horiz-adv-x="1454" 
d="M1278 1393l123 -41l-32 -41l-82 -33l-58 -57l-32 -107l-115 -131l106 123l41 147h-57l-90 -155l98 123l-229 -320l-82 -147l172 -197l139 -221l98 -90l-57 -8l74 -50l98 -114l-131 114l-25 -16l82 -106l74 -25l82 -8l-8 -33l-33 -40h-221l-172 32l98 24l-65 9l-164 -25
l33 16l-50 33l181 25l-320 426l-65 57l-222 -377l-57 -24l-24 -50h40l25 17l49 -17l66 9l-41 -17l-17 -49l-41 -41l33 -8l-33 -16l-49 16l-41 -8l-32 -24h-189l115 8l-33 16l-238 8l50 33h-33l188 41l-139 8l25 24l180 58l74 172l180 303l24 82l-57 57l-106 262l16 58
l-49 65l-25 -8l-65 57l-148 91h-49l131 65l205 -33l16 17l107 16l82 -25l49 -32l-139 -17l237 -344l49 -41l189 369l-49 16l-25 41l106 41l107 -16h-98l65 -25l107 17zM1278 1376l-49 -33q33 5 49 33zM107 1327l33 -16l8 16h-41zM1016 1319l25 -25q-4 19 -25 25zM222 1311
q10 -35 41 -58zM1057 1311v-33l25 25zM1090 1311l-16 -41l32 24zM1254 1294h16l-8 17zM287 1286l17 -16q-2 8 -17 16zM1000 1278l-156 -328l17 8l155 295zM345 1270q18 -15 41 -17zM1033 1270l-74 -172l25 -17l65 115zM508 1253l33 -90q-8 45 -33 90zM1057 1253v-16l17 8z
M394 1245l24 -24q-6 16 -24 24zM435 1245l65 -49q-22 31 -65 49zM1090 1245l-16 -41l32 33zM541 1237l41 -90l98 -156l66 -57q-176 266 -205 303zM418 1204l25 -24q-6 16 -25 24zM459 1204l41 -74q-14 37 -41 74zM1090 1171v-16l16 8zM1082 1155l-66 -106q39 47 66 106z
M402 1139l74 -140l-25 82zM484 1130l-8 -24l16 -16zM500 1090q0 -25 17 -50zM558 1090l24 -91l49 -65l-33 82zM943 1065l16 -16q-4 8 -16 16zM402 1057l24 -107l91 -172l65 -41l16 33l-16 74q-139 180 -180 213zM1008 1040l-41 -90q31 39 41 90zM918 1024l16 -16
q-4 8 -16 16zM902 999l16 -16q-4 8 -16 16zM533 975l41 -82q-16 39 -41 82zM664 967l25 -58q-4 31 -25 58zM705 926q2 -29 25 -58zM771 893l8 -25l8 25h-16zM820 885l-25 -49q19 18 25 49zM893 860q-2 10 -16 17zM590 836l17 -50q0 25 -17 50zM623 786l-16 -24l24 -57
l41 -33l17 24l-25 41zM844 762l33 -33q-8 19 -33 33zM598 754l-16 -49l49 -50q-12 50 -33 99zM852 729q11 -41 33 -82zM566 696l-148 -278l156 147l-33 -73l33 16l74 98q-35 45 -82 90zM697 672l-25 -58q19 25 25 58zM713 647l-16 -57q14 24 16 57zM934 606l17 -8l-8 25z
M730 614l-17 -41l74 -81q-23 61 -57 122zM836 614q2 -18 16 -32zM959 598l41 -90l57 -82l-41 90zM672 590l-90 -156l57 74q23 35 33 82zM934 565l33 -98l74 -115l-41 107zM1008 549l16 -8l-8 24zM549 532l-163 -188l-25 -74l147 189zM828 508q12 -49 41 -90zM926 434l17 -8
l-9 25zM820 442q2 -18 16 -32zM943 410l16 -9l-8 25zM959 385l16 -8l-8 24zM1057 393l41 -82l58 -57l-58 65q-12 39 -41 74zM484 369h16l-8 16zM893 369l50 -90l90 -99l-49 33l8 -25l73 -82l50 -32l-17 49zM476 360l-41 -90q26 41 41 90zM1147 344l33 -57q-10 28 -33 57z
M476 303l-41 -98q26 43 41 98zM1205 303q12 -33 49 -49zM394 287l-8 -25l16 8zM336 262l17 -16q-4 8 -17 16zM1180 262q8 -16 25 -24zM410 246l-33 -58q23 25 33 58zM959 229l16 -8l-8 25zM1131 238q39 -56 106 -91q-43 41 -106 91zM353 229l-8 -24l16 8zM1172 229l16 -16
q-2 8 -16 16zM1197 229l24 -32q-8 18 -24 32zM1106 197l66 -66q-29 33 -66 66zM1147 197q29 -39 74 -74zM246 131l-33 -16q25 0 33 16zM353 115h16l-8 16zM1229 123q17 -21 41 -33zM1205 106l-25 -24q23 4 25 24zM402 66l-66 -17q39 0 66 17zM1033 57l-41 -41l65 25z
M1115 57l16 -16q-2 8 -16 16zM132 33l-74 -25h344l49 25l-221 -17z" />
    <glyph glyph-name="Y" unicode="Y" horiz-adv-x="1357" 
d="M51 1405q58 -45 148 -49l155 24l172 -8q60 -14 82 -74h-122l-50 -90l25 -90l57 -131l-16 74l123 -115l147 -180l90 188l172 222l-65 98l-123 41l139 41l49 -33l99 16l24 41l66 -16q65 -10 114 -66l-106 -57q-68 -20 -131 -74l-33 -90l-8 66l-254 -393q-39 -52 -41 -115
l66 131l155 238l58 57l-246 -434v-516l196 -66l-65 -81l-82 8l-57 40l-58 -24l-41 -49l-16 49q-78 -2 -156 -41l-16 17l24 24l-229 24l49 17q84 8 115 41q74 10 74 82l24 352l-16 114v-237l-8 287l-107 180l-57 65l57 -139l-246 434l-106 33q-66 21 -82 90l106 8l-73 9l57 8
zM281 1356l-33 -25q27 4 33 25zM952 1331l66 -16q-27 12 -66 16zM1264 1331l16 -33q0 19 -16 33zM240 1307l8 8l-25 8zM395 1307q13 -15 33 -17zM1239 1307l-65 -58l106 25q-14 18 -41 33zM240 1282l24 -25q-6 17 -24 25zM379 1274l-8 -25h16zM166 1249l49 -32
q-18 22 -49 32zM363 1241l16 -16q-2 8 -16 16zM1075 1225l9 8l-25 8zM273 1217l32 -58q-4 33 -32 58zM330 1184v-17l16 9zM338 1151h16l-8 16zM248 1151q6 -33 25 -66zM1026 1143l-8 -25l16 8zM354 1135q2 -29 25 -58zM330 1085q8 -34 33 -65zM543 1020l147 -320l-8 91
l-74 155zM944 1004l-8 -25l16 8zM486 987l65 -106q-12 55 -65 106zM928 979l-148 -229l82 106q39 49 66 123zM625 938l49 -98l82 -107l-49 115zM592 889l16 -82l50 -66l-33 74zM510 831l33 -114q-10 53 -33 114zM551 823l74 -180l-25 107q-18 38 -49 73zM707 782l16 -106
l25 41zM633 741l33 -90l16 41l17 -65l16 24q-39 62 -82 90zM592 643l16 -33l-8 49zM633 594l-8 -25l16 -57l8 25zM772 594l-8 -33l16 -16v41zM756 553l-17 -156l9 -172l24 164v139zM584 438l8 -41v33zM617 389v-254l16 25q-2 172 -16 229zM576 332l-25 -197l25 -24l8 106z
M682 315l17 -65q-3 35 -17 65zM666 291l16 -25q-4 17 -16 25zM666 266l24 -106q-2 55 -24 106zM731 225l25 -82q-8 39 -25 82zM731 152v-74l33 8zM674 143q4 -16 16 -24zM764 119q8 -17 25 -25zM682 78h17l-9 16zM658 70l-41 -25q30 2 41 25zM682 70q4 -17 17 -25zM731 70
l17 -25l49 16q-29 7 -66 9zM813 53l-16 -33h41q-8 19 -25 33zM526 20l17 -16l41 16h-58zM617 20l16 -16q-2 8 -16 16zM486 12l24 -16q-6 12 -24 16zM821 4l66 -32l65 40z" />
    <glyph glyph-name="Z" unicode="Z" horiz-adv-x="1208" 
d="M119 1401l24 -41l33 33l246 -25l24 16l172 9l263 -25l32 16l164 25l58 -33l-9 -90l-581 -909l-66 -123v-123l213 16l25 -24l254 74q49 34 82 98l90 57l16 -114v-181l-41 41l-33 -98l-65 25q-60 0 -123 -41l-311 8l-148 -32h-90l172 40l-24 16l-312 -56l90 56l-49 9
l-82 -49l-123 81l17 172l459 705l180 188l41 140l-156 32l-147 -32l-131 -50l-82 -106q-29 -53 -90 -66l-25 25l16 287q21 51 74 82l139 57zM537 1491h65l-49 -8zM1053 1393l16 -17q-2 10 -16 17zM111 1368q8 -12 24 -16zM201 1368l16 -33q0 19 -16 33zM242 1368
q20 -16 49 -16zM487 1368l58 -8l16 8h-74zM987 1360l25 -33q-4 21 -25 33zM1028 1360l16 -17q-2 9 -16 17zM1094 1311l8 -17l16 58zM537 1343l49 -8l16 8h-65zM463 1327q22 -16 49 -16zM1028 1327l8 -24l8 24h-16zM192 1319l25 -49q-2 28 -25 49zM266 1319q37 -16 82 -16z
M1003 1319l-32 -25q22 2 32 25zM397 1303q19 -15 49 -17zM258 1294l16 -16q-2 10 -16 16zM741 1286l41 -49l25 33l-17 -33l33 33zM995 1212l-16 -57l57 49l17 82zM987 1278l-8 -33l24 17q-2 10 -16 16zM176 1270l16 -17q-2 11 -16 17zM864 1270l-41 -58l17 -24l41 16l8 58z
M913 1270l-24 -99l65 99h-41zM283 1245l-25 -33q20 13 25 33zM733 1237l-16 -82l16 8l25 58zM160 1212v-16l16 8zM831 1204l-16 -24q12 8 16 24zM102 1081l17 -24v106zM807 1155v-16l16 8zM979 1147l-82 -98l-25 -82l74 98q29 35 33 82zM848 1139l-8 -33l16 8zM750 1130
l-9 -40l25 32zM143 1098l9 -25l8 17zM684 1081l-57 -98q32 41 57 98zM700 1073l-8 -24l17 8zM758 1040l8 -16l16 41zM627 1057l-90 -82l-197 -303l180 188l66 98q22 43 41 99zM692 1032l-49 -90q31 41 49 90zM831 983l-32 -82q22 39 32 82zM709 958l-17 -49q15 19 17 49z
M881 958l-9 -24l17 8zM643 934l8 -16l17 16l-9 16zM864 934l-57 -41l-98 -172l-25 -98q170 268 180 311zM627 909l-82 -98l16 -16l49 49q17 28 17 65zM577 901l-8 -24l17 8zM668 893l-25 -57l41 41q-2 8 -16 16zM553 778l-49 -57l-17 -66q39 52 66 123zM446 770l-8 -25l17 9
zM430 745l-156 -213l-24 -81q168 256 180 294zM479 737l-8 -24l16 8zM643 680l-33 -82q23 37 33 82zM332 672l-8 -25l16 8zM422 655l-49 -123q30 56 49 123zM676 655l-189 -229l-16 -82l33 57l-8 -73l139 213q24 51 41 114zM365 606l-82 -131q-39 -59 -41 -139l90 123z
M258 557l-197 -336l82 49l58 82q49 152 57 205zM504 549l-74 -107l-49 -98l74 107q28 43 49 98zM365 508l-17 -57q14 24 17 57zM299 393l-8 -24l16 8zM209 360l-25 -49q21 19 25 49zM446 360l-49 -122l8 -50l41 50l9 114zM487 352q-12 -26 -16 -65zM397 311l-8 -41l16 25z
M332 279l-49 -66l-17 -66q60 97 66 132zM381 279l-98 -156l73 57zM233 238l-32 -50q22 19 32 50zM414 180l41 -33l8 91zM1028 229l-33 -41q27 13 33 41zM1126 221v-82l17 -49zM381 213l-41 -90l65 49zM94 197l-24 -74q16 33 24 74zM414 172l-33 -41h41l24 16zM963 172
l-50 -41h66l41 41h-57zM119 164l-25 -66q23 27 25 66zM176 164l8 -25l8 25h-16zM1077 156l-16 -66l16 -24l17 24zM37 139l8 -41v33zM152 131l8 -33l8 17zM422 106l41 -8l16 8h-57zM995 90h17l-9 16zM324 98l16 -16l8 8zM774 98l-49 -8l74 -8q-6 12 -25 16zM823 98l25 -16
q-6 12 -25 16zM586 74l49 -8l16 8h-65zM954 74l33 -17l8 17h-41zM102 57q25 -14 58 -24zM627 33l49 -8l16 8h-65z" />
    <glyph glyph-name="bracketleft" unicode="[" horiz-adv-x="563" 
d="M290 1368l107 -16l172 -49l-25 -58l-98 -16l-82 -41l8 -33l107 66v-33l-74 -74l-25 -82v-221l-24 -57l24 -1098l25 -81l147 -74l41 -49l-90 -17l-98 17l-33 -25l-25 41l-49 -8l17 -33l-33 8l-49 66l-17 98l17 25l-17 49l-24 1097l16 -393l41 368l-16 -16l-17 90l9 328
l32 -17v74l-65 74l82 25l-17 49zM298 1352l-24 -25l98 -24l25 32q-43 13 -99 17zM421 1311l49 -8l17 8h-66zM233 1286l-33 -33l41 -8l25 41h-33zM315 1270q6 -23 24 -41zM372 1221l16 -17l9 8zM462 1204q-57 -24 -82 -90q58 25 82 90zM339 1171l17 -32q0 18 -17 32z
M282 1155l16 -115q0 54 -16 115zM233 1139v-287l24 221zM339 1098l-8 -25l16 -65l9 65q-2 17 -17 25zM257 1049l-16 -131l8 -115l25 213zM339 958l8 -40v32zM290 844l8 -41v33zM282 795l8 -336l8 311zM331 786l-16 -557l24 -163v688zM233 532l-25 -262l17 -548l32 -98l9 295
l-17 16l17 49l-17 73v451q-2 16 -16 24zM331 25l8 -139l17 -25q-2 78 -25 164zM307 -147l8 -115l16 -49l-8 99zM347 -212l9 -41v32zM274 -270l8 -115l25 -8zM315 -335l16 -66q-2 37 -16 66zM233 -393q4 -14 16 -24zM290 -417l33 -66q-2 35 -33 66zM249 -442q6 -45 58 -57z
M372 -442l16 -33q-4 21 -16 33z" />
    <glyph glyph-name="backslash" unicode="\" horiz-adv-x="471" 
d="M-153 1356l109 -90l134 -236l398 -1271l26 -154l72 -172l-53 19l-82 145l-99 281l-10 116l-53 117l-119 368l-35 29l-82 199l-53 90zM-134 1319l28 -62q-6 31 -28 62zM-71 1247l106 -307l-35 164q-24 67 -71 143zM387 -114l11 -90l45 -72l-29 80zM432 -313q4 -24 19 -45z
" />
    <glyph glyph-name="bracketright" unicode="]" horiz-adv-x="563" 
d="M301 1393l114 -99l25 -98l-17 -213l-73 -385v-679l16 -99l-8 -106l-33 -148l66 -49l-90 17l-91 -25l82 49v57l-73 -57l-197 -33l25 17l-17 24l25 49l90 17l65 -8l-8 32l17 320v-344l41 -25l16 25l-25 74l-24 188l8 106l-33 541l-8 -99v770l-16 91l-156 40q231 33 279 50z
M169 1360l-73 -8l49 -17h57q-14 17 -33 25zM284 1343l49 -57q-14 37 -49 57zM210 1327l25 -24q-6 18 -25 24zM341 1327l25 -82l-16 -540l16 -25l66 541q-23 63 -91 106zM284 1311l8 -172h41l-8 106q-14 33 -41 66zM210 1286v-196l33 -132l8 82l-16 90v140zM325 1122l-24 -49
q18 19 24 49zM301 1040l-9 -98l33 -606l-8 622q0 39 -16 82zM210 958l-16 -114l33 -615v533l8 -180l8 286q-8 45 -33 90zM210 844l9 -49l-9 -17v66zM292 139l9 99l-17 475zM243 106v-179l25 -148l-8 311zM333 -73v-115l17 -90v115zM309 -81l8 -41v32zM276 -155l16 -82l9 131
zM309 -196q4 -57 24 -123zM260 -245v-90l49 -17zM301 -376l16 -17l8 33h-16zM112 -393l57 -8l17 8h-74zM22 -425l147 8l58 16zM227 -425l33 8l-17 8z" />
    <glyph glyph-name="asciicircum" unicode="^" horiz-adv-x="1024" 
d="M430 1425l123 -24l90 -66l319 -630l33 -33l-8 -90l-90 49l-58 106l-147 172l-57 99l-82 73l-58 9l-360 -517l-41 33l-139 -24l41 73l-49 25l81 188l189 189l115 205l122 139zM561 1368l65 -65q-24 34 -65 65zM413 1319l-49 -82q31 35 49 82zM561 1319l65 -115l74 -90
l-49 131zM528 1278l41 -98q-16 49 -41 98zM495 1155l66 -41q-29 23 -66 41zM274 1139l-24 -66q18 29 24 66zM717 1139q4 -70 41 -140l81 -90zM479 1130q10 -20 33 -24zM413 1106l-73 -115l-41 -114l74 114q36 47 40 115zM168 999l-82 -65l-58 -74l-57 -131l41 8l41 74
l98 123q13 29 17 65zM676 975l16 -8l-8 24zM700 967q15 -66 66 -115zM266 877l-74 -115q-37 -41 -41 -98l74 98q37 49 41 115zM160 819l-25 -57q18 24 25 57zM807 819l65 -114q-20 61 -65 114zM-4 729l-17 -33l33 25zM119 647l16 -16q-2 10 -16 16z" />
    <glyph glyph-name="underscore" unicode="_" horiz-adv-x="1024" 
d="M737 -110h164l-123 -49l155 -25l17 25l41 -8l-41 -33h57l-74 -66l-98 -41l-557 -41l25 -41l-25 25h-164l66 74l-66 8l-74 41q11 43 58 57l82 25l377 16zM475 -184l57 -8l16 8h-73zM49 -200v-49l32 24zM294 -266l-49 -16l17 -49l303 32l-90 25zM213 -299l-66 -49l106 17
q-14 20 -40 32z" />
    <glyph glyph-name="grave" unicode="`" horiz-adv-x="1024" 
d="M401 1290l131 -24l17 24l98 -65l65 -262h-32l-320 262l-41 16zM590 1233l24 -25q-6 17 -24 25zM483 1200l49 -33q-16 23 -49 33zM598 1167l-8 -24l24 -25zM614 1102l16 -25q-2 17 -16 25z" />
    <glyph glyph-name="a" unicode="a" horiz-adv-x="925" 
d="M569 883l98 -65v32l98 -219l8 -171l-17 -179l41 -155l81 -24l90 122v-73q-13 -68 -73 -130l-155 -41q-66 10 -130 65l-24 24l-82 -48l-154 -41l-155 24l-81 114l-17 139l8 32l98 98l236 106l155 24l-8 114l-57 8q37 29 48 81q-45 53 -130 65q-66 -19 -114 -81l-106 -89
l-89 -25l16 155l-40 -49l-17 -90l-16 82l98 106l309 81l106 -25zM586 826l24 -24q-6 17 -24 24zM634 794l25 -33q-8 18 -25 33zM659 728q7 -16 24 -24zM586 696q1 -22 16 -41zM594 623l16 -106q-1 48 -16 106zM586 460l16 -49v41zM545 444l-212 -139l-32 -73l8 -57l73 -97
l130 40l82 90l16 89l-8 33q-16 56 -57 114zM748 444l8 -49v41zM284 297l17 -8l8 25h-16zM236 232l16 -16q-3 8 -16 16zM756 232q1 -42 25 -89zM138 208v-82l8 66zM236 208l-9 -65l17 -17zM740 208l8 -41v33zM586 183l-9 -24l17 8zM195 167l16 -32q0 17 -16 32zM659 167
q0 -17 16 -24zM203 118l16 -40q-2 22 -16 40zM919 118l-8 -24l16 8zM773 102q7 -16 24 -24zM683 86l16 -25q-3 17 -16 25zM219 53l17 -40q-3 22 -17 40zM520 53l-40 -24q26 5 40 24zM244 37q7 -16 24 -24zM659 37q24 -26 57 -40z" />
    <glyph glyph-name="b" unicode="b" horiz-adv-x="1107" 
d="M274 1425q45 -43 73 -114l-16 -533l156 90l106 33l148 -16l131 -107l65 -139l17 -328l-181 -262l-81 -41q53 33 81 98l-221 -90l74 -8l-66 -8l-73 41q-56 37 -131 41l-49 16l-33 -57l8 65l-41 -40v-33l-82 24v328l25 180l-25 672l-131 57l25 33l106 16q74 9 115 82z
M159 1253h16l-8 17zM216 1229l9 -41v33zM282 1065l8 -123v90zM225 991l-9 -82l17 -90l8 82zM601 885l148 -33q-66 27 -148 33zM601 868q9 -12 25 -16zM200 844l16 -107q-2 51 -16 107zM446 778l-49 -49q30 16 49 49zM552 778l-106 -41l-82 -123l16 -180l-24 -205l24 -16
l115 -25l90 -41l98 25l74 57l33 107v131l-131 278q-47 23 -107 33zM651 770l155 -319l-41 196l-41 82q-30 25 -73 41zM388 713l-32 -58q20 25 32 58zM192 311l-8 -73l16 -25zM634 82l-24 -16q24 2 24 16zM192 66l16 -17q-2 8 -16 17z" />
    <glyph glyph-name="c" unicode="c" horiz-adv-x="884" 
d="M540 909l262 -32l90 -82l25 -90l-33 -33q-37 -47 -107 -49q-43 49 -49 122l-115 50l-114 -33l-82 -82l-25 -311l107 -230l114 -57l132 41l90 65l41 74l49 -16l-41 -123l-90 -66l-115 -57h-229l-115 90l-123 66l-74 98l-49 115l-8 163l41 132l65 98l107 65l115 50
q61 4 131 32zM695 877l148 -41q-66 32 -148 41zM351 844l-114 -66l-82 -90l-58 -115l-8 -163l41 -131l74 -99l90 -49l-66 107l-8 81l-8 -73v98l-25 41l-8 66l17 41v139q8 55 57 106l131 107h-33zM835 811l57 -66q-18 39 -57 66zM327 737l-17 -32l33 24zM810 729l-24 -24
l40 -17q-2 23 -16 41zM228 705l-16 -115l25 90zM245 696v-73l33 65zM327 688l-17 -41q15 19 17 41zM368 639l-17 -66q13 29 17 66zM360 451l-9 -115l17 -74v90zM261 393l-8 -41l16 8zM253 311q2 -22 16 -41zM253 254l33 -49q-10 28 -33 49zM360 98l57 -57l98 -33l-74 49z
M671 25l24 -17q-6 12 -24 17z" />
    <glyph glyph-name="d" unicode="d" horiz-adv-x="1107" 
d="M867 1417l74 -41l-41 -1048l17 -90v57l65 -139l57 -41l25 -58l-82 -49l-164 -8l-33 90l-8 -65l-49 49l-147 -74l24 33l-155 -33l-107 41l-98 65l24 -73l-24 16l-90 156l-25 106v-106l-33 131l-16 24l8 213l25 82l73 131l58 58l16 -17l107 66l-33 16l246 17l82 -33l57 -57
l8 376l-65 25l-58 49l-16 33l24 24q209 54 254 74zM810 1376l-33 -33q25 11 33 33zM646 1278q29 -16 66 -25zM818 1065l8 33l-16 106zM867 950l17 -155l8 319zM753 1098l-17 -99l8 -204l9 221l16 65q-2 9 -16 17zM441 909l131 -32l156 -74l-65 74l-82 32h-140zM466 795
l-115 -74l-41 -49l189 82l49 8q-37 22 -82 33zM581 762l-230 -90l-57 -262l24 -115l50 -107l123 -32l139 16l98 57l16 271l25 -49l-8 122l-41 -32l-25 24l-41 123q-18 49 -73 74zM835 737l8 -49v41zM671 696q10 -67 57 -131q-4 68 -57 131zM318 655l-24 -49l16 8v-16l25 41
q-2 10 -17 16zM187 606l-32 -57l16 -25l33 58zM286 573l-25 -98v-82l33 156zM826 573l9 -41v33zM753 442l8 -49v41zM138 410l-8 -58l16 41zM753 336l8 -49v41zM228 328l9 -49v40zM204 270l-8 -57l24 -16q0 36 -16 73zM900 221q0 -22 17 -49zM400 139q39 -26 91 -33zM474 139
l57 -24l25 16zM581 139l-41 -33q30 11 41 33zM761 90l-25 -24l33 -41l8 57z" />
    <glyph glyph-name="e" unicode="e" horiz-adv-x="929" 
d="M360 909l-25 -49l123 33l221 -41l99 -82l82 -254l-17 -74l-196 33l-320 -8l-24 -139l41 -107q20 -55 82 -82l65 -41l156 33l106 49l41 66l57 -25q-8 -63 -49 -123l-114 -65l-156 -33h-164l-131 66l-74 114l-57 49l16 74l-16 74l16 188l-32 -49l-9 25l66 131l57 65l-57 25
l123 57zM426 860l-33 -33l65 25zM442 819l49 -24q-22 16 -49 24zM507 819l50 -24q-21 16 -50 24zM638 811l41 -41q-14 25 -41 41zM401 795l-25 -25q19 8 25 25zM466 786l-106 -73l-57 -115l-9 -49l263 16l90 -24l24 16v115q-28 51 -82 73q-53 29 -123 41zM704 696l8 -49v41z
M712 516l-8 -24l16 8zM679 492h17l-8 16zM188 475l8 -49v41zM163 401l9 -41v33zM213 131q24 -57 90 -90zM606 115l-49 -25h41l49 25h-41z" />
    <glyph glyph-name="f" unicode="f" horiz-adv-x="542" 
d="M401 1384h188q66 -4 125 -55l8 -133l-16 -22l-100 -48l-25 17q-37 53 -39 133l-47 14l-86 -22l-39 -383l94 -8q58 -3 94 -48q-47 -43 -118 -47q-58 -28 -78 -102l-8 -311l32 -236l39 -31l142 -47l-25 -55h-516l31 78l55 16l-8 219l47 478l-47 -9l-78 23l23 63h110l64 336
l69 111zM378 1190l-8 -119l16 94zM167 791l-47 -689l8 -8l23 23l39 141l-8 500zM362 782v-24l33 24h-33zM96 39l16 -16q-2 8 -16 16zM229 39q8 -10 24 -16z" />
    <glyph glyph-name="g" unicode="g" horiz-adv-x="964" 
d="M386 891l222 -8l139 -66l147 74l115 -8l74 -49l-25 -99l-98 -24l-58 57l-49 16l-49 -90l41 -180l-82 -164l-180 -123l-25 25l-204 -25l-74 -41l-25 -49l377 -8l98 -16l91 -33l73 -49l58 -57l41 -82l-25 -213l-25 -98l-57 -66l-246 -106l-237 -9l-189 50l-82 41l-65 57
l-41 74v122l33 82l106 140l-33 81l-8 66l41 114l82 41l-33 66l-41 -33l-32 82l8 90l-33 90l16 107l41 73l58 66l90 33zM706 850l33 -57q-11 28 -33 57zM460 825l-98 -131l-33 -172v-114l33 -58l82 -33l-33 263l49 155l41 66l-74 -238v-131l25 -115l98 17l58 49l57 147
l-25 164l-41 90q-59 39 -139 41zM427 809l-57 -82q33 35 57 82zM902 809l25 -25q-6 17 -25 25zM1009 801l-8 -33l33 8q-7 17 -25 25zM821 776l-33 -33q22 7 33 33zM976 768q15 -18 41 -25zM337 735l-16 -41q14 19 16 41zM730 735l17 -16q-4 8 -17 16zM354 727l-17 -41
q15 19 17 41zM313 694l-33 -24q22 2 33 24zM329 670l-16 -25l8 -16zM821 571l16 -24q-4 16 -16 24zM247 481l16 -16q-4 8 -16 16zM206 473l25 -57q-8 30 -25 57zM198 408l25 -58q-9 29 -25 58zM689 375v-25l25 17zM452 285l33 -9l8 9h-41zM149 23q26 -29 65 -41zM837 23
l24 -33q-8 18 -24 33zM182 -26l-74 -107l98 66q-6 22 -24 41zM370 -75l-82 -49l-57 -66l-8 -106l49 -74l73 -49l91 -25l114 -8l90 24l140 115l24 98l-65 58l-91 33l-204 41l-58 -17zM747 -141l74 -74q-27 43 -74 74zM198 -239l-8 -66l73 -123l205 -73l90 -8l263 180v49
l-33 -49l-164 -115l-115 -24l-114 24l-99 41l-65 66zM34 -296l8 -91l17 -16l16 8zM935 -362l-65 -115q43 45 65 115zM796 -370l-25 -25q19 6 25 25zM59 -411l57 -66q-23 37 -57 66zM739 -411l-41 -41q28 14 41 41zM485 -526q18 -12 49 -16z" />
    <glyph glyph-name="h" unicode="h" horiz-adv-x="1064" 
d="M249 1354h96l-8 -604l140 81l114 9l8 32l107 -16l72 -49l106 -178l-16 -385l41 -105l90 -57l8 -49l-383 -33l-16 25l-58 24l17 49q49 2 65 58l8 407l-41 107l50 -115l8 -408q30 37 33 97l8 32l-17 369l-73 64l-115 24l-90 -24l-58 -80v-361l33 -129l99 -49l24 -41
l-49 -33h-277l-81 -16l-33 8l-33 58l16 24l99 33l24 104l-8 74l25 131l-33 107l8 131l25 112v222l-33 145q-14 53 -74 65l-33 82q152 35 205 58zM274 1149l6 -39v31zM329 1044l-16 -98l16 -49l8 49zM208 840l8 -41v32zM501 750l66 -17q-27 12 -66 17zM321 637l8 -41v33z
M167 580l8 -50v41zM280 465l-6 -33l22 17q0 10 -16 16zM794 424l-25 -57q21 24 25 57zM288 317l-8 -81l16 57zM763 205l-16 -33q14 12 16 33zM184 139l8 -24l8 16zM706 98l-8 -32h16zM868 98l-25 -32q23 10 25 32z" />
    <glyph glyph-name="i" unicode="i" horiz-adv-x="497" 
d="M213 1212h88l45 -88l16 -71l-8 -27l-72 -27q-73 5 -141 64q12 78 72 149zM328 893l26 -62l-18 -495l45 -133l88 -115q-14 -47 -62 -61l-133 -27l-248 27l9 79q63 23 106 89l19 327l-45 168q-62 31 -80 107l159 34q56 23 134 62zM328 877l18 -46q-4 25 -18 46zM88 735
l27 -26q-7 16 -27 26zM274 717q2 -41 19 -80zM194 709l-26 -72q18 31 26 72zM160 629l16 -62v51zM194 618l9 -51v43zM194 346l9 -45v35zM336 123l18 -17q-4 9 -18 17z" />
    <glyph glyph-name="j" unicode="j" horiz-adv-x="466" 
d="M184 1204l162 -33l-49 -161l-146 -33l-33 129l-16 -258l82 -17l145 50l17 -1134l-49 -99q-43 -129 -179 -211h-274l-32 82l16 146l227 -146l96 146l17 534l-33 178l-129 405l80 129q4 146 98 293zM71 717l80 -225q-2 114 -80 225z" />
    <glyph glyph-name="k" unicode="k" horiz-adv-x="995" 
d="M266 1415l77 -8v-584l60 -67l78 -54l59 62l-25 67l52 35l110 17h129l103 -25l26 -78l-102 8l-86 -43l-146 -137l76 -162l172 -223l35 -69l86 -43l17 -68l-35 -16l-342 8l-35 24l16 43h62l-232 336l-61 17l-17 -27l-8 -119l17 -112l59 -68l86 -51l-162 -62h-164l-8 -16
l-86 43h-43l27 59l94 35l25 352l-25 103l8 514l-16 113l16 43l-137 51l27 59q159 25 213 43zM317 1399l10 -43v33zM233 1329l-19 -35l9 -16l34 35q-6 12 -24 16zM206 1286l-26 -51l18 -16l25 51zM223 1251l-17 -51q15 21 17 51zM198 1200l-18 -24l10 -19l16 27zM591 840
l62 -17l24 8zM591 815l27 -18l16 10zM575 788l-17 -32q15 14 17 32zM335 764l17 -146l120 68l-26 27zM583 756l-25 -43q21 14 25 43zM704 737l-121 -129l70 62q30 26 51 67zM317 702l18 -94q-4 47 -18 94zM481 678l-78 -60l-51 -18v-25l155 84zM214 635l9 -43v35zM558 600
l-26 -43q18 16 26 43zM327 592l8 -43v35zM386 584l-16 -27l33 18zM567 575l-27 -34l113 -138l-27 86q-20 46 -59 86zM352 557v-16l18 8zM524 532l43 -61q-15 33 -43 61zM446 506q6 -19 26 -35zM257 266l17 -26l-8 145zM669 377l51 -68q-20 35 -51 68zM575 344l43 -86
q-14 41 -43 86zM233 240l16 -17q-2 10 -16 17zM626 223l18 -8l-10 25zM601 215q13 -55 60 -86q-25 45 -60 86zM292 207l25 -19q-6 13 -25 19zM300 180q7 -16 27 -16zM704 180l43 -43q-14 25 -43 43zM317 154l35 -52q-11 29 -35 52zM378 137l25 -67q0 34 -25 67zM309 121
q12 -25 43 -35zM370 111q0 -19 16 -33zM909 86h18l-8 16zM661 70h16l-8 16zM61 78q2 -12 16 -19zM909 59l-25 -16q23 0 25 16z" />
    <glyph glyph-name="l" unicode="l" horiz-adv-x="497" 
d="M249 1440h109l8 -88l10 -1137l-18 -49l135 -49l10 -88l-78 -29l-370 20q4 68 88 86l-39 166l20 973v-1100h47l21 351l-21 137l31 174l-39 420q-16 63 -78 86l-59 69l68 29q69 4 155 29zM85 1352l39 -39q-10 22 -39 39zM241 1343l-20 -38l38 18q-2 12 -18 20zM171 1245
v-18l21 8zM192 1227l-21 -31l21 -68v99zM280 838l8 -50v39zM241 535l29 77v176zM319 729v-145l18 -29v145zM298 604l11 -49v39zM298 389l11 -49v39zM319 272l8 -49l10 39zM348 254l10 -59v49zM202 223l-20 -78l39 50zM192 127v-68l29 19q-9 26 -29 49zM231 127l10 -39l8 39
h-18zM309 127l18 -39q-2 23 -18 39zM348 117q4 -19 18 -29zM397 106l28 -28q-8 20 -28 28z" />
    <glyph glyph-name="m" unicode="m" horiz-adv-x="1626" 
d="M1150 918h140l32 -17l90 -90l41 -139l-8 -33l17 -90v-205l-25 -65l8 -74l90 -99h49v-73l-188 -17l-16 25l-246 -16l-25 41q45 55 123 65l66 295l-33 -57l-16 204q-11 66 -58 123l-73 17l-74 -8l-107 -82l-32 -131l57 -279l-57 172l-17 -25l25 -114q16 -64 65 -115l74 -57
l-25 -33l-139 -8l-82 -33l8 33l-188 -25l-66 33l17 74q59 2 123 41l41 41l-17 32l17 123l-17 25l-24 155l-115 246l-82 25l-123 -123l-41 -328l17 -155l106 -74l49 -74l-139 -8l25 -16l-99 -25l-82 8l-73 25l-74 -8l-41 73l66 8q53 23 65 82l25 500l-107 74l-49 65l49 25
l123 8l107 41l24 -49l98 25l164 8l33 16l90 -24q68 -19 123 -74l25 -25l-25 82l57 -49q187 68 254 107zM429 868l17 -16l24 16h-41zM192 836l24 -17q-6 12 -24 17zM1273 836l49 -58q-18 33 -49 58zM929 819l-33 -41q25 15 33 41zM266 811l-17 -41q17 18 17 41zM1101 811
l41 -8l16 8h-57zM675 803l17 -17q-2 9 -17 17zM1371 803l66 -139l-16 90q-15 26 -50 49zM1068 795l-98 -66l-82 -74l8 -65l25 41l90 74l131 24l98 -57l-57 90zM700 786l16 -16q-2 8 -16 16zM872 770h16l-8 16zM814 778q7 -16 25 -33zM225 770l-9 -57l25 41q-2 8 -16 16z
M274 770l-17 -65q17 28 17 65zM716 754l17 -25l-9 41zM1339 754l16 -33l-8 49zM626 754l41 -107l8 49l33 -49v58q-37 28 -82 49zM741 754l16 -41q0 22 -16 41zM347 737l-8 -32l25 16q-2 10 -17 16zM290 721l-8 -66l16 17v41zM806 721l33 -57q-10 30 -33 57zM1257 721
l16 -115q-2 53 -16 115zM913 705l-25 -33q21 10 25 33zM1298 705l16 -66q-2 33 -16 66zM1290 647l24 -172v148zM1412 614v-49l17 41zM323 590l-16 -115l8 -106l16 114zM1412 557l9 -156l8 140q-2 10 -17 16zM839 549l-8 -49l16 32zM1339 500q0 -25 16 -49zM241 369l8 -25
l17 139zM782 434l24 -82q-2 43 -24 82zM1339 393l16 -106l8 90zM274 377l-17 -123l9 -16l24 122q-2 11 -16 17zM847 344l-16 -49l16 -16v65zM241 311l8 -41v33zM307 303l-9 -65l17 -25zM806 262l-8 -65l25 49q-2 8 -17 16zM1331 262l-9 -82l17 8l8 58q-2 8 -16 16zM880 246
l8 -49v41zM1371 246v-17l17 9zM1396 238l-25 -50q21 19 25 50zM331 205q4 -17 16 -25zM266 180l-25 -49q20 19 25 49zM1396 180l-25 -49q19 19 25 49zM798 164l8 -41l-16 -8l24 32zM1437 156l16 -33l9 24zM315 147l41 -57q-13 29 -41 57zM765 115l-16 -66l41 17zM1183 115
l-33 -33q23 10 33 33zM1331 115l-33 -49q24 18 33 49zM167 106l17 -16q-2 8 -17 16zM716 106l-8 -24h25q-3 16 -17 24zM413 98l16 -16q-2 8 -16 16zM872 98l8 -32l8 32h-16zM995 74l16 -17q-2 11 -16 17zM798 66l16 -17q-2 8 -16 17zM585 49l74 -16q-33 10 -74 16zM683 49
l17 -16l33 16h-50z" />
    <glyph glyph-name="n" unicode="n" horiz-adv-x="1062" 
d="M288 844q43 -15 49 -66l49 41l271 25l90 -25l98 -106l25 -181l-17 -188l25 -65l16 65l-16 -180q61 -35 106 -107l-8 -32l-24 8l-9 -17l-172 25l-204 -16v73l106 74l-16 377q0 78 -41 164l-74 24l-90 -8l-107 -106l-16 -385q18 -72 82 -123l74 -66l-49 -24l-123 8l-17 -17
l-155 -16q-66 27 -99 98q66 8 123 66l8 377l-32 155q-66 17 -115 74l123 33l16 -17zM362 778l-25 -33q25 13 25 33zM223 737l16 -8l8 25h-16zM812 729l17 -16l-8 32zM739 729q4 -16 16 -24zM837 713l-8 -25l16 -16zM264 705l-17 -66q14 29 17 66zM657 696q4 -18 16 -32z
M370 688l-16 -33l32 25zM190 672l8 -41v33zM681 623l17 -74q-2 37 -17 74zM837 598l8 -41v33zM681 565l-8 -73l17 -9zM853 492l9 -50v41zM321 467l8 -49v41zM190 377v-66l16 49q-2 11 -16 17zM296 344l8 -41v33zM796 279l16 -33q0 18 -16 33zM288 246l-8 -25l16 -16v33z
M214 238l9 -41v32zM304 131h17l-8 16zM59 82v-33l41 17z" />
    <glyph glyph-name="o" unicode="o" horiz-adv-x="1046" 
d="M425 877l107 -9l90 -32l66 -41l82 -17l49 -65l73 -254v-172l-49 -107l-106 -123l-74 -41l-98 -16l-140 8l25 -48l-82 65l-82 32l-139 90l-41 74l-25 205l41 188l90 131l66 58zM458 852l17 -25l90 9zM393 844l-33 -25l41 8zM434 762l-123 -115l-17 -90l-8 -221l17 -90
l41 -74l-17 172l17 131l73 148l90 90l-122 -172l-25 -90l-8 -222l16 -90l74 -41l98 -8l66 66l82 147l24 90l8 99l-16 98l-74 147zM786 737q2 -20 16 -41zM262 582l8 -50v41zM237 557l-8 -82l16 57zM851 442l-16 -41q14 19 16 41zM704 319l-66 -163l50 82q14 38 16 81z
M851 303l-32 -49q22 18 32 49zM131 295l32 -98q-12 47 -32 98zM196 279l8 -41v32zM245 270v-106l58 -41l-41 49zM704 246l-25 -58q21 25 25 58zM827 229h16l-8 17zM745 197l16 -41q0 22 -16 41zM155 180q23 -39 57 -74zM729 180l-9 -33l25 17q-2 8 -16 16zM810 180l-16 -24
q16 8 16 24zM237 156q6 -23 25 -41zM589 115l-8 -17l25 8zM270 98q10 -18 33 -32zM712 82l-123 -66l115 25l41 41h-33zM458 41q45 -12 99 -16z" />
    <glyph glyph-name="p" unicode="p" horiz-adv-x="1081" 
d="M329 893l57 -25l-8 -65l180 90h148l164 -66l-8 33l16 8l98 -73l66 -82l41 -115l-17 8l-41 115l-65 82l-82 33l66 -91l106 -196l16 -107l-24 -114l41 65v-49l-33 -123l-49 -98l-74 -82l-229 -73h-115l-180 73l-17 -33l9 -139l-25 -131v-106l74 -115l65 -24l-65 73l98 -57
l66 16l24 -32l-65 -66h-492l-49 49l16 33h82l82 123v278l-16 58l-58 720l50 -336v-155l24 229l-24 246l24 -17l-41 90l-90 -8l-33 17l9 82l172 16q55 14 106 41zM558 877l-49 -25l99 25h-50zM255 844l25 -17q-6 13 -25 17zM829 836l24 -33q-8 18 -24 33zM526 803
q8 -12 24 -17zM722 803l41 -25q-16 19 -41 25zM190 795l24 -17l17 8zM878 778l16 -8l-8 25zM542 778l-82 -73l-65 -82l-25 -385l188 -148l132 8l81 74l99 197l-41 254l-33 114l-115 41h-139zM272 770l-25 -33q17 11 25 33zM329 754v-17l16 8zM272 729l8 -41l8 17zM378 729
v-16l17 8zM321 721v-16l16 8zM272 680l8 -41l8 33zM247 672l17 -58v50zM345 672l-24 -58q20 25 24 58zM288 655l8 -41v33zM247 606l8 -254l9 230zM321 598l8 -205l8 115q0 43 -16 90zM1025 582l-8 -25l33 -147v90zM354 549l8 -123v90zM280 541l8 -123v90zM1009 524v-82
l16 -24zM1025 311l-32 -49v-24l57 73h-25zM1034 229l-82 -123l-82 -81l106 90q39 45 58 114zM935 213l-16 -33q14 15 16 33zM1001 213l-66 -107q37 48 66 107zM370 205q0 -19 16 -33zM395 205l41 -82l106 -41l-74 65zM812 205l-65 -99q55 29 65 99zM763 106l-82 -40
q43 12 82 40zM214 74l9 -123v90zM624 16v-16l41 8zM288 -147l17 -213l8 156zM231 -155l16 -148v123zM313 -319l16 -16q-2 8 -16 16zM280 -352l-8 -41l16 8z" />
    <glyph glyph-name="q" unicode="q" horiz-adv-x="1073" 
d="M417 872h106l90 -16l131 -90l140 90l41 -57l-25 -197v-917l25 -74l155 -147l-508 -16l-57 16l25 41l73 8q84 8 99 90l41 115l-17 33v294l-205 -65l50 -25l-82 25l-131 -25l-74 25l-156 131l-41 65l-16 57l41 148v82l-17 -90l-16 16v189l82 122l115 99q57 39 131 73z
M409 848l41 -17l8 17h-49zM359 840q17 -19 41 -25zM474 840l41 -9l16 9h-57zM630 840q14 -25 41 -41zM867 831l25 -81l16 73zM851 815l16 -57l9 41zM433 807l-24 -25l57 25h-33zM638 774l66 -49q-23 31 -66 49zM769 774l-8 -24l24 -9q0 19 -16 33zM531 758l-98 -58l-65 -90
l-50 -106l-8 -139l17 -140l41 -106l114 -41l107 24l115 50l40 106l-32 -25l41 402l-17 24l-98 58q-47 28 -107 41zM269 750l-41 -66q27 29 41 66zM712 725l16 -41q-2 23 -16 41zM753 725l24 -33q-8 19 -24 33zM851 725l-8 -49l16 33zM392 709q-57 -45 -90 -115l-33 -311
l17 -17l32 -114l-32 262l57 196q33 43 49 99zM753 692l16 -16q-2 8 -16 16zM220 659l-8 -24l16 8zM269 643l-8 -25l17 9zM196 635l-25 -82q16 39 25 82zM843 586l8 -99l8 74zM253 545l-16 -107q14 51 16 107zM826 463l9 -41v33zM777 414v-181l17 156q-2 17 -17 25zM138 233
l-8 -32l16 -17v41zM212 143l33 -65q-13 31 -33 65zM712 143l-82 -32l-33 -33l74 33q28 10 41 32zM261 12l25 -32q-8 20 -25 32zM876 -20v-188l16 -156zM851 -208l-8 -91l24 -49zM761 -372l8 -41v33zM900 -389q25 -45 82 -82q-33 43 -82 82zM777 -446l-16 -33l33 8zM851 -446
l-16 -33h41zM900 -446l25 -41q-6 21 -25 41zM908 -495q17 -14 41 -17zM572 -544l9 8l-25 8z" />
    <glyph glyph-name="r" unicode="r" horiz-adv-x="698" 
d="M255 864h90v-65l107 49l139 16l115 -65l-16 -115q-29 -41 -91 -49l-90 65l-106 -24l-74 -82l16 -434l74 -82l82 -25l33 -57l-172 -16l-17 16l-147 8l-57 -24l24 32l-114 8l-17 17l82 82l57 90v344l-32 -33l32 123l-24 57l-33 -24l-41 41h-49l8 90l49 24l49 -32l58 24h-58
l9 8zM321 856l16 -25q-2 17 -16 25zM436 831q-45 -28 -74 -73q45 28 74 73zM321 823l8 -41v33zM681 799l17 -25q-2 17 -17 25zM509 758l17 -25q-2 17 -17 25zM354 741l-25 -49q19 19 25 49zM223 635l8 -49v41zM264 618l8 -24l8 24h-16zM247 373l8 -25l17 107zM190 250l8 -25
l16 107zM264 307l-25 -147l33 49zM206 184l-33 -41q23 15 33 41zM255 160l-49 -74q39 27 49 74zM337 152q2 -19 17 -33zM296 102l17 -16q-2 10 -17 16zM337 94l17 -16q-2 8 -17 16zM132 78l-16 -25h25l8 25h-17zM206 78l-16 -25q16 8 16 25zM296 70l17 -17q-2 10 -17 17z
M485 45l24 -33q-8 19 -24 33zM370 37q6 -12 25 -17zM321 29l-66 -9l115 -16z" />
    <glyph glyph-name="s" unicode="s" horiz-adv-x="708" 
d="M266 926l172 -25l57 -57l57 -33l49 57l41 25l9 -246l-33 -74l-49 66l-74 139l-74 41l-49 -16h-90l-33 -74l66 -131l196 -123l58 25l73 -17l33 -82v-213l-33 -73l-98 -115l-57 -16l-17 24l-98 -8l-164 49l-73 -41l-25 25l-33 -73l-8 343l49 41l33 -33l41 -16l-33 -16
l74 -140l57 -57l164 -41l57 57l17 82l-25 82l-41 66l-65 49l-58 24l-57 50l-33 -25l-8 33l-147 139l-9 82l33 82l82 115zM585 844l8 -33l8 25zM520 811q8 -16 24 -25zM249 803v-17l17 9zM241 778l8 -24l8 24h-16zM511 754l17 -9l-8 25zM536 745l33 -90q-8 47 -33 90z
M159 696l-8 -106l33 -17v58l-17 -17zM225 688l-17 -49l8 -16l17 16v41zM274 606l-8 -24h16zM348 557q24 -29 65 -49zM421 508l17 -16q-2 8 -17 16zM569 483l57 -73l41 -82l-25 106q-28 31 -73 49zM372 426l25 -25q-6 17 -25 25zM413 418l25 -41q-7 22 -25 41zM577 385
l16 -16q-2 8 -16 16zM593 352l49 -98q-16 49 -49 98zM536 328l41 -90l8 -66l16 74q-12 53 -65 82zM85 303l-8 -74l17 9l8 49q-2 10 -17 16zM126 279l49 -99q-20 49 -49 99zM520 262l16 -8l-8 25zM634 229v-65l25 49zM135 205l16 -41q-2 22 -16 41zM544 188l8 -49v41z
M167 156l66 -58q-29 29 -66 58zM175 98q9 -18 33 -32zM552 66l-16 -33q14 14 16 33z" />
    <glyph glyph-name="t" unicode="t" horiz-adv-x="528" 
d="M239 1106h57v-107l-24 -196l73 24l148 -8q-6 -49 -57 -74l-107 -16l107 41h-41q-60 -2 -115 -41l25 -459l40 -114l99 16l65 33l17 -82l-17 -49l-106 -49l-139 -25l-66 49l-57 123l16 16l-25 115l25 98l-16 -32v213l-17 -33l17 123l-33 16l-33 66l-49 32l57 9l82 73z
M239 868l16 -24q-2 16 -16 24zM108 713l16 -33l17 33h-33zM264 360q2 -45 16 -90zM198 221l16 -16l17 33v106zM108 303v-147l65 -107l-73 107v123zM272 229l24 -32q-4 18 -24 32zM485 147q-33 -18 -41 -57q28 21 41 57zM362 123l16 -17l8 9zM305 66l32 -41q-4 28 -32 41z
M362 66l-8 -41l49 16zM206 57l49 -41q-18 23 -49 41z" />
    <glyph glyph-name="u" unicode="u" horiz-adv-x="1062" 
d="M83 901l58 -24l90 24l90 -24l49 -50l-16 -548l16 -91l148 -82l73 -8l90 49l58 58l-25 82l-33 286l66 -303v410l-25 90l-65 25l-74 49l90 41l123 -17l-25 17l91 16q51 -10 57 -65l8 -107l-33 -401l17 -90l90 -107l-17 -33l74 -32v-66l-246 8l-65 33l-16 25l-140 -50
l-98 -16h-107l-90 25l-57 57l-41 74l-25 82v213l17 204l-25 99l-139 90zM788 893l49 -16l16 16h-65zM345 827l-16 -65q16 29 16 65zM698 827l24 -24q-6 16 -24 24zM731 827l40 -49q-12 31 -40 49zM821 827l24 -65l8 57zM157 770l25 -25q-6 17 -25 25zM206 745l17 -24
q-2 16 -17 24zM821 737v-49l24 41zM206 696l8 -49v41zM829 680v-131l16 115q-2 10 -16 16zM247 598l8 -25l17 91zM190 614l-8 -155l16 -131l8 155zM239 451l8 -82l17 180zM812 393l-16 -90l8 -33l17 90zM755 270l16 -57q-2 29 -16 57zM313 197l16 -66q-4 35 -16 66zM280 188
v-57l16 41q-2 8 -16 16zM788 98l16 49l-8 17zM960 147q14 -20 41 -32zM378 139q49 -51 123 -65zM272 131l8 -33l8 25zM288 106l41 -32q-14 18 -41 32zM960 82q18 -27 49 -41zM771 74q9 -17 25 -25zM829 41l8 -16l16 41z" />
    <glyph glyph-name="v" unicode="v" horiz-adv-x="954" 
d="M2 850l336 -8l78 -45l-39 -23l-76 -8l15 -70l198 -420l201 398l-25 84l-67 16l-8 37l22 16l154 23h123l22 -23q-10 -71 -92 -84l-62 -100l-282 -612v-31q-47 25 -62 84l-38 61l16 -61v-70l-16 9l-138 391l-123 237q-14 56 -69 99l-62 8l-14 22zM86 827v-22l31 22h-31z
M39 819l16 -14q-2 10 -16 14zM897 811l17 -23q-5 17 -17 23zM737 758l15 -15l8 31h-14zM715 766v-47l14 31zM148 750l14 -45l8 38zM246 705l16 -17q-2 10 -16 17zM148 682l14 -23q-2 15 -14 23zM254 635q4 -14 16 -23zM240 590l6 -39v31zM729 573l-153 -321l22 8l117 238
q12 37 14 75zM240 543l14 -23q-2 17 -14 23zM240 512l14 -29q-2 17 -14 29zM377 506l39 -123q-10 59 -39 123zM400 383q2 -51 22 -107zM477 313l-8 -22l14 -8zM539 291l-17 -31q15 14 17 31zM408 276l14 -47q-2 23 -14 47zM469 238l-8 -39l16 8zM346 229q8 -49 31 -98z
M385 221q6 -33 23 -59zM461 176v-70l16 56q-2 8 -16 14zM492 123l8 -39l8 31z" />
    <glyph glyph-name="w" unicode="w" horiz-adv-x="1368" 
d="M17 827h139l115 -24l81 8l17 -25l-33 -106l-16 -123l65 -213l41 -33l115 221l33 107l98 172l65 16l17 -16l-8 -90l32 -49l25 -123l115 -303l41 41l49 90l8 65l-16 -24l-9 16l107 295l-90 16l-25 58l33 24l115 -8l65 -24l25 24q51 -2 82 -49l-140 -106l-41 -99l25 17
l16 -17l-73 -114l-131 -287l-41 -164h-74l-41 106l-8 -32l-49 82l-17 123l-57 213q-2 43 -49 49l-189 -508l-73 -33l-50 90l-172 524l-49 91l-98 40q2 39 25 82zM721 819l-8 -74l33 66zM287 737l24 -98l25 98h-49zM164 721l25 -33q-4 21 -25 33zM246 705l33 -140l-8 131z
M172 688l17 -33q-4 19 -17 33zM156 672l74 -213l-33 114zM844 369l16 -50q-2 25 -16 50zM320 360l-17 -32l25 -17l8 17zM451 287l-17 -49q15 18 17 49zM877 262v-98l24 33zM852 213q4 -39 25 -74zM869 57l-17 -32l8 -17l33 41zM795 57l16 -32q-10 12 -16 32z" />
    <glyph glyph-name="x" unicode="x" horiz-adv-x="1052" 
d="M131 840h254l106 -25l-57 -57l-41 -17l131 -188l197 147l24 41l-106 58l82 32l229 -8l49 17l17 -49l-181 -74l-32 -33l24 8l-65 -65l-25 -99v-131l17 -106l41 -82l114 -115l131 -57l-24 -33l-238 8l49 -32h-196l32 16l-57 16l-24 49h40l58 33l-58 66l-40 90l-74 90
l-49 -25l-123 -139l-41 -74l65 -49l25 -49l-41 -16l-320 16v49l25 33l57 -16l82 24l-32 17l73 57l49 74l132 123l16 -17l16 25l-164 205l-81 139l-82 49l-74 8l8 41zM360 815l17 -33l24 33h-41zM467 823l16 -32q0 18 -16 32zM172 815l41 -8l16 8h-57zM401 799q4 -17 17 -25z
M139 791q12 -15 33 -17zM360 741l25 9l-33 8zM270 717l25 -41l8 57zM360 692l-8 -24l17 -17v33zM418 692q0 -16 16 -33zM393 618q6 -28 25 -57zM721 594h24v24zM319 586l17 -33q-4 18 -17 33zM590 586l-8 -25l16 8zM721 578l-82 -115l57 -98l25 73l8 115zM442 561l17 -41
q-2 21 -17 41zM360 520l25 -41q-6 23 -25 41zM459 512q8 -39 32 -82zM549 414q2 -62 49 -107zM663 397l50 -90q-21 45 -50 90zM582 340l16 -8l-8 24zM647 274l66 -122q-19 59 -66 122zM704 242l17 -9l-8 25zM803 176q12 -39 41 -74zM754 119l-25 -66q25 27 25 66zM803 119
q2 -33 24 -58zM770 78l16 -17q-2 9 -16 17zM868 70q8 -13 25 -17zM770 53q8 -12 25 -16zM688 12l41 -8l16 8h-57z" />
    <glyph glyph-name="y" unicode="y" horiz-adv-x="954" 
d="M62 823l174 -22l24 14h99l14 -53l-98 -37l36 -68l123 -303l68 -47l45 53l106 236l76 115l-106 51l30 61l220 -8l84 -22l-62 -60l-76 -39l-98 -129l-416 -945l-16 -91l-53 -61l-82 -31l-23 17l-76 14l-61 107l143 22l62 53l98 138l107 232l-107 340l-67 84l-62 166l-53 76
l-68 39q-41 8 -53 53q25 31 68 45zM342 793l23 -15q-6 10 -23 15zM819 778l-37 -16l-8 -29l23 6q22 15 22 39zM858 756l-16 -31q14 12 16 31zM146 748q6 -11 22 -15zM199 748l31 -37q-7 22 -31 37zM260 733l23 -47q-8 23 -23 47zM766 725l-14 -45q14 18 14 45zM813 725
l-16 -23q14 7 16 23zM191 717l-23 -23l23 -45l16 23zM782 686v-14l15 8zM342 649l23 -76q-17 35 -23 76zM260 635l15 -39q-2 20 -15 39zM275 565l22 -76q-4 37 -22 76zM221 528q2 -32 15 -69zM600 338h15l-7 16zM412 338l14 -37q-2 21 -14 37zM342 301l8 -39v31zM412 270
v-61l14 47q-2 6 -14 14zM471 248l17 -31q-2 16 -17 31zM365 164l8 -45v37zM426 -32l-8 -37l16 22zM404 -83l-39 -70l-15 -59l37 67q13 25 17 62zM244 -305l-37 -67l59 45q-6 16 -22 22zM236 -440l24 6l-16 9zM39 -448l8 -31l31 31h-39zM260 -479l-76 -67q48 20 76 67z
M154 -516l14 -16l8 8z" />
    <glyph glyph-name="z" unicode="z" horiz-adv-x="802" 
d="M378 887l78 -8l-24 -19h247l86 19l27 -19l-16 -43l-62 -51l-422 -672l285 8l129 140l43 120l35 -26l8 -27l-27 -180l19 -70l-19 -59l-110 43l-137 -27l-175 27l35 -27l-43 -16l-86 8l62 8l-148 11l-94 -19l-43 70l86 155l180 173l258 395l-153 -17l102 33l-43 10
l-223 -43l-51 -69l-35 -78l-62 -59l-16 75l43 191q27 33 78 35l102 -19zM225 817q2 -12 16 -16zM706 809l-16 -51l32 43zM620 793l-35 -43q25 14 35 43zM171 784l-16 -69q16 30 16 69zM550 784l-24 -61l51 51zM663 784l-78 -147l62 61q14 39 16 86zM577 750l-16 -27
q16 8 16 27zM456 395l-8 -24l16 8zM233 344l-70 -68l-43 -69q96 102 113 137zM362 276l-35 -61q25 27 35 61zM198 233l-35 -53q27 19 35 53zM104 207l-19 -35q17 14 19 35zM112 180l-27 -43q21 17 27 43zM77 172l-8 -27l16 11zM147 164l-35 -43q23 14 35 43zM655 145
l-19 -32q17 14 19 32zM206 129l-43 -59q35 18 43 59zM77 51l27 -43q-4 25 -27 43zM550 51l54 -16l24 16h-78z" />
    <glyph glyph-name="braceleft" unicode="{" horiz-adv-x="1024" 
d="M580 1446l-16 -49l49 41l156 -8l-41 -41l-74 -33l-33 -41l33 -25l-98 -49l-8 -188l-17 -90l8 -99l-32 17l-17 -197l-8 25l-82 -66l107 -82l-25 -16l25 -33l57 -147l8 -99l-16 -270l33 -65l188 -139l-41 -9l-90 25l-25 -16l-98 32l-49 41l-16 -131l-9 140l-57 98l-16 -25
l-25 123v204l16 82l33 -73l-8 188l-33 74l-57 49l-74 33l-16 41l16 16l82 8l33 74l-8 57l16 17v106l66 361l41 49l65 41zM654 1413l-16 -24l41 16zM531 1356l-33 -41l33 8l41 33h-41zM531 1290l17 -8l24 16l-24 9zM589 1307l-33 -41l41 8l33 33h-41zM474 1241l8 -41v33z
M490 1200l8 -41v33zM433 1118l8 -41v33zM408 995l-16 -90l8 -33l17 91zM515 905l16 -41q-2 23 -16 41zM408 872q-26 -34 -41 -81zM466 774l-33 -41q29 10 33 41zM367 733l-24 -33q22 9 24 33zM245 676l-17 -25l17 -8l32 33h-32zM310 643l-41 -8l41 -25l16 8zM376 627
l114 -66q-47 37 -114 66zM335 618l49 -57l82 -49l-49 49zM449 496l66 -50q-25 29 -66 50zM466 438l24 -73q-8 36 -24 73zM539 414l-32 -8l41 -164l8 73zM408 381v-164l17 16l16 74zM367 315l33 -204l-8 114zM507 274l8 -114l33 -99l-9 123q-10 45 -32 90zM441 184l17 -106
q0 49 -17 106zM490 78l17 -58q-2 29 -17 58zM523 61l8 -41v33zM523 -12l16 -74q-4 37 -16 74zM556 -77l41 -41q-15 24 -41 41zM482 -86q4 -28 25 -57zM605 -102l66 -57q-27 30 -66 57zM523 -110q31 -55 98 -74z" />
    <glyph glyph-name="bar" unicode="|" horiz-adv-x="1024" 
d="M497 1348l106 -25l33 -98l-16 -500l8 -131l-17 49l-8 -123l25 -819q-19 -43 -74 -49l-98 33l-8 90l49 107l8 1007q-23 397 -8 459zM562 1315l33 -90l8 -90l8 114q-16 39 -49 66zM636 487l16 -180q-12 80 -16 180zM571 37l-9 -98l25 -74l8 99zM677 12l8 -57l-8 -16v73z
M562 -143l33 -115q-12 56 -33 115zM489 -176l-33 -98q20 -37 65 -65l-49 73zM489 -225q10 -47 41 -90zM579 -299l8 -32l8 32h-16z" />
    <glyph glyph-name="braceright" unicode="}" horiz-adv-x="1024" 
d="M325 1401l107 -17l172 17l90 -287l-33 -74l25 -98l-9 -65l33 -172l-24 -25l73 -57h41l-73 -115l-9 -41l17 -49l-25 -17l-57 -278l16 -90l-41 -73l8 -41l33 32l33 82l16 106l-8 107l25 -90l-17 -107l-73 -155l-58 -66l-106 -73l-17 24h-98l-90 -24h-66l99 82l147 49l66 49
l-17 81l25 90v123l25 197l-41 25l65 106l66 57l-107 107l-8 442l-16 90l-91 33l-221 -8l25 49l156 -8l-74 41l-33 33h41zM571 1384l-49 -16l57 -41l16 49zM374 1352l82 -49l82 -17l-65 57zM555 1294q14 -28 40 -49zM546 1221l17 -66q-2 33 -17 66zM661 1155l8 -49l8 33z
M571 1073v-139l33 -74l-9 115zM653 1032l8 -114l16 -25q0 65 -24 139zM563 909l8 -131l49 -57l-25 98zM636 737l33 -73q-10 36 -33 73zM710 614l-41 -90q29 41 41 90zM751 614l-90 -139l33 -8l49 98l49 41zM620 582l-16 -25l32 16zM612 549l-74 -82l25 -25q43 45 49 107z
M702 442l-8 -41l24 25q-2 8 -16 16zM587 360l8 -81l25 155zM636 369l-32 -287l8 -25l33 148v98zM686 172l8 -25l-17 -57zM612 -16l8 -24l25 146zM563 -16l-8 -82l49 33zM604 -73l-17 -49q15 20 17 49zM620 -73l8 -25l8 17zM522 -81l16 -25q-2 16 -16 25zM473 -122l-41 -25
q24 6 41 25zM505 -139v-16l41 8zM555 -147l-50 -41q27 14 50 41zM350 -155l-90 -57l16 -25l107 57z" />
    <glyph glyph-name="asciitilde" unicode="~" horiz-adv-x="1024" 
d="M553 823q69 -10 98 -82l65 -32l189 114l-25 -41l58 17l-33 -33l-25 -82l-65 -41l-156 -41l-311 66l-25 16l-164 -74l25 33l-123 -49l-8 33l90 123l123 49l57 -17l164 9zM356 791l172 -58l-65 49zM643 717l49 -25l16 17zM331 700l50 -32l24 16z" />
    <glyph glyph-name="Adieresis" unicode="&#xc4;" horiz-adv-x="1366" 
 />
    <glyph glyph-name="Aring" unicode="&#xc5;" horiz-adv-x="1366" 
 />
    <glyph glyph-name="Ccedilla" unicode="&#xc7;" horiz-adv-x="1479" 
 />
    <glyph glyph-name="Eacute" unicode="&#xc9;" horiz-adv-x="1366" 
 />
    <glyph glyph-name="Ntilde" unicode="&#xd1;" horiz-adv-x="1479" 
 />
    <glyph glyph-name="Odieresis" unicode="&#xd6;" horiz-adv-x="1593" 
 />
    <glyph glyph-name="Udieresis" unicode="&#xdc;" horiz-adv-x="1479" 
 />
    <glyph glyph-name="aacute" unicode="&#xe1;" 
 />
    <glyph glyph-name="agrave" unicode="&#xe0;" 
 />
    <glyph glyph-name="acircumflex" unicode="&#xe2;" 
 />
    <glyph glyph-name="adieresis" unicode="&#xe4;" 
 />
    <glyph glyph-name="atilde" unicode="&#xe3;" 
 />
    <glyph glyph-name="aring" unicode="&#xe5;" 
 />
    <glyph glyph-name="ccedilla" unicode="&#xe7;" horiz-adv-x="1024" 
 />
    <glyph glyph-name="eacute" unicode="&#xe9;" 
 />
    <glyph glyph-name="egrave" unicode="&#xe8;" 
 />
    <glyph glyph-name="ecircumflex" unicode="&#xea;" 
 />
    <glyph glyph-name="edieresis" unicode="&#xeb;" 
 />
    <glyph glyph-name="iacute" unicode="&#xed;" horiz-adv-x="569" 
 />
    <glyph glyph-name="igrave" unicode="&#xec;" horiz-adv-x="569" 
 />
    <glyph glyph-name="icircumflex" unicode="&#xee;" horiz-adv-x="569" 
 />
    <glyph glyph-name="idieresis" unicode="&#xef;" horiz-adv-x="569" 
 />
    <glyph glyph-name="ntilde" unicode="&#xf1;" 
 />
    <glyph glyph-name="oacute" unicode="&#xf3;" 
 />
    <glyph glyph-name="ograve" unicode="&#xf2;" 
 />
    <glyph glyph-name="ocircumflex" unicode="&#xf4;" 
 />
    <glyph glyph-name="odieresis" unicode="&#xf6;" 
 />
    <glyph glyph-name="otilde" unicode="&#xf5;" 
 />
    <glyph glyph-name="uacute" unicode="&#xfa;" 
 />
    <glyph glyph-name="ugrave" unicode="&#xf9;" 
 />
    <glyph glyph-name="ucircumflex" unicode="&#xfb;" 
 />
    <glyph glyph-name="udieresis" unicode="&#xfc;" 
 />
    <glyph glyph-name="dagger" unicode="&#x2020;" 
 />
    <glyph glyph-name="degree" unicode="&#xb0;" horiz-adv-x="819" 
 />
    <glyph glyph-name="cent" unicode="&#xa2;" 
 />
    <glyph glyph-name="sterling" unicode="&#xa3;" 
 />
    <glyph glyph-name="section" unicode="&#xa7;" 
 />
    <glyph glyph-name="bullet" unicode="&#x2022;" horiz-adv-x="717" 
 />
    <glyph glyph-name="paragraph" unicode="&#xb6;" horiz-adv-x="1100" 
 />
    <glyph glyph-name="germandbls" unicode="&#xdf;" horiz-adv-x="1251" 
 />
    <glyph glyph-name="registered" unicode="&#xae;" horiz-adv-x="1509" 
 />
    <glyph glyph-name="copyright" unicode="&#xa9;" horiz-adv-x="1509" 
 />
    <glyph glyph-name="trademark" unicode="&#x2122;" horiz-adv-x="2048" 
 />
    <glyph glyph-name="acute" unicode="&#xb4;" horiz-adv-x="682" 
 />
    <glyph glyph-name="dieresis" unicode="&#xa8;" horiz-adv-x="682" 
 />
    <glyph glyph-name="notequal" unicode="&#x2260;" horiz-adv-x="1124" 
 />
    <glyph glyph-name="AE" unicode="&#xc6;" horiz-adv-x="2048" 
 />
    <glyph glyph-name="Oslash" unicode="&#xd8;" horiz-adv-x="1593" 
 />
    <glyph glyph-name="infinity" unicode="&#x221e;" horiz-adv-x="1460" 
 />
    <glyph glyph-name="plusminus" unicode="&#xb1;" horiz-adv-x="1124" 
 />
    <glyph glyph-name="lessequal" unicode="&#x2264;" horiz-adv-x="1124" 
 />
    <glyph glyph-name="greaterequal" unicode="&#x2265;" horiz-adv-x="1124" 
 />
    <glyph glyph-name="yen" unicode="&#xa5;" 
 />
    <glyph glyph-name="mu1" unicode="&#xb5;" horiz-adv-x="1180" 
 />
    <glyph glyph-name="partialdiff" unicode="&#x2202;" horiz-adv-x="1012" 
 />
    <glyph glyph-name="summation" unicode="&#x2211;" horiz-adv-x="1460" 
 />
    <glyph glyph-name="product" unicode="&#x220f;" horiz-adv-x="1686" 
 />
    <glyph glyph-name="pi1" horiz-adv-x="1124" 
 />
    <glyph glyph-name="integral" unicode="&#x222b;" horiz-adv-x="561" 
 />
    <glyph glyph-name="ordfeminine" unicode="&#xaa;" horiz-adv-x="758" 
 />
    <glyph glyph-name="ordmasculine" unicode="&#xba;" horiz-adv-x="748" 
 />
    <glyph glyph-name="Ohm" unicode="&#x2126;" horiz-adv-x="1573" 
 />
    <glyph glyph-name="ae" unicode="&#xe6;" horiz-adv-x="1821" 
 />
    <glyph glyph-name="oslash" unicode="&#xf8;" horiz-adv-x="1251" 
 />
    <glyph glyph-name="questiondown" unicode="&#xbf;" horiz-adv-x="1251" 
 />
    <glyph glyph-name="exclamdown" unicode="&#xa1;" horiz-adv-x="682" 
 />
    <glyph glyph-name="logicalnot" unicode="&#xac;" horiz-adv-x="1196" 
 />
    <glyph glyph-name="radical" unicode="&#x221a;" horiz-adv-x="1124" 
 />
    <glyph glyph-name="florin" unicode="&#x192;" 
 />
    <glyph glyph-name="approxequal" unicode="&#x2248;" horiz-adv-x="1124" 
 />
    <glyph glyph-name="uni2206" unicode="&#x2206;" horiz-adv-x="1253" 
 />
    <glyph glyph-name="guillemotleft" unicode="&#xab;" 
 />
    <glyph glyph-name="guillemotright" unicode="&#xbb;" 
 />
    <glyph glyph-name="ellipsis" unicode="&#x2026;" horiz-adv-x="2048" 
 />
    <glyph glyph-name="Agrave" unicode="&#xc0;" horiz-adv-x="1366" 
 />
    <glyph glyph-name="Atilde" unicode="&#xc3;" horiz-adv-x="1366" 
 />
    <glyph glyph-name="Otilde" unicode="&#xd5;" horiz-adv-x="1593" 
 />
    <glyph glyph-name="OE" unicode="&#x152;" horiz-adv-x="2048" 
 />
    <glyph glyph-name="oe" unicode="&#x153;" horiz-adv-x="1933" 
 />
    <glyph glyph-name="endash" unicode="&#x2013;" 
 />
    <glyph glyph-name="emdash" unicode="&#x2014;" horiz-adv-x="2048" 
 />
    <glyph glyph-name="quotedblleft" unicode="&#x201c;" horiz-adv-x="682" 
 />
    <glyph glyph-name="quotedblright" unicode="&#x201d;" horiz-adv-x="682" 
 />
    <glyph glyph-name="quoteleft" unicode="&#x2018;" horiz-adv-x="455" 
 />
    <glyph glyph-name="quoteright" unicode="&#x2019;" horiz-adv-x="455" 
 />
    <glyph glyph-name="divide" unicode="&#xf7;" horiz-adv-x="1124" 
 />
    <glyph glyph-name="lozenge" unicode="&#x25ca;" horiz-adv-x="1012" 
 />
    <glyph glyph-name="ydieresis" unicode="&#xff;" horiz-adv-x="1024" 
 />
    <glyph glyph-name="Ydieresis" unicode="&#x178;" horiz-adv-x="1366" 
 />
    <glyph glyph-name="fraction" unicode="&#x2044;" horiz-adv-x="342" 
 />
    <glyph glyph-name="fraction" unicode="&#x2215;" horiz-adv-x="342" 
 />
    <glyph glyph-name="Euro" unicode="&#x20ac;" 
 />
    <glyph glyph-name="guilsinglleft" unicode="&#x2039;" horiz-adv-x="682" 
 />
    <glyph glyph-name="guilsinglright" unicode="&#x203a;" horiz-adv-x="682" 
 />
    <glyph glyph-name="fi" unicode="&#xf001;" horiz-adv-x="1024" 
 />
    <glyph glyph-name="fi" unicode="&#xfb01;" horiz-adv-x="1024" 
 />
    <glyph glyph-name="fl" unicode="&#xf002;" horiz-adv-x="1024" 
 />
    <glyph glyph-name="fl" unicode="&#xfb02;" horiz-adv-x="1024" 
 />
    <glyph glyph-name="daggerdbl" unicode="&#x2021;" 
 />
    <glyph glyph-name="periodcentered" unicode="&#xb7;" horiz-adv-x="569" 
 />
    <glyph glyph-name="periodcentered" unicode="&#x2219;" horiz-adv-x="569" 
 />
    <glyph glyph-name="quotesinglbase" unicode="&#x201a;" horiz-adv-x="455" 
 />
    <glyph glyph-name="quotedblbase" unicode="&#x201e;" horiz-adv-x="682" 
 />
    <glyph glyph-name="perthousand" unicode="&#x2030;" horiz-adv-x="2048" 
 />
    <glyph glyph-name="Acircumflex" unicode="&#xc2;" horiz-adv-x="1366" 
 />
    <glyph glyph-name="Ecircumflex" unicode="&#xca;" horiz-adv-x="1366" 
 />
    <glyph glyph-name="Aacute" unicode="&#xc1;" horiz-adv-x="1366" 
 />
    <glyph glyph-name="Edieresis" unicode="&#xcb;" horiz-adv-x="1366" 
 />
    <glyph glyph-name="Egrave" unicode="&#xc8;" horiz-adv-x="1366" 
 />
    <glyph glyph-name="Iacute" unicode="&#xcd;" horiz-adv-x="569" 
 />
    <glyph glyph-name="Icircumflex" unicode="&#xce;" horiz-adv-x="569" 
 />
    <glyph glyph-name="Idieresis" unicode="&#xcf;" horiz-adv-x="569" 
 />
    <glyph glyph-name="Igrave" unicode="&#xcc;" horiz-adv-x="569" 
 />
    <glyph glyph-name="Oacute" unicode="&#xd3;" horiz-adv-x="1593" 
 />
    <glyph glyph-name="Ocircumflex" unicode="&#xd4;" horiz-adv-x="1593" 
 />
    <glyph glyph-name="Ograve" unicode="&#xd2;" horiz-adv-x="1593" 
 />
    <glyph glyph-name="Uacute" unicode="&#xda;" horiz-adv-x="1479" 
 />
    <glyph glyph-name="Ucircumflex" unicode="&#xdb;" horiz-adv-x="1479" 
 />
    <glyph glyph-name="Ugrave" unicode="&#xd9;" horiz-adv-x="1479" 
 />
    <glyph glyph-name="dotlessi" unicode="&#x131;" horiz-adv-x="569" 
 />
    <glyph glyph-name="circumflex" unicode="&#x2c6;" horiz-adv-x="682" 
 />
    <glyph glyph-name="tilde" unicode="&#x2dc;" horiz-adv-x="682" 
 />
    <glyph glyph-name="macron" unicode="&#x2c9;" horiz-adv-x="682" 
 />
    <glyph glyph-name="breve" unicode="&#x2d8;" horiz-adv-x="682" 
 />
    <glyph glyph-name="dotaccent" unicode="&#x2d9;" horiz-adv-x="682" 
 />
    <glyph glyph-name="ring" unicode="&#x2da;" horiz-adv-x="682" 
 />
    <glyph glyph-name="cedilla" unicode="&#xb8;" horiz-adv-x="682" 
 />
    <glyph glyph-name="hungarumlaut" unicode="&#x2dd;" horiz-adv-x="682" 
 />
    <glyph glyph-name="ogonek" unicode="&#x2db;" horiz-adv-x="682" 
 />
    <glyph glyph-name="caron" unicode="&#x2c7;" horiz-adv-x="682" 
 />
    <glyph glyph-name="Lslash" unicode="&#x141;" 
 />
    <glyph glyph-name="lslash" unicode="&#x142;" horiz-adv-x="455" 
 />
    <glyph glyph-name="Scaron" unicode="&#x160;" horiz-adv-x="1366" 
 />
    <glyph glyph-name="scaron" unicode="&#x161;" horiz-adv-x="1024" 
 />
    <glyph glyph-name="Zcaron" unicode="&#x17d;" horiz-adv-x="1251" 
 />
    <glyph glyph-name="zcaron" unicode="&#x17e;" horiz-adv-x="1024" 
 />
    <glyph glyph-name="brokenbar" unicode="&#xa6;" horiz-adv-x="532" 
 />
    <glyph glyph-name="Eth" unicode="&#xd0;" horiz-adv-x="1479" 
 />
    <glyph glyph-name="eth" unicode="&#xf0;" 
 />
    <glyph glyph-name="Yacute" unicode="&#xdd;" horiz-adv-x="1366" 
 />
    <glyph glyph-name="yacute" unicode="&#xfd;" horiz-adv-x="1024" 
 />
    <glyph glyph-name="Thorn" unicode="&#xde;" horiz-adv-x="1366" 
 />
    <glyph glyph-name="thorn" unicode="&#xfe;" 
 />
    <glyph glyph-name="minus" unicode="&#x2212;" horiz-adv-x="1196" 
 />
    <glyph glyph-name="multiply" unicode="&#xd7;" horiz-adv-x="1196" 
 />
    <glyph glyph-name="onesuperior" unicode="&#xb9;" horiz-adv-x="682" 
 />
    <glyph glyph-name="twosuperior" unicode="&#xb2;" horiz-adv-x="682" 
 />
    <glyph glyph-name="threesuperior" unicode="&#xb3;" horiz-adv-x="682" 
 />
    <glyph glyph-name="onehalf" unicode="&#xbd;" horiz-adv-x="1708" 
 />
    <glyph glyph-name="onequarter" unicode="&#xbc;" horiz-adv-x="1708" 
 />
    <glyph glyph-name="threequarters" unicode="&#xbe;" horiz-adv-x="1708" 
 />
    <glyph glyph-name="franc" unicode="&#x20a3;" 
 />
    <glyph glyph-name="Gbreve" unicode="&#x11e;" horiz-adv-x="1593" 
 />
    <glyph glyph-name="gbreve" unicode="&#x11f;" 
 />
    <glyph glyph-name="Idotaccent" unicode="&#x130;" horiz-adv-x="569" 
 />
    <glyph glyph-name="Scedilla" unicode="&#x15e;" horiz-adv-x="1366" 
 />
    <glyph glyph-name="scedilla" unicode="&#x15f;" horiz-adv-x="1024" 
 />
    <glyph glyph-name="Cacute" unicode="&#x106;" horiz-adv-x="1479" 
 />
    <glyph glyph-name="cacute" unicode="&#x107;" horiz-adv-x="1024" 
 />
    <glyph glyph-name="Ccaron" unicode="&#x10c;" horiz-adv-x="1479" 
 />
    <glyph glyph-name="ccaron" unicode="&#x10d;" horiz-adv-x="1024" 
 />
    <glyph glyph-name="dmacron" unicode="&#x111;" 
 />
    <glyph glyph-name="overscore" unicode="&#xaf;" horiz-adv-x="1131" 
 />
    <glyph glyph-name="middot" horiz-adv-x="682" 
 />
    <glyph glyph-name="Abreve" unicode="&#x102;" horiz-adv-x="1366" 
 />
    <glyph glyph-name="abreve" unicode="&#x103;" 
 />
    <glyph glyph-name="Aogonek" unicode="&#x104;" horiz-adv-x="1366" 
 />
    <glyph glyph-name="aogonek" unicode="&#x105;" 
 />
    <glyph glyph-name="Dcaron" unicode="&#x10e;" horiz-adv-x="1479" 
 />
    <glyph glyph-name="dcaron" unicode="&#x10f;" horiz-adv-x="1259" 
 />
    <glyph glyph-name="Dslash" unicode="&#x110;" horiz-adv-x="1479" 
 />
    <glyph glyph-name="Eogonek" unicode="&#x118;" horiz-adv-x="1366" 
 />
    <glyph glyph-name="eogonek" unicode="&#x119;" 
 />
    <glyph glyph-name="Ecaron" unicode="&#x11a;" horiz-adv-x="1366" 
 />
    <glyph glyph-name="ecaron" unicode="&#x11b;" 
 />
    <glyph glyph-name="Lacute" unicode="&#x139;" 
 />
    <glyph glyph-name="lacute" unicode="&#x13a;" horiz-adv-x="455" 
 />
    <glyph glyph-name="Lcaron" unicode="&#x13d;" 
 />
    <glyph glyph-name="lcaron" unicode="&#x13e;" horiz-adv-x="597" 
 />
    <glyph glyph-name="Ldot" unicode="&#x13f;" 
 />
    <glyph glyph-name="ldot" unicode="&#x140;" horiz-adv-x="684" 
 />
    <glyph glyph-name="Nacute" unicode="&#x143;" horiz-adv-x="1479" 
 />
    <glyph glyph-name="nacute" unicode="&#x144;" 
 />
    <glyph glyph-name="Ncaron" unicode="&#x147;" horiz-adv-x="1479" 
 />
    <glyph glyph-name="ncaron" unicode="&#x148;" 
 />
    <glyph glyph-name="Odblacute" unicode="&#x150;" horiz-adv-x="1593" 
 />
    <glyph glyph-name="odblacute" unicode="&#x151;" 
 />
    <glyph glyph-name="Racute" unicode="&#x154;" horiz-adv-x="1479" 
 />
    <glyph glyph-name="racute" unicode="&#x155;" horiz-adv-x="682" 
 />
    <glyph glyph-name="Rcaron" unicode="&#x158;" horiz-adv-x="1479" 
 />
    <glyph glyph-name="rcaron" unicode="&#x159;" horiz-adv-x="682" 
 />
    <glyph glyph-name="Sacute" unicode="&#x15a;" horiz-adv-x="1366" 
 />
    <glyph glyph-name="sacute" unicode="&#x15b;" horiz-adv-x="1024" 
 />
    <glyph glyph-name="Tcedilla" unicode="&#x162;" horiz-adv-x="1251" 
 />
    <glyph glyph-name="tcedilla" unicode="&#x163;" horiz-adv-x="569" 
 />
    <glyph glyph-name="Tcaron" unicode="&#x164;" horiz-adv-x="1251" 
 />
    <glyph glyph-name="tcaron" unicode="&#x165;" horiz-adv-x="768" 
 />
    <glyph glyph-name="Uring" unicode="&#x16e;" horiz-adv-x="1479" 
 />
    <glyph glyph-name="uring" unicode="&#x16f;" 
 />
    <glyph glyph-name="Udblacute" unicode="&#x170;" horiz-adv-x="1479" 
 />
    <glyph glyph-name="udblacute" unicode="&#x171;" 
 />
    <glyph glyph-name="Zacute" unicode="&#x179;" horiz-adv-x="1251" 
 />
    <glyph glyph-name="zacute" unicode="&#x17a;" horiz-adv-x="1024" 
 />
    <glyph glyph-name="Zdot" unicode="&#x17b;" horiz-adv-x="1251" 
 />
    <glyph glyph-name="zdot" unicode="&#x17c;" horiz-adv-x="1024" 
 />
    <glyph glyph-name="Gamma" unicode="&#x393;" horiz-adv-x="1128" 
 />
    <glyph glyph-name="Theta" unicode="&#x398;" horiz-adv-x="1593" 
 />
    <glyph glyph-name="Phi" unicode="&#x3a6;" horiz-adv-x="1634" 
 />
    <glyph glyph-name="alpha" unicode="&#x3b1;" horiz-adv-x="1184" 
 />
    <glyph glyph-name="delta" unicode="&#x3b4;" horiz-adv-x="1140" 
 />
    <glyph glyph-name="epsilon" unicode="&#x3b5;" horiz-adv-x="913" 
 />
    <glyph glyph-name="sigma" unicode="&#x3c3;" horiz-adv-x="1264" 
 />
    <glyph glyph-name="tau" unicode="&#x3c4;" horiz-adv-x="809" 
 />
    <glyph glyph-name="phi" unicode="&#x3c6;" horiz-adv-x="1328" 
 />
    <glyph glyph-name="underscoredbl" unicode="&#x2017;" horiz-adv-x="1131" 
 />
    <glyph glyph-name="exclamdbl" unicode="&#x203c;" horiz-adv-x="1024" 
 />
    <glyph glyph-name="nsuperior" unicode="&#x207f;" horiz-adv-x="747" 
 />
    <glyph glyph-name="peseta" unicode="&#x20a7;" horiz-adv-x="2240" 
 />
    <glyph glyph-name="arrowleft" unicode="&#x2190;" horiz-adv-x="2048" 
 />
    <glyph glyph-name="arrowup" unicode="&#x2191;" horiz-adv-x="1024" 
 />
    <glyph glyph-name="arrowright" unicode="&#x2192;" horiz-adv-x="2048" 
 />
    <glyph glyph-name="arrowdown" unicode="&#x2193;" horiz-adv-x="1024" 
 />
    <glyph glyph-name="arrowboth" unicode="&#x2194;" horiz-adv-x="2048" 
 />
    <glyph glyph-name="arrowupdn" unicode="&#x2195;" horiz-adv-x="1024" 
 />
    <glyph glyph-name="arrowupdnbse" unicode="&#x21a8;" horiz-adv-x="1024" 
 />
    <glyph glyph-name="orthogonal" unicode="&#x221f;" horiz-adv-x="2005" 
 />
    <glyph glyph-name="intersection" unicode="&#x2229;" horiz-adv-x="1472" 
 />
    <glyph glyph-name="equivalence" unicode="&#x2261;" horiz-adv-x="1195" 
 />
    <glyph glyph-name="house" unicode="&#x2302;" horiz-adv-x="1237" 
 />
    <glyph glyph-name="revlogicalnot" unicode="&#x2310;" horiz-adv-x="1196" 
 />
    <glyph glyph-name="integraltp" unicode="&#x2320;" horiz-adv-x="1237" 
 />
    <glyph glyph-name="integralbt" unicode="&#x2321;" horiz-adv-x="1237" 
 />
    <glyph glyph-name="SF100000" unicode="&#x2500;" horiz-adv-x="1451" 
 />
    <glyph glyph-name="SF110000" unicode="&#x2502;" horiz-adv-x="1280" 
 />
    <glyph glyph-name="SF010000" unicode="&#x250c;" horiz-adv-x="1451" 
 />
    <glyph glyph-name="SF030000" unicode="&#x2510;" horiz-adv-x="1451" 
 />
    <glyph glyph-name="SF020000" unicode="&#x2514;" horiz-adv-x="1451" 
 />
    <glyph glyph-name="SF040000" unicode="&#x2518;" horiz-adv-x="1451" 
 />
    <glyph glyph-name="SF080000" unicode="&#x251c;" horiz-adv-x="1451" 
 />
    <glyph glyph-name="SF090000" unicode="&#x2524;" horiz-adv-x="1451" 
 />
    <glyph glyph-name="SF060000" unicode="&#x252c;" horiz-adv-x="1451" 
 />
    <glyph glyph-name="SF070000" unicode="&#x2534;" horiz-adv-x="1451" 
 />
    <glyph glyph-name="SF050000" unicode="&#x253c;" horiz-adv-x="1451" 
 />
    <glyph glyph-name="SF430000" unicode="&#x2550;" horiz-adv-x="1451" 
 />
    <glyph glyph-name="SF240000" unicode="&#x2551;" horiz-adv-x="1451" 
 />
    <glyph glyph-name="SF510000" unicode="&#x2552;" horiz-adv-x="1451" 
 />
    <glyph glyph-name="SF520000" unicode="&#x2553;" horiz-adv-x="1451" 
 />
    <glyph glyph-name="SF390000" unicode="&#x2554;" horiz-adv-x="1451" 
 />
    <glyph glyph-name="SF220000" unicode="&#x2555;" horiz-adv-x="1451" 
 />
    <glyph glyph-name="SF210000" unicode="&#x2556;" horiz-adv-x="1451" 
 />
    <glyph glyph-name="SF250000" unicode="&#x2557;" horiz-adv-x="1451" 
 />
    <glyph glyph-name="SF500000" unicode="&#x2558;" horiz-adv-x="1451" 
 />
    <glyph glyph-name="SF490000" unicode="&#x2559;" horiz-adv-x="1451" 
 />
    <glyph glyph-name="SF380000" unicode="&#x255a;" horiz-adv-x="1451" 
 />
    <glyph glyph-name="SF280000" unicode="&#x255b;" horiz-adv-x="1451" 
 />
    <glyph glyph-name="SF270000" unicode="&#x255c;" horiz-adv-x="1451" 
 />
    <glyph glyph-name="SF260000" unicode="&#x255d;" horiz-adv-x="1451" 
 />
    <glyph glyph-name="SF360000" unicode="&#x255e;" horiz-adv-x="1451" 
 />
    <glyph glyph-name="SF370000" unicode="&#x255f;" horiz-adv-x="1451" 
 />
    <glyph glyph-name="SF420000" unicode="&#x2560;" horiz-adv-x="1451" 
 />
    <glyph glyph-name="SF190000" unicode="&#x2561;" horiz-adv-x="1451" 
 />
    <glyph glyph-name="SF200000" unicode="&#x2562;" horiz-adv-x="1451" 
 />
    <glyph glyph-name="SF230000" unicode="&#x2563;" horiz-adv-x="1451" 
 />
    <glyph glyph-name="SF470000" unicode="&#x2564;" horiz-adv-x="1451" 
 />
    <glyph glyph-name="SF480000" unicode="&#x2565;" horiz-adv-x="1451" 
 />
    <glyph glyph-name="SF410000" unicode="&#x2566;" horiz-adv-x="1451" 
 />
    <glyph glyph-name="SF450000" unicode="&#x2567;" horiz-adv-x="1451" 
 />
    <glyph glyph-name="SF460000" unicode="&#x2568;" horiz-adv-x="1451" 
 />
    <glyph glyph-name="SF400000" unicode="&#x2569;" horiz-adv-x="1451" 
 />
    <glyph glyph-name="SF540000" unicode="&#x256a;" horiz-adv-x="1451" 
 />
    <glyph glyph-name="SF530000" unicode="&#x256b;" horiz-adv-x="1451" 
 />
    <glyph glyph-name="SF440000" unicode="&#x256c;" horiz-adv-x="1451" 
 />
    <glyph glyph-name="upblock" unicode="&#x2580;" horiz-adv-x="1451" 
 />
    <glyph glyph-name="dnblock" unicode="&#x2584;" horiz-adv-x="1451" 
 />
    <glyph glyph-name="block" unicode="&#x2588;" horiz-adv-x="1451" 
 />
    <glyph glyph-name="lfblock" unicode="&#x258c;" horiz-adv-x="1451" 
 />
    <glyph glyph-name="rtblock" unicode="&#x2590;" horiz-adv-x="1451" 
 />
    <glyph glyph-name="ltshade" unicode="&#x2591;" horiz-adv-x="1451" 
 />
    <glyph glyph-name="shade" unicode="&#x2592;" horiz-adv-x="1451" 
 />
    <glyph glyph-name="dkshade" unicode="&#x2593;" horiz-adv-x="1493" 
 />
    <glyph glyph-name="filledbox" unicode="&#x25a0;" horiz-adv-x="1237" 
 />
    <glyph glyph-name="filledrect" unicode="&#x25ac;" horiz-adv-x="2048" 
 />
    <glyph glyph-name="triagup" unicode="&#x25b2;" horiz-adv-x="2027" 
 />
    <glyph glyph-name="triagrt" unicode="&#x25ba;" horiz-adv-x="2027" 
 />
    <glyph glyph-name="triagdn" unicode="&#x25bc;" horiz-adv-x="2027" 
 />
    <glyph glyph-name="triaglf" unicode="&#x25c4;" horiz-adv-x="2027" 
 />
    <glyph glyph-name="circle" unicode="&#x25cb;" horiz-adv-x="1237" 
 />
    <glyph glyph-name="invbullet" unicode="&#x25d8;" horiz-adv-x="1237" 
 />
    <glyph glyph-name="invcircle" unicode="&#x25d9;" horiz-adv-x="1237" 
 />
    <glyph glyph-name="smileface" unicode="&#x263a;" horiz-adv-x="2091" 
 />
    <glyph glyph-name="invsmileface" unicode="&#x263b;" horiz-adv-x="2155" 
 />
    <glyph glyph-name="sun" unicode="&#x263c;" horiz-adv-x="1877" 
 />
    <glyph glyph-name="female" unicode="&#x2640;" horiz-adv-x="1536" 
 />
    <glyph glyph-name="male" unicode="&#x2642;" horiz-adv-x="1536" 
 />
    <glyph glyph-name="spade" unicode="&#x2660;" horiz-adv-x="1088" 
 />
    <glyph glyph-name="club" unicode="&#x2663;" horiz-adv-x="1344" 
 />
    <glyph glyph-name="heart" unicode="&#x2665;" horiz-adv-x="1216" 
 />
    <glyph glyph-name="diamond" unicode="&#x2666;" horiz-adv-x="1045" 
 />
    <glyph glyph-name="musicalnote" unicode="&#x266a;" horiz-adv-x="1024" 
 />
    <glyph glyph-name="musicalnotedbl" unicode="&#x266b;" horiz-adv-x="1536" 
 />
    <glyph glyph-name="IJ" unicode="&#x132;" horiz-adv-x="1505" 
 />
    <glyph glyph-name="ij" unicode="&#x133;" horiz-adv-x="909" 
 />
    <glyph glyph-name="napostrophe" unicode="&#x149;" horiz-adv-x="1237" 
 />
    <glyph glyph-name="minute" unicode="&#x2032;" horiz-adv-x="384" 
 />
    <glyph glyph-name="second" unicode="&#x2033;" horiz-adv-x="725" 
 />
    <glyph glyph-name="afii61248" unicode="&#x2105;" horiz-adv-x="1813" 
 />
    <glyph glyph-name="afii61289" unicode="&#x2113;" horiz-adv-x="662" 
 />
    <glyph glyph-name="H22073" unicode="&#x25a1;" horiz-adv-x="1237" 
 />
    <glyph glyph-name="H18543" unicode="&#x25aa;" horiz-adv-x="726" 
 />
    <glyph glyph-name="H18551" unicode="&#x25ab;" horiz-adv-x="726" 
 />
    <glyph glyph-name="H18533" unicode="&#x25cf;" horiz-adv-x="1237" 
 />
    <glyph glyph-name="openbullet" unicode="&#x25e6;" horiz-adv-x="726" 
 />
    <glyph glyph-name="Amacron" unicode="&#x100;" horiz-adv-x="1366" 
 />
    <glyph glyph-name="amacron" unicode="&#x101;" 
 />
    <glyph glyph-name="Ccircumflex" unicode="&#x108;" horiz-adv-x="1479" 
 />
    <glyph glyph-name="ccircumflex" unicode="&#x109;" horiz-adv-x="1024" 
 />
    <glyph glyph-name="Cdot" unicode="&#x10a;" horiz-adv-x="1479" 
 />
    <glyph glyph-name="cdot" unicode="&#x10b;" horiz-adv-x="1024" 
 />
    <glyph glyph-name="Emacron" unicode="&#x112;" horiz-adv-x="1366" 
 />
    <glyph glyph-name="emacron" unicode="&#x113;" 
 />
    <glyph glyph-name="Ebreve" unicode="&#x114;" horiz-adv-x="1366" 
 />
    <glyph glyph-name="ebreve" unicode="&#x115;" 
 />
    <glyph glyph-name="Edot" unicode="&#x116;" horiz-adv-x="1366" 
 />
    <glyph glyph-name="edot" unicode="&#x117;" 
 />
    <glyph glyph-name="Gcircumflex" unicode="&#x11c;" horiz-adv-x="1593" 
 />
    <glyph glyph-name="gcircumflex" unicode="&#x11d;" 
 />
    <glyph glyph-name="Gdot" unicode="&#x120;" horiz-adv-x="1593" 
 />
    <glyph glyph-name="gdot" unicode="&#x121;" 
 />
    <glyph glyph-name="Gcedilla" unicode="&#x122;" horiz-adv-x="1593" 
 />
    <glyph glyph-name="gcedilla" unicode="&#x123;" 
 />
    <glyph glyph-name="Hcircumflex" unicode="&#x124;" horiz-adv-x="1479" 
 />
    <glyph glyph-name="hcircumflex" unicode="&#x125;" 
 />
    <glyph glyph-name="Hbar" unicode="&#x126;" horiz-adv-x="1479" 
 />
    <glyph glyph-name="hbar" unicode="&#x127;" 
 />
    <glyph glyph-name="Itilde" unicode="&#x128;" horiz-adv-x="569" 
 />
    <glyph glyph-name="itilde" unicode="&#x129;" horiz-adv-x="569" 
 />
    <glyph glyph-name="Imacron" unicode="&#x12a;" horiz-adv-x="569" 
 />
    <glyph glyph-name="imacron" unicode="&#x12b;" horiz-adv-x="569" 
 />
    <glyph glyph-name="Ibreve" unicode="&#x12c;" horiz-adv-x="569" 
 />
    <glyph glyph-name="ibreve" unicode="&#x12d;" horiz-adv-x="569" 
 />
    <glyph glyph-name="Iogonek" unicode="&#x12e;" horiz-adv-x="569" 
 />
    <glyph glyph-name="iogonek" unicode="&#x12f;" horiz-adv-x="455" 
 />
    <glyph glyph-name="Jcircumflex" unicode="&#x134;" horiz-adv-x="1024" 
 />
    <glyph glyph-name="jcircumflex" unicode="&#x135;" horiz-adv-x="455" 
 />
    <glyph glyph-name="Kcedilla" unicode="&#x136;" horiz-adv-x="1366" 
 />
    <glyph glyph-name="kcedilla" unicode="&#x137;" horiz-adv-x="1024" 
 />
    <glyph glyph-name="kgreenlandic" unicode="&#x138;" horiz-adv-x="1024" 
 />
    <glyph glyph-name="Lcedilla" unicode="&#x13b;" 
 />
    <glyph glyph-name="lcedilla" unicode="&#x13c;" horiz-adv-x="455" 
 />
    <glyph glyph-name="Ncedilla" unicode="&#x145;" horiz-adv-x="1479" 
 />
    <glyph glyph-name="ncedilla" unicode="&#x146;" 
 />
    <glyph glyph-name="Eng" unicode="&#x14a;" horiz-adv-x="1481" 
 />
    <glyph glyph-name="eng" unicode="&#x14b;" 
 />
    <glyph glyph-name="Omacron" unicode="&#x14c;" horiz-adv-x="1593" 
 />
    <glyph glyph-name="omacron" unicode="&#x14d;" 
 />
    <glyph glyph-name="Obreve" unicode="&#x14e;" horiz-adv-x="1593" 
 />
    <glyph glyph-name="obreve" unicode="&#x14f;" 
 />
    <glyph glyph-name="Rcedilla" unicode="&#x156;" horiz-adv-x="1479" 
 />
    <glyph glyph-name="rcedilla" unicode="&#x157;" horiz-adv-x="682" 
 />
    <glyph glyph-name="Scircumflex" unicode="&#x15c;" horiz-adv-x="1366" 
 />
    <glyph glyph-name="scircumflex" unicode="&#x15d;" horiz-adv-x="1024" 
 />
    <glyph glyph-name="Tbar" unicode="&#x166;" horiz-adv-x="1251" 
 />
    <glyph glyph-name="tbar" unicode="&#x167;" horiz-adv-x="569" 
 />
    <glyph glyph-name="Utilde" unicode="&#x168;" horiz-adv-x="1479" 
 />
    <glyph glyph-name="utilde" unicode="&#x169;" 
 />
    <glyph glyph-name="Umacron" unicode="&#x16a;" horiz-adv-x="1479" 
 />
    <glyph glyph-name="umacron" unicode="&#x16b;" 
 />
    <glyph glyph-name="Ubreve" unicode="&#x16c;" horiz-adv-x="1479" 
 />
    <glyph glyph-name="ubreve" unicode="&#x16d;" 
 />
    <glyph glyph-name="Uogonek" unicode="&#x172;" horiz-adv-x="1479" 
 />
    <glyph glyph-name="uogonek" unicode="&#x173;" 
 />
    <glyph glyph-name="Wcircumflex" unicode="&#x174;" horiz-adv-x="1933" 
 />
    <glyph glyph-name="wcircumflex" unicode="&#x175;" horiz-adv-x="1479" 
 />
    <glyph glyph-name="Ycircumflex" unicode="&#x176;" horiz-adv-x="1366" 
 />
    <glyph glyph-name="ycircumflex" unicode="&#x177;" horiz-adv-x="1024" 
 />
    <glyph glyph-name="longs" unicode="&#x17f;" horiz-adv-x="455" 
 />
    <glyph glyph-name="Aringacute" unicode="&#x1fa;" horiz-adv-x="1366" 
 />
    <glyph glyph-name="aringacute" unicode="&#x1fb;" 
 />
    <glyph glyph-name="AEacute" unicode="&#x1fc;" horiz-adv-x="2048" 
 />
    <glyph glyph-name="aeacute" unicode="&#x1fd;" horiz-adv-x="1821" 
 />
    <glyph glyph-name="Oslashacute" unicode="&#x1fe;" horiz-adv-x="1593" 
 />
    <glyph glyph-name="oslashacute" unicode="&#x1ff;" horiz-adv-x="1251" 
 />
    <glyph glyph-name="anoteleia" unicode="&#x387;" horiz-adv-x="569" 
 />
    <glyph glyph-name="Wgrave" unicode="&#x1e80;" horiz-adv-x="1933" 
 />
    <glyph glyph-name="wgrave" unicode="&#x1e81;" horiz-adv-x="1479" 
 />
    <glyph glyph-name="Wacute" unicode="&#x1e82;" horiz-adv-x="1933" 
 />
    <glyph glyph-name="wacute" unicode="&#x1e83;" horiz-adv-x="1479" 
 />
    <glyph glyph-name="Wdieresis" unicode="&#x1e84;" horiz-adv-x="1933" 
 />
    <glyph glyph-name="wdieresis" unicode="&#x1e85;" horiz-adv-x="1479" 
 />
    <glyph glyph-name="Ygrave" unicode="&#x1ef2;" horiz-adv-x="1366" 
 />
    <glyph glyph-name="ygrave" unicode="&#x1ef3;" horiz-adv-x="1024" 
 />
    <glyph glyph-name="quotereversed" unicode="&#x201b;" horiz-adv-x="455" 
 />
    <glyph glyph-name="radicalex" unicode="&#x203e;" horiz-adv-x="682" 
 />
    <glyph glyph-name="afii08941" unicode="&#x20a4;" 
 />
    <glyph glyph-name="estimated" unicode="&#x212e;" horiz-adv-x="1229" 
 />
    <glyph glyph-name="oneeighth" unicode="&#x215b;" horiz-adv-x="1708" 
 />
    <glyph glyph-name="threeeighths" unicode="&#x215c;" horiz-adv-x="1708" 
 />
    <glyph glyph-name="fiveeighths" unicode="&#x215d;" horiz-adv-x="1708" 
 />
    <glyph glyph-name="seveneighths" unicode="&#x215e;" horiz-adv-x="1708" 
 />
    <glyph glyph-name="commaaccent" unicode="&#xf004;" horiz-adv-x="682" 
 />
    <glyph glyph-name="undercommaaccent" unicode="&#xf005;" horiz-adv-x="682" 
 />
    <glyph glyph-name="tonos" unicode="&#x384;" horiz-adv-x="682" 
 />
    <glyph glyph-name="dieresistonos" unicode="&#x385;" horiz-adv-x="682" 
 />
    <glyph glyph-name="Alphatonos" unicode="&#x386;" horiz-adv-x="1367" 
 />
    <glyph glyph-name="Epsilontonos" unicode="&#x388;" horiz-adv-x="1606" 
 />
    <glyph glyph-name="Etatonos" unicode="&#x389;" horiz-adv-x="1716" 
 />
    <glyph glyph-name="Iotatonos" unicode="&#x38a;" horiz-adv-x="786" 
 />
    <glyph glyph-name="Omicrontonos" unicode="&#x38c;" horiz-adv-x="1586" 
 />
    <glyph glyph-name="Upsilontonos" unicode="&#x38e;" horiz-adv-x="1752" 
 />
    <glyph glyph-name="Omegatonos" unicode="&#x38f;" horiz-adv-x="1541" 
 />
    <glyph glyph-name="iotadieresistonos" unicode="&#x390;" horiz-adv-x="455" 
 />
    <glyph glyph-name="Alpha" unicode="&#x391;" horiz-adv-x="1366" 
 />
    <glyph glyph-name="Beta" unicode="&#x392;" horiz-adv-x="1366" 
 />
    <glyph glyph-name="Delta" unicode="&#x394;" horiz-adv-x="1368" 
 />
    <glyph glyph-name="Epsilon" unicode="&#x395;" horiz-adv-x="1366" 
 />
    <glyph glyph-name="Zeta" unicode="&#x396;" horiz-adv-x="1251" 
 />
    <glyph glyph-name="Eta" unicode="&#x397;" horiz-adv-x="1479" 
 />
    <glyph glyph-name="Iota" unicode="&#x399;" horiz-adv-x="569" 
 />
    <glyph glyph-name="Kappa" unicode="&#x39a;" horiz-adv-x="1366" 
 />
    <glyph glyph-name="Lambda" unicode="&#x39b;" horiz-adv-x="1368" 
 />
    <glyph glyph-name="Mu" unicode="&#x39c;" horiz-adv-x="1706" 
 />
    <glyph glyph-name="Nu" unicode="&#x39d;" horiz-adv-x="1479" 
 />
    <glyph glyph-name="Xi" unicode="&#x39e;" horiz-adv-x="1331" 
 />
    <glyph glyph-name="Omicron" unicode="&#x39f;" horiz-adv-x="1593" 
 />
    <glyph glyph-name="Pi" unicode="&#x3a0;" horiz-adv-x="1479" 
 />
    <glyph glyph-name="Rho" unicode="&#x3a1;" horiz-adv-x="1366" 
 />
    <glyph glyph-name="Sigma" unicode="&#x3a3;" horiz-adv-x="1266" 
 />
    <glyph glyph-name="Tau" unicode="&#x3a4;" horiz-adv-x="1251" 
 />
    <glyph glyph-name="Upsilon" unicode="&#x3a5;" horiz-adv-x="1366" 
 />
    <glyph glyph-name="Chi" unicode="&#x3a7;" horiz-adv-x="1366" 
 />
    <glyph glyph-name="Psi" unicode="&#x3a8;" horiz-adv-x="1711" 
 />
    <glyph glyph-name="Omega" unicode="&#x3a9;" horiz-adv-x="1531" 
 />
    <glyph glyph-name="Iotadieresis" unicode="&#x3aa;" horiz-adv-x="569" 
 />
    <glyph glyph-name="Upsilondieresis" unicode="&#x3ab;" horiz-adv-x="1366" 
 />
    <glyph glyph-name="alphatonos" unicode="&#x3ac;" horiz-adv-x="1184" 
 />
    <glyph glyph-name="epsilontonos" unicode="&#x3ad;" horiz-adv-x="913" 
 />
    <glyph glyph-name="etatonos" unicode="&#x3ae;" 
 />
    <glyph glyph-name="iotatonos" unicode="&#x3af;" horiz-adv-x="455" 
 />
    <glyph glyph-name="upsilondieresistonos" unicode="&#x3b0;" horiz-adv-x="1120" 
 />
    <glyph glyph-name="beta" unicode="&#x3b2;" horiz-adv-x="1178" 
 />
    <glyph glyph-name="gamma" unicode="&#x3b3;" horiz-adv-x="1024" 
 />
    <glyph glyph-name="zeta" unicode="&#x3b6;" horiz-adv-x="903" 
 />
    <glyph glyph-name="eta" unicode="&#x3b7;" 
 />
    <glyph glyph-name="theta" unicode="&#x3b8;" 
 />
    <glyph glyph-name="iota" unicode="&#x3b9;" horiz-adv-x="455" 
 />
    <glyph glyph-name="kappa" unicode="&#x3ba;" horiz-adv-x="1024" 
 />
    <glyph glyph-name="lambda" unicode="&#x3bb;" horiz-adv-x="1024" 
 />
    <glyph glyph-name="mu" unicode="&#x3bc;" horiz-adv-x="1180" 
 />
    <glyph glyph-name="nu" unicode="&#x3bd;" horiz-adv-x="1024" 
 />
    <glyph glyph-name="xi" unicode="&#x3be;" horiz-adv-x="917" 
 />
    <glyph glyph-name="omicron" unicode="&#x3bf;" 
 />
    <glyph glyph-name="rho" unicode="&#x3c1;" horiz-adv-x="1165" 
 />
    <glyph glyph-name="sigma1" unicode="&#x3c2;" horiz-adv-x="987" 
 />
    <glyph glyph-name="upsilon" unicode="&#x3c5;" horiz-adv-x="1120" 
 />
    <glyph glyph-name="chi" unicode="&#x3c7;" horiz-adv-x="1075" 
 />
    <glyph glyph-name="psi" unicode="&#x3c8;" horiz-adv-x="1460" 
 />
    <glyph glyph-name="omega" unicode="&#x3c9;" horiz-adv-x="1599" 
 />
    <glyph glyph-name="iotadieresis" unicode="&#x3ca;" horiz-adv-x="455" 
 />
    <glyph glyph-name="upsilondieresis" unicode="&#x3cb;" horiz-adv-x="1120" 
 />
    <glyph glyph-name="omicrontonos" unicode="&#x3cc;" 
 />
    <glyph glyph-name="upsilontonos" unicode="&#x3cd;" horiz-adv-x="1120" 
 />
    <glyph glyph-name="omegatonos" unicode="&#x3ce;" horiz-adv-x="1599" 
 />
    <glyph glyph-name="afii10023" unicode="&#x401;" horiz-adv-x="1367" 
 />
    <glyph glyph-name="afii10051" unicode="&#x402;" horiz-adv-x="1771" 
 />
    <glyph glyph-name="afii10052" unicode="&#x403;" horiz-adv-x="1109" 
 />
    <glyph glyph-name="afii10053" unicode="&#x404;" horiz-adv-x="1472" 
 />
    <glyph glyph-name="afii10054" unicode="&#x405;" horiz-adv-x="1366" 
 />
    <glyph glyph-name="afii10055" unicode="&#x406;" horiz-adv-x="569" 
 />
    <glyph glyph-name="afii10056" unicode="&#x407;" horiz-adv-x="569" 
 />
    <glyph glyph-name="afii10057" unicode="&#x408;" horiz-adv-x="1024" 
 />
    <glyph glyph-name="afii10058" unicode="&#x409;" horiz-adv-x="2165" 
 />
    <glyph glyph-name="afii10059" unicode="&#x40a;" horiz-adv-x="2069" 
 />
    <glyph glyph-name="afii10060" unicode="&#x40b;" horiz-adv-x="1749" 
 />
    <glyph glyph-name="afii10061" unicode="&#x40c;" horiz-adv-x="1193" 
 />
    <glyph glyph-name="afii10062" unicode="&#x40e;" horiz-adv-x="1301" 
 />
    <glyph glyph-name="afii10145" unicode="&#x40f;" horiz-adv-x="1472" 
 />
    <glyph glyph-name="afii10017" unicode="&#x410;" horiz-adv-x="1366" 
 />
    <glyph glyph-name="afii10018" unicode="&#x411;" horiz-adv-x="1344" 
 />
    <glyph glyph-name="afii10019" unicode="&#x412;" horiz-adv-x="1366" 
 />
    <glyph glyph-name="afii10020" unicode="&#x413;" horiz-adv-x="1109" 
 />
    <glyph glyph-name="afii10021" unicode="&#x414;" horiz-adv-x="1387" 
 />
    <glyph glyph-name="afii10022" unicode="&#x415;" horiz-adv-x="1366" 
 />
    <glyph glyph-name="afii10024" unicode="&#x416;" horiz-adv-x="1891" 
 />
    <glyph glyph-name="afii10025" unicode="&#x417;" horiz-adv-x="1237" 
 />
    <glyph glyph-name="afii10026" unicode="&#x418;" horiz-adv-x="1472" 
 />
    <glyph glyph-name="afii10027" unicode="&#x419;" horiz-adv-x="1472" 
 />
    <glyph glyph-name="afii10028" unicode="&#x41a;" horiz-adv-x="1193" 
 />
    <glyph glyph-name="afii10029" unicode="&#x41b;" horiz-adv-x="1344" 
 />
    <glyph glyph-name="afii10030" unicode="&#x41c;" horiz-adv-x="1706" 
 />
    <glyph glyph-name="afii10031" unicode="&#x41d;" horiz-adv-x="1479" 
 />
    <glyph glyph-name="afii10032" unicode="&#x41e;" horiz-adv-x="1593" 
 />
    <glyph glyph-name="afii10033" unicode="&#x41f;" horiz-adv-x="1472" 
 />
    <glyph glyph-name="afii10034" unicode="&#x420;" horiz-adv-x="1366" 
 />
    <glyph glyph-name="afii10035" unicode="&#x421;" horiz-adv-x="1479" 
 />
    <glyph glyph-name="afii10036" unicode="&#x422;" horiz-adv-x="1251" 
 />
    <glyph glyph-name="afii10037" unicode="&#x423;" horiz-adv-x="1301" 
 />
    <glyph glyph-name="afii10038" unicode="&#x424;" horiz-adv-x="1557" 
 />
    <glyph glyph-name="afii10039" unicode="&#x425;" horiz-adv-x="1366" 
 />
    <glyph glyph-name="afii10040" unicode="&#x426;" horiz-adv-x="1515" 
 />
    <glyph glyph-name="afii10041" unicode="&#x427;" horiz-adv-x="1365" 
 />
    <glyph glyph-name="afii10042" unicode="&#x428;" horiz-adv-x="1877" 
 />
    <glyph glyph-name="afii10043" unicode="&#x429;" horiz-adv-x="1920" 
 />
    <glyph glyph-name="afii10044" unicode="&#x42a;" horiz-adv-x="1621" 
 />
    <glyph glyph-name="afii10045" unicode="&#x42b;" horiz-adv-x="1813" 
 />
    <glyph glyph-name="afii10046" unicode="&#x42c;" horiz-adv-x="1344" 
 />
    <glyph glyph-name="afii10047" unicode="&#x42d;" horiz-adv-x="1472" 
 />
    <glyph glyph-name="afii10048" unicode="&#x42e;" horiz-adv-x="2069" 
 />
    <glyph glyph-name="afii10049" unicode="&#x42f;" horiz-adv-x="1479" 
 />
    <glyph glyph-name="afii10065" unicode="&#x430;" 
 />
    <glyph glyph-name="afii10066" unicode="&#x431;" horiz-adv-x="1173" 
 />
    <glyph glyph-name="afii10067" unicode="&#x432;" horiz-adv-x="1088" 
 />
    <glyph glyph-name="afii10068" unicode="&#x433;" horiz-adv-x="747" 
 />
    <glyph glyph-name="afii10069" unicode="&#x434;" horiz-adv-x="1195" 
 />
    <glyph glyph-name="afii10070" unicode="&#x435;" 
 />
    <glyph glyph-name="afii10072" unicode="&#x436;" horiz-adv-x="1370" 
 />
    <glyph glyph-name="afii10073" unicode="&#x437;" horiz-adv-x="939" 
 />
    <glyph glyph-name="afii10074" unicode="&#x438;" horiz-adv-x="1144" 
 />
    <glyph glyph-name="afii10075" unicode="&#x439;" horiz-adv-x="1144" 
 />
    <glyph glyph-name="afii10076" unicode="&#x43a;" horiz-adv-x="896" 
 />
    <glyph glyph-name="afii10077" unicode="&#x43b;" horiz-adv-x="1195" 
 />
    <glyph glyph-name="afii10078" unicode="&#x43c;" horiz-adv-x="1408" 
 />
    <glyph glyph-name="afii10079" unicode="&#x43d;" horiz-adv-x="1131" 
 />
    <glyph glyph-name="afii10080" unicode="&#x43e;" 
 />
    <glyph glyph-name="afii10081" unicode="&#x43f;" horiz-adv-x="1109" 
 />
    <glyph glyph-name="afii10082" unicode="&#x440;" 
 />
    <glyph glyph-name="afii10083" unicode="&#x441;" horiz-adv-x="1024" 
 />
    <glyph glyph-name="afii10084" unicode="&#x442;" horiz-adv-x="938" 
 />
    <glyph glyph-name="afii10085" unicode="&#x443;" horiz-adv-x="1024" 
 />
    <glyph glyph-name="afii10086" unicode="&#x444;" horiz-adv-x="1685" 
 />
    <glyph glyph-name="afii10087" unicode="&#x445;" horiz-adv-x="1024" 
 />
    <glyph glyph-name="afii10088" unicode="&#x446;" horiz-adv-x="1173" 
 />
    <glyph glyph-name="afii10089" unicode="&#x447;" horiz-adv-x="1067" 
 />
    <glyph glyph-name="afii10090" unicode="&#x448;" horiz-adv-x="1643" 
 />
    <glyph glyph-name="afii10091" unicode="&#x449;" horiz-adv-x="1685" 
 />
    <glyph glyph-name="afii10092" unicode="&#x44a;" horiz-adv-x="1280" 
 />
    <glyph glyph-name="afii10093" unicode="&#x44b;" horiz-adv-x="1472" 
 />
    <glyph glyph-name="afii10094" unicode="&#x44c;" horiz-adv-x="1067" 
 />
    <glyph glyph-name="afii10095" unicode="&#x44d;" horiz-adv-x="1045" 
 />
    <glyph glyph-name="afii10096" unicode="&#x44e;" horiz-adv-x="1536" 
 />
    <glyph glyph-name="afii10097" unicode="&#x44f;" horiz-adv-x="1109" 
 />
    <glyph glyph-name="afii10071" unicode="&#x451;" 
 />
    <glyph glyph-name="afii10099" unicode="&#x452;" 
 />
    <glyph glyph-name="afii10100" unicode="&#x453;" horiz-adv-x="747" 
 />
    <glyph glyph-name="afii10101" unicode="&#x454;" horiz-adv-x="1045" 
 />
    <glyph glyph-name="afii10102" unicode="&#x455;" horiz-adv-x="1024" 
 />
    <glyph glyph-name="afii10103" unicode="&#x456;" horiz-adv-x="455" 
 />
    <glyph glyph-name="afii10104" unicode="&#x457;" horiz-adv-x="569" 
 />
    <glyph glyph-name="afii10105" unicode="&#x458;" horiz-adv-x="455" 
 />
    <glyph glyph-name="afii10106" unicode="&#x459;" horiz-adv-x="1856" 
 />
    <glyph glyph-name="afii10107" unicode="&#x45a;" horiz-adv-x="1664" 
 />
    <glyph glyph-name="afii10108" unicode="&#x45b;" 
 />
    <glyph glyph-name="afii10109" unicode="&#x45c;" horiz-adv-x="896" 
 />
    <glyph glyph-name="afii10110" unicode="&#x45e;" horiz-adv-x="1024" 
 />
    <glyph glyph-name="afii10193" unicode="&#x45f;" horiz-adv-x="1131" 
 />
    <glyph glyph-name="afii10050" unicode="&#x490;" horiz-adv-x="1001" 
 />
    <glyph glyph-name="afii10098" unicode="&#x491;" horiz-adv-x="842" 
 />
    <glyph glyph-name="afii00208" unicode="&#x2015;" horiz-adv-x="2048" 
 />
    <glyph glyph-name="afii61352" unicode="&#x2116;" horiz-adv-x="2197" 
 />
    <glyph glyph-name="pi" unicode="&#x3c0;" horiz-adv-x="1413" 
 />
  </font>
</defs>
</svg>
